<?xml version="1.0" encoding="utf-8"?>
<svg width="471.708" height="511.995" viewBox="0 0 471.708 511.995" fill="none" stroke="none" version="1.1" xmlns:xlink="http://www.w3.org/1999/xlink" xmlns="http://www.w3.org/2000/svg">
  <g id="Group">
    <rect id="Rectangle" width="172.481" height="150.921" style="fill:#AD712C;fill-rule:evenodd;mix-blend-mode:normal;" transform="translate(203.887 299.111)" />
    <rect id="Rectangle" width="86.241" height="150.921" style="fill:#C98A2E;fill-rule:evenodd;mix-blend-mode:normal;" transform="translate(203.887 299.111)" />
    <rect id="Rectangle" width="43.12" height="150.921" style="fill:#D5A150;fill-rule:evenodd;mix-blend-mode:normal;" transform="translate(203.887 299.111)" />
    <g id="Group" transform="translate(203.887 299.111)">
      <rect id="Rectangle" width="172.481" height="43.12" style="fill:#0FB140;fill-rule:evenodd;fill-opacity:0.4;mix-blend-mode:normal;" />
      <path id="Path" d="M49.588 0C20.848 8.92599 0 35.472 0 66.837C0 66.837 0 107.801 0 107.801L99.177 107.801C99.177 107.801 99.177 66.837 99.177 66.837C99.176 35.473 78.327 8.927 49.588 0C49.588 0 49.588 0 49.588 0Z" style="fill:#0FB140;fill-rule:evenodd;mix-blend-mode:normal;" transform="translate(36.657 43.119)" />
    </g>
    <path id="Path" d="M282.728 416.518C197.794 409.02 126.614 349.468 104.545 267.442C82.476 185.416 114.221 98.398 184.013 49.612C223.075 22.306 269.391 10.246 314.872 13.429C317.762 13.632 320.883 11.978 321.702 9.374C322.908 5.537 317.32 0 317.32 0C317.32 0 175.32 0.0170002 175.32 0.0170002L51.517 110.898L0 302.443L137.678 431.141C137.678 431.141 272.968 479.56 272.968 479.56C272.968 479.56 413.619 423.732 445.216 375.67C449.622 368.968 440.878 361.527 434.841 366.822C393.958 402.681 339.315 421.513 282.728 416.518C282.728 416.518 282.728 416.518 282.728 416.518Z" style="fill:#ABA734;fill-rule:evenodd;mix-blend-mode:normal;" transform="translate(17.22 17.764)" />
    <path id="Path" d="M164.844 432.954C66.3464 377.079 24.6824 257.154 67.4454 152.602C110.115 48.2783 252.209 -0.289738 330.859 19.0893C332.333 15.6473 331.14 11.0703 326.477 9.71526C282.878 -2.95074 234.175 -3.52874 184.477 9.73226C48.2084 46.0983 -27.3566 176.445 9.15738 312.159C45.6714 447.873 176.552 523.128 312.822 486.764C374.156 470.397 422.776 433.447 454.373 385.386C456.361 382.362 455.66 379.2 453.752 377.112C390.457 456.779 286.591 502.017 164.844 432.954C164.844 432.954 164.844 432.954 164.844 432.954Z" style="fill:#D2BD5D;fill-rule:evenodd;mix-blend-mode:normal;" transform="translate(8.062 8.047)" />
    <path id="Path" d="M64.68 15.998C64.68 15.998 43.12 0 43.12 0C36.329 4.54601 30.145 9.92799 24.712 15.998C23.631 17.206 22.58 18.442 21.56 19.703C17.119 25.192 13.265 31.176 10.093 37.558C6.72501 44.334 4.12401 51.557 2.408 59.118C0.834 66.053 0 73.268 0 80.678C0 88.089 0.841003 95.303 2.41701 102.238C4.134 109.797 6.72601 117.023 10.093 123.798C10.093 123.798 64.68 37.557 64.68 37.557L86.24 15.997L64.68 15.997L64.68 15.998Z" style="fill:#E1B872;fill-rule:evenodd;mix-blend-mode:normal;" transform="translate(193.111 153.751)" />
    <path id="Path" d="M107.8 0.598999C104.26 0.207993 100.665 0 97.02 0C85.679 0 74.796 1.952 64.68 5.528C60.493 7.008 56.438 8.763 52.536 10.78C49.286 12.461 46.142 14.319 43.12 16.343C43.12 16.343 43.12 32.341 43.12 32.341L64.68 32.341L64.68 53.901L43.12 53.901L43.12 75.461L21.56 75.461L21.56 97.021C21.56 97.021 0 97.021 0 97.021C0 104.432 0.841003 111.646 2.41701 118.581C4.134 126.14 6.72601 133.366 10.093 140.141C10.093 140.141 21.56 140.141 21.56 140.141L64.68 118.581L129.36 32.34L107.8 0.598999C107.8 0.598999 107.8 0.598999 107.8 0.598999Z" style="fill:#D5A150;fill-rule:evenodd;mix-blend-mode:normal;" transform="translate(193.112 137.409)" />
    <path id="Path" d="M150.921 53.301C150.921 53.301 119.944 10.181 119.944 10.181C109.648 4.85899 98.276 1.33099 86.24 0C86.24 0 86.24 10.181 86.24 10.181L64.68 10.181L64.68 31.741L86.24 31.741L86.24 53.301L64.68 53.301L64.68 74.861L43.12 74.861L43.12 96.421L21.56 96.421L21.56 117.981L0 117.981L0 139.541L43.12 139.541L107.8 139.541L150.92 74.861L160.353 64.35L150.921 53.301L150.921 53.301Z" style="fill:#C98A2E;fill-rule:evenodd;mix-blend-mode:normal;" transform="translate(214.671 138.008)" />
    <path id="Path" d="M126.953 64.68C125.237 57.119 122.636 49.896 119.268 43.12C115.367 35.271 110.436 28.026 104.648 21.56C96.797 12.789 87.376 5.455 76.824 0C76.824 0 64.68 0 64.68 0L64.68 21.56L86.24 21.56L86.24 43.12L107.8 43.12L107.8 64.68L86.24 64.68L86.24 86.24L64.68 86.24L64.68 107.8L43.12 107.8L21.56 107.8L0 107.8L0 129.36L43.12 129.36L86.24 129.36C86.24 129.36 119.267 129.36 119.267 129.36C122.635 122.585 125.226 115.359 126.944 107.8C128.52 100.865 129.361 93.651 129.361 86.24C129.361 78.83 128.527 71.615 126.953 64.68C126.953 64.68 126.953 64.68 126.953 64.68Z" style="fill:#AD712C;fill-rule:evenodd;mix-blend-mode:normal;" transform="translate(257.791 148.189)" />
    <path id="Path" d="M181.531 51.317C177.63 43.468 172.699 36.223 166.911 29.757C159.06 20.985 149.639 13.652 139.087 8.19701C132.111 4.591 124.633 1.834 116.798 0C125.473 5.10899 133.286 11.522 139.961 18.977C145.748 25.443 150.68 32.688 154.581 40.537C157.949 47.312 160.55 54.536 162.266 62.097C163.84 69.032 164.674 76.247 164.674 83.657C164.674 91.068 163.833 98.282 162.257 105.217C162.24 105.292 162.222 105.369 162.205 105.443C162.196 105.482 162.187 105.522 162.178 105.56C160.731 111.732 155.073 115.996 148.735 115.996C148.735 115.996 91.639 115.996 91.639 115.996C91.639 115.996 0 115.996 0 115.996C1.717 123.555 4.30901 130.781 7.67599 137.556C7.67599 137.556 19.143 137.556 19.143 137.556L62.263 137.556L105.383 137.556L126.943 137.556L148.503 137.556C148.503 137.556 181.53 137.556 181.53 137.556C184.898 130.781 187.489 123.555 189.207 115.996C190.783 109.061 191.624 101.847 191.624 94.436C191.624 87.026 190.79 79.811 189.216 72.876C187.5 65.317 184.899 58.093 181.531 51.317C181.531 51.317 181.531 51.317 181.531 51.317Z" style="fill:#7A5436;fill-rule:evenodd;fill-opacity:0.4;mix-blend-mode:normal;" transform="translate(195.528 139.992)" />
    <path id="Path" d="M34.496 43.12C34.496 43.12 12.936 43.12 12.936 43.12C5.79201 43.12 0 37.328 0 30.184C0 30.184 0 12.936 0 12.936C0 5.79199 5.79201 0 12.936 0C12.936 0 34.496 0 34.496 0L56.056 21.56L34.496 43.12L34.496 43.12Z" style="fill:#ECCE93;fill-rule:evenodd;mix-blend-mode:normal;" transform="translate(192.033 277.55)" />
    <path id="Path" d="M43.121 43.12L0 43.12L0 0L43.121 0L64.681 21.56L43.121 43.12Z" style="fill:#D5A150;fill-rule:evenodd;mix-blend-mode:normal;" transform="translate(226.529 277.55)" />
    <path id="Path" d="M43.12 43.12L0 43.12L0 0L43.12 0L64.68 21.56L43.12 43.12Z" style="fill:#C98A2E;fill-rule:evenodd;mix-blend-mode:normal;" transform="translate(269.65 277.55)" />
    <path id="Path" d="M62.524 0L32.34 0L0 0L0 43.12L32.34 43.12C32.34 43.12 62.524 43.12 62.524 43.12C69.668 43.12 75.46 37.328 75.46 30.184C75.46 30.184 75.46 12.936 75.46 12.936C75.46 5.79199 69.668 0 62.524 0C62.524 0 62.524 0 62.524 0Z" style="fill:#AD712C;fill-rule:evenodd;mix-blend-mode:normal;" transform="translate(312.77 277.55)" />
    <path id="Path" d="M0 0C0 0 0 8.62399 0 8.62399C0 15.768 5.79201 21.56 12.936 21.56C12.936 21.56 183.261 21.56 183.261 21.56C190.405 21.56 196.197 15.768 196.197 8.62399C196.197 8.62399 196.197 0 196.197 0L0 0L0 0Z" style="fill:#7A5436;fill-rule:evenodd;fill-opacity:0.4;mix-blend-mode:normal;" transform="translate(192.033 299.11)" />
    <path id="Path" d="M40.425 0C40.425 0 18.865 0 18.865 0C8.46298 0 0 8.463 0 18.865C0 20.402 0.204987 21.89 0.553986 23.321C0.553986 23.321 58.736 23.323 58.736 23.323C59.085 21.891 59.29 20.403 59.29 18.864C59.29 8.463 50.826 0 40.425 0C40.425 0 40.425 0 40.425 0Z" style="fill:#C98A2E;fill-rule:evenodd;mix-blend-mode:normal;" transform="translate(260.487 118.544)" />
    <path id="Shape" d="M471.698 389.097C471.481 383.42 467.887 378.261 462.524 375.938C457.214 373.636 451.16 374.621 446.729 378.507C428.357 394.622 407.152 406.994 384.456 415.209C384.456 415.209 384.456 326.625 384.456 326.625C391.462 323.212 396.314 316.039 396.314 307.735C396.314 307.735 396.314 290.487 396.314 290.487C396.314 283.535 392.908 277.378 387.691 273.549C389.739 268.439 391.395 263.165 392.618 257.782C394.355 250.138 395.236 242.281 395.236 234.43C395.236 226.567 394.36 218.71 392.628 211.081C392.628 211.081 392.628 211.08 392.628 211.08C390.795 203.007 387.993 195.144 384.297 187.711C380.098 179.264 374.771 171.406 368.462 164.357C359.87 154.757 349.731 146.902 338.325 141.006C334.95 139.262 331.441 137.69 327.837 136.31C327.258 121.957 315.401 110.458 300.909 110.458C300.909 110.458 297.136 110.458 297.136 110.458C297.136 110.458 297.136 102.887 297.136 102.887C301.964 100.09 305.221 94.8797 305.221 88.8977C305.221 79.9677 297.981 72.7277 289.051 72.7277C280.121 72.7277 272.881 79.9677 272.881 88.8977C272.881 94.8797 276.138 100.09 280.966 102.887C280.966 102.887 280.966 110.458 280.966 110.458C280.966 110.458 279.349 110.458 279.349 110.458C264.859 110.458 253.005 121.952 252.421 136.3C248.838 137.677 245.32 139.255 241.933 141.006C238.446 142.808 235.012 144.836 231.731 147.032C224.403 151.937 217.695 157.766 211.794 164.358C210.629 165.66 209.481 167.01 208.382 168.368C203.553 174.339 199.373 180.847 195.961 187.71C192.266 195.144 189.464 203.006 187.63 211.08C185.9 218.71 185.022 226.566 185.022 234.429C185.022 242.28 185.903 250.137 187.64 257.78C188.862 263.162 190.518 268.438 192.566 273.548C187.35 277.377 183.943 283.534 183.943 290.486C183.943 290.486 183.943 307.734 183.943 307.734C183.943 316.038 188.795 323.21 195.801 326.624C195.801 326.624 195.801 368.103 195.801 368.103C195.801 372.568 199.42 376.188 203.886 376.188C208.352 376.188 211.971 372.568 211.971 368.103C211.971 368.103 211.971 328.756 211.971 328.756L368.282 328.756C368.282 328.756 368.282 420.291 368.282 420.291C346.412 426.141 323.506 428.246 300.654 426.228C282.561 424.632 265.089 420.531 248.623 414.263C248.623 414.263 248.623 409.068 248.623 409.068C248.623 382.702 265.197 359.572 290.126 350.749C315.055 359.572 331.629 382.701 331.629 409.068C331.629 413.533 335.248 417.153 339.714 417.153C344.18 417.153 347.799 413.533 347.799 409.068C347.799 374.741 325.586 344.779 292.524 334.51C290.962 334.025 289.29 334.025 287.728 334.51C255.242 344.599 233.245 373.706 232.489 407.281C182.782 383.041 144.403 338.242 129.568 283.106C108.468 204.683 139.127 120.651 205.86 74.0028C242.368 48.4808 287.003 36.1398 331.522 39.2598C336.086 39.5798 339.027 37.8098 340.702 36.2718C341.212 35.8027 341.752 35.2178 342.262 34.4988C342.29 34.4858 342.316 34.4698 342.344 34.4568C342.439 34.4128 342.53 34.3618 342.624 34.3138C342.756 34.2458 342.887 34.1778 343.015 34.1028C343.106 34.0488 343.193 33.9918 343.281 33.9348C343.405 33.8548 343.528 33.7748 343.648 33.6878C343.735 33.6238 343.819 33.5588 343.905 33.4918C344.018 33.4028 344.13 33.3128 344.239 33.2178C344.324 33.1438 344.406 33.0658 344.488 32.9878C344.588 32.8918 344.687 32.7948 344.782 32.6948C344.865 32.6078 344.945 32.5178 345.023 32.4278C345.109 32.3288 345.193 32.2268 345.274 32.1238C345.354 32.0228 345.43 31.9198 345.505 31.8148C345.577 31.7138 345.646 31.6098 345.714 31.5048C345.787 31.3908 345.858 31.2738 345.926 31.1558C345.986 31.0498 346.043 30.9428 346.1 30.8338C346.164 30.7108 346.225 30.5868 346.282 30.4588C346.303 30.4128 346.327 30.3708 346.348 30.3238C346.376 30.2568 346.394 30.1888 346.422 30.1218C346.478 29.9798 346.533 29.8348 346.582 29.6888C348.046 25.8118 347.92 21.5378 346.177 17.8498C344.367 14.0228 341.034 11.2358 336.791 10.0028C290.915 -3.32424 240.315 -3.33424 190.451 9.97276C122.303 28.1567 66.3397 70.0937 32.8747 128.057C-0.434298 185.752 -8.7673 254.737 9.4117 322.307C27.6317 390.032 69.6107 445.697 127.612 479.047C165.564 500.869 208.391 511.995 252.512 511.995C275.812 511.995 299.473 508.892 322.967 502.623C353.885 494.373 382.348 480.888 407.566 462.546C431.863 444.872 452.597 423.114 469.188 397.877C469.452 397.475 469.69 397.073 469.884 396.711C469.978 396.541 470.063 396.371 470.149 396.191C470.276 395.934 470.4 395.674 470.516 395.405C470.59 395.231 470.658 395.06 470.747 394.825C470.832 394.599 470.915 394.373 470.998 394.118C471.057 393.937 471.109 393.759 471.181 393.499C471.244 393.275 471.301 393.052 471.355 392.811C471.407 392.584 471.451 392.355 471.507 392.037C471.507 392.037 471.586 391.514 471.586 391.514C471.619 391.247 471.649 390.983 471.667 390.718C471.677 390.598 471.684 390.469 471.692 390.294C471.707 389.972 471.713 389.648 471.705 389.328C471.705 389.251 471.703 389.171 471.698 389.097C471.698 389.097 471.698 389.097 471.698 389.097ZM204.969 312.585C202.294 312.585 200.118 310.408 200.118 307.734C200.118 307.734 200.118 290.486 200.118 290.486C200.118 287.811 202.294 285.635 204.969 285.635C204.969 285.635 218.444 285.635 218.444 285.635L218.444 312.585L204.969 312.585C204.969 312.585 204.969 312.585 204.969 312.585ZM234.614 285.635L261.564 285.635L261.564 312.585L234.614 312.585L234.614 285.635L234.614 285.635ZM277.735 285.635L304.685 285.635L304.685 312.585L277.735 312.585L277.735 285.635L277.735 285.635ZM320.855 285.635L347.805 285.635L347.805 312.585L320.855 312.585L320.855 285.635L320.855 285.635ZM363.975 285.635C363.975 285.635 375.294 285.635 375.294 285.635C377.969 285.635 380.145 287.812 380.145 290.486C380.145 290.486 380.145 307.734 380.145 307.734C380.145 310.408 377.968 312.585 375.294 312.585C375.294 312.585 363.975 312.585 363.975 312.585L363.975 285.635L363.975 285.635ZM203.403 214.659C204.951 207.837 207.319 201.191 210.442 194.908C213.329 189.101 216.866 183.593 220.956 178.538C221.887 177.387 222.861 176.243 223.846 175.141C228.844 169.559 234.523 164.623 240.727 160.47C243.505 158.61 246.409 156.895 249.36 155.371C252.931 153.525 256.673 151.907 260.484 150.561C261.467 150.214 262.463 149.892 263.463 149.578C267.527 148.302 269.904 144.092 268.896 139.952C268.678 139.055 268.572 138.223 268.572 137.408C268.572 131.464 273.408 126.628 279.352 126.628C279.352 126.628 300.912 126.628 300.912 126.628C306.856 126.628 311.692 131.464 311.692 137.408C311.692 138.224 311.585 139.055 311.368 139.949C310.357 144.09 312.735 148.304 316.801 149.581C321.701 151.119 326.445 153.067 330.904 155.371C340.556 160.36 349.14 167.011 356.416 175.141C361.757 181.109 366.267 187.759 369.821 194.907C372.944 201.191 375.313 207.836 376.86 214.657C378.325 221.114 379.068 227.767 379.068 234.429C379.068 241.076 378.323 247.727 376.852 254.199C375.662 259.433 374 264.549 371.893 269.465C371.893 269.465 208.37 269.465 208.37 269.465C206.264 264.549 204.6 259.432 203.411 254.198C201.941 247.728 201.195 241.076 201.195 234.429C201.196 227.769 201.938 221.116 203.403 214.659C203.403 214.659 203.403 214.659 203.403 214.659ZM318.8 487C186.712 522.247 60.4157 449.64 25.0267 318.106C7.9717 254.714 15.7317 190.091 46.8787 136.144C78.1797 81.9247 130.651 42.6647 194.626 25.5917C218.175 19.3077 241.863 16.1657 265.062 16.1657C268.694 16.1657 272.308 16.2677 275.913 16.4227C217.414 22.9537 149.403 51.1697 103.77 101.568C100.773 104.877 101.026 109.99 104.336 112.987C105.884 114.388 107.824 115.078 109.761 115.078C111.964 115.078 114.16 114.182 115.757 112.42C142.811 82.5407 181.59 58.2837 225.008 44.0567C215.152 48.8547 205.646 54.4257 196.604 60.7477C160.994 85.6397 134.318 120.326 119.459 161.053C104.6 201.787 102.698 245.443 113.961 287.305C125.222 329.163 148.784 366.02 182.096 393.891C215.403 421.758 255.91 438.509 299.239 442.332C341.255 446.048 383.444 436.901 420.001 416.822C376.99 453.355 306.15 488.537 211.634 450.765C207.489 449.108 202.784 451.125 201.126 455.272C199.469 459.418 201.487 464.122 205.634 465.78C234.511 477.32 263.048 483.095 291.009 483.095C313.176 483.095 334.984 479.464 356.3 472.198C361.165 470.54 365.985 468.684 370.757 466.649C354.59 475.258 337.218 482.086 318.8 487C318.8 487 318.8 487 318.8 487Z" style="fill:#1C1C1C;fill-opacity:0.698;mix-blend-mode:normal;" />
    <path id="Path" d="M23.8687 1.14548C20.0327 -1.14552 15.0717 0.108475 12.7817 3.93948C8.09265 11.7875 3.99565 19.9735 0.603653 28.2665C-1.08635 32.3995 0.893654 37.1205 5.02665 38.8105C6.02765 39.2205 7.06565 39.4145 8.08365 39.4145C11.2696 39.4145 14.2896 37.5195 15.5696 34.3875C18.6566 26.8405 22.3886 19.3855 26.6637 12.2305C28.9527 8.39847 27.7017 3.43446 23.8687 1.14548C23.8687 1.14548 23.8687 1.14548 23.8687 1.14548Z" style="fill:#000000;fill-rule:evenodd;fill-opacity:0.698;mix-blend-mode:normal;" transform="translate(67.421 129.322)" />
    <path id="Path" d="M25.1409 8.05585C20.8129 5.87283 16.4169 3.51785 12.0759 1.05383C8.19087 -1.14917 3.25787 0.213837 1.05386 4.09784C-1.14914 7.98184 0.213867 12.9158 4.09686 15.1198C8.66687 17.7128 13.2969 20.1928 17.8579 22.4938C19.0269 23.0828 20.2679 23.3618 21.4929 23.3618C24.4479 23.3618 27.2959 21.7348 28.7179 18.9158C30.7279 14.9278 29.1279 10.0658 25.1409 8.05585C25.1409 8.05585 25.1409 8.05585 25.1409 8.05585Z" style="fill:#000000;fill-rule:evenodd;fill-opacity:0.698;mix-blend-mode:normal;" transform="translate(164.821 432.915)" />
  </g>
</svg>