<!-- icon666.com - MILLIONS vector ICONS FREE --><svg viewBox="0 0 511 511.99975" xmlns="http://www.w3.org/2000/svg"><path d="m499.136719 60.449219-240-60c-2.386719-.597657-4.886719-.597657-7.273438 0l-240 60c-6.679687 1.667969-11.363281 7.667969-11.363281 14.550781v362c0 6.882812 4.683594 12.882812 11.363281 14.550781l240 60c.070313.019531.140625.023438.210938.039063.417969.097656.84375.175781 1.277343.238281.144532.019531.289063.050781.433594.066406.5625.0625 1.132813.105469 1.714844.105469.578125 0 1.148438-.042969 1.714844-.105469.144531-.015625.289062-.042969.433594-.066406.433593-.0625.859374-.140625 1.277343-.238281.070313-.015625.140625-.019532.210938-.039063l240-60c6.679687-1.667969 11.363281-7.667969 11.363281-14.550781v-362c0-6.882812-4.683594-12.882812-11.363281-14.550781zm-468.636719 33.761719 210 52.5v29.078124l-210-52.5zm450 29.078124-210 52.5v-29.078124l210-52.5zm-450 30.921876 210 52.5v29.078124l-210-52.5zm240 52.5 210-52.5v29.078124l-210 52.5zm-15-176.25 178.152344 44.539062-178.152344 44.539062-178.152344-44.539062zm-225 183.75 210 52.5v211.078124l-40-10v-118.289062c0-6.882812-4.683594-12.882812-11.363281-14.550781l-100-25c-4.480469-1.121094-9.226563-.117188-12.867188 2.726562s-5.769531 7.203125-5.769531 11.824219v110.789062l-40-10zm70 228.578124v-99.078124l70 17.5v99.078124zm170 35v-211.078124l210-52.5v211.078124zm0 0"></path></svg>