<!-- icon666.com - MILLIONS vector ICONS FREE --><svg viewBox="0 0 32 32" xmlns="http://www.w3.org/2000/svg"><g id="share"><path d="m22.091 19.88232v7a.99973.99973 0 0 1 -1 1h-17a.99974.99974 0 0 1 -1-1v-17a1.00006 1.00006 0 0 1 1-1h5.99659a1 1 0 0 1 0 2h-4.99659v15h15v-6a1 1 0 0 1 2 0zm6.42481-10.34619-6.82813-5.21338a1.007 1.007 0 0 0 -1.60693.795v1.9345c-6.00757 1.0639-10.75275 6.98475-9.59753 12.97375a1.00014 1.00014 0 0 0 1.96765-.006 7.25077 7.25077 0 0 1 7.62988-6.0708v1.9341a1.00673 1.00673 0 0 0 1.63086.77588l6.82812-5.55225a1.00673 1.00673 0 0 0 -.02392-1.5708z"></path></g></svg>