<svg xmlns="http://www.w3.org/2000/svg" width="615" height="615" fill="none" xmlns:v="https://vecta.io/nano"><path d="M169.854 546.431v-17.047l-26.913-2.82-13.639-1.429v15.607l40.552 5.689zm-42.004-60.1l-45.988-1.759v16.763c0 .067-.022.116-.036.174l15.939 1.142 30.087 2.156-.003-18.476zm72.106 64.326l10.665 1.495v-18.45c0-.017.008-.032.01-.049l-39.326-4.118v17.099l28.651 4.023zm58.105 8.153v-20.166c0-.009.004-.014.004-.02l-12.539-1.313-33.454-3.504v18.548l45.988 6.454zm-106.523-50.855v17.841c0 .081-.023.145-.043.212l39.114 4.098v-19.351l-39.071-2.8zm-47.122 14.574l-22.307-2.336v13.923l15.702 2.206 30.039 4.214v-15.552l-22.104-2.316c-.273.527-1.165.475-1.33-.139zm174.401 40.649l-34.36-4.823-7.674-1.078v12.993c0 .128-.03.235-.077.327l42.252 7.002c-.08-.107-.141-.238-.141-.412v-14.01zm-78.369-32.04l32.906 3.446v-20.766l-41.293-2.959v19.398l8.387.881zM64.072 501.689v15.163l33.79 3.539 6.515.684v-16.5l-40.305-2.887zm215.04 37.685a.7.7 0 0 1-.048-.238v-22.044l-33.205-2.38-11.053-.791v20.812l44.307 4.64zm-129.025-31.523l-7.113-.507-37.146-2.663v16.546l44.272 4.637c-.002-.023-.014-.041-.014-.067v-17.946zm21.712.106l18.846 1.348c.177-.71 1.316-.678 1.399.101l8.606.617 8.983.643v-19.98a181.75 181.75 0 0 1-13.533-1.745l-24.301-.93v19.945zm-19.334-22.136l34.325 1.316c-11.349-2.513-22.46-6.098-33.113-10.755l-1.151-.493v9.631c0 .116-.023.214-.061.301zm-54.381-2.081l5.949.229c-.086-.113-.15-.246-.15-.426v-1.406c-4.665.035-9.332-.154-13.977-.577-7.402-.675-17.073-1.669-26.08-4.072v4.941l34.259 1.31zM62.62 532.839l-21.972-3.084c-.924-.13-.528-1.527.385-1.4l39.624 5.559V520.04l-39.816-4.17c-.922-.096-.929-1.548 0-1.452l21.779 2.281v-15.114l-22.042-1.579c-.928-.067-.932-1.519 0-1.452l39.847 2.855c-.002-.026-.015-.046-.015-.072v-16.804L40.791 483c-.934-.035-.935-1.487 0-1.449l21.581.823v-5.286c-7.846-2.249-15.058-5.628-19.62-10.923-1.389-1.611-2.383-3.455-3.135-5.417v77.182l23.03 3.817c-.009-.046-.028-.084-.028-.136v-8.77zm242.724-63.685c-2.565 3.04-6.512 4.935-10.022 6.622a165.89 165.89 0 0 1-14.312 6.063v8.903l22.729.87c.933.035.933 1.487 0 1.449l-45.461-1.739v22.832l44.768 3.205c.927.067.933 1.519 0 1.452l-22.53-1.614v21.939a.67.67 0 0 1-.113.374l22.144 2.319c.922.098.93 1.55 0 1.452l-43.034-4.507v20.131c0 .041-.017.067-.022.104l42.128 5.912c.922.127.527 1.527-.388 1.4l-20.963-2.942v13.807a.65.65 0 0 1-.315.577l27.996 4.64V464.302c-.478 1.695-1.278 3.278-2.606 4.852zm-48.518 44.896v-22.783l-10.38-.397-4.338-.165a169.87 169.87 0 0 1-17.244.745c-4.599-.032-9.197-.241-13.78-.623v19.946l45.741 3.278zm22.732-31.681c-9.335 3.347-18.782 5.741-28.478 7.225l28.478 1.09v-8.315zm-174.406 1.641l23.102.884a.81.81 0 0 1 .691.026l22.181.849a.71.71 0 0 1-.051-.249v-10.15a8.56 8.56 0 0 0-1.45-.322c-2.001-.232-3.986.412-5.909 1.003-12.425 3.823-25.387 5.831-38.382 6.063v1.429a.66.66 0 0 1-.182.467zm44.193 61.306c0-.116.023-.214.061-.298l-7.097-.997-36.975-5.188v9.448a.67.67 0 0 1-.213.507l44.261 7.335c-.015-.061-.037-.113-.037-.183v-10.625zm41.017 5.448l-39.587-5.556c.006.038.022.067.022.107v10.625a.67.67 0 0 1-.13.394l39.706 6.582c-.001-.02-.012-.038-.012-.058v-12.094zm44.969 6.411c0-.038.015-.064.02-.098l-43.537-6.109v11.891c0 .107-.023.203-.059.287l43.596 7.225c-.005-.035-.02-.061-.02-.101v-13.094zm-131.448-18.531l-39.811-5.602v8.567a.68.68 0 0 1-.1.356l39.977 6.625c-.041-.087-.067-.191-.067-.31v-9.637zm25.395-33.736l21.152 1.516c.271-.151.638-.136.876.064l19.042 1.365v-19.896l-26.974-1.032-14.072-.539v18.406c0 .043-.017.075-.024.116z" fill="#32281c"/><g fill="#4f4e40"><path d="M81.862 484.531v.041l45.988 1.759v-.812a.65.65 0 0 1 .403-.626l-23.102-.884c-.291.316-.852.299-1.119-.041l-5.949-.229-34.259-1.31v.371c0 .936-1.452.936-1.452 0v-.429l-21.581-.823c-.935-.038-.934 1.414 0 1.449l39.622 1.519c.019-.919 1.448-.913 1.448.015zm69.263 1.238l-22.181-.849a.65.65 0 0 1 .357.6v.867l14.072.539 26.974 1.032v-.461c0-.933 1.452-.933 1.452 0v.516l24.301.93-4.215-.754a.8.8 0 0 1-.403-.078l-4.693-.974-34.325-1.316c-.243.548-1.134.527-1.34-.052zm105.701 5.498v-.064c0-.936 1.452-.933 1.452 0v.119l45.461 1.739c.933.038.933-1.414 0-1.449l-22.729-.869v.461c0 .936-1.452.933-1.452 0v-.519l-28.478-1.09-8.972 1.11 4.338.165 10.38.397zM64.072 501.581v.107l40.305 2.887v-.525c0-.933 1.451-.933 1.451 0v.629l37.146 2.663 7.113.507v-.835c0-.293.148-.481.343-.591l-21.152-1.516c-.123.803-1.409.774-1.425-.101l-30.088-2.156-15.939-1.142c-.173.719-1.323.687-1.401-.101l-39.847-2.855c-.932-.067-.928 1.385 0 1.452l22.042 1.58c0-.939 1.451-.936 1.451-.003zm192.754 12.602v-.133l-45.741-3.278v.197c0 .936-1.452.936-1.452 0v-.301l-8.983-.643-8.606-.617c.003.029.016.049.016.081v1.371l41.293 2.959v-.623c0-.936 1.451-.933 1.451 0v.727l11.054.791 33.205 2.379v-.441c0-.936 1.452-.933 1.452 0v.545l22.53 1.614c.934.067.928-1.385 0-1.452l-44.768-3.205v.029c0 .936-1.452.933-1.452 0zm-86.478-5.93v-.4l-19.042-1.365c.139.116.233.293.233.527v.939l39.071 2.8v-1.267c0-.07.022-.122.036-.183l-18.846-1.348v.296c0 .933-1.452.933-1.452 0zm-88.239 11.614v.327l22.307 2.336c-.017-.064-.039-.122-.039-.194v-1.261l-6.515-.684-33.79-3.539v.542c0 .936-1.452.933-1.452 0v-.696l-21.779-2.281c-.929-.096-.922 1.356 0 1.452l39.816 4.171v-.174c0-.936 1.451-.936 1.451 0zm197.003 19.507l-44.307-4.64v.449c0 .936-1.451.936-1.451 0v-.6l-32.906-3.446-8.387-.881v.232c0 .936-1.452.936-1.452 0v-.383l-39.114-4.098c-.205.684-1.326.638-1.395-.145l-44.272-4.637v1.11a.72.72 0 0 1-.082.333l22.104 2.316v-.426c0-.933 1.451-.933 1.451 0v.577l13.639 1.429 26.913 2.82v-.13c0-.936 1.452-.933 1.452 0v.281l39.326 4.118c.053-.881 1.442-.867 1.442.049v.104l33.454 3.504 12.538 1.313c.024-.913 1.448-.907 1.448.02v.13l43.034 4.507c.93.099.921-1.353 0-1.452l-22.144-2.319c-.293.467-1.102.423-1.291-.136zm-21.051 19.531v-.096l-45.988-6.454v.125c0 .936-1.452.933-1.452 0v-.327l-10.665-1.495-28.651-4.023v.162c0 .936-1.452.933-1.452 0v-.365l-40.552-5.689v.371c0 .936-1.451.936-1.451 0v-.577l-30.039-4.214-15.702-2.206v.574c0 .936-1.451.933-1.451 0v-.777l-39.624-5.559c-.914-.128-1.309 1.269-.385 1.4l21.972 3.084v-.125c0-.936 1.451-.936 1.451 0v.327l39.814 5.588c.018-.919 1.449-.916 1.449.014v.188l36.975 5.188 7.097.997c.258-.591 1.268-.522 1.369.191l39.587 5.556c0-.948 1.451-.948 1.451-.014v.217l43.537 6.109c.108-.826 1.432-.8 1.432.099v.101l7.674 1.078 34.36 4.823v-.072c0-.936 1.452-.933 1.452 0v.275l20.963 2.942c.916.128 1.31-1.272.389-1.4l-42.129-5.912c-.115.817-1.43.788-1.43-.104z"/><path d="M62.373 482.801c0 .936 1.452.936 1.452 0v-.371-4.941l-1.452-.403v5.286.429zm1.698 34.593v-.542-15.163-.107c0-.933-1.451-.936-1.451 0v15.117.696c0 .933 1.451.936 1.451 0zm0 15.647v-.327c0-.936-1.451-.936-1.451 0v.125 8.77c0 .052.019.09.028.136.122.655 1.025.733 1.323.22a.68.68 0 0 0 .1-.356v-8.567zm17.755-31.532c.014-.058.036-.107.036-.174v-16.763-.041c0-.928-1.429-.933-1.448-.014l-.003 16.818c0 .026.013.046.015.072.077.788 1.228.82 1.401.101zm.282 33.182v-.574-13.923-.327c0-.936-1.451-.936-1.451 0v.174 13.874.777c0 .933 1.451.936 1.451 0zm21.924-50.721c.267.339.828.356 1.119.041a.66.66 0 0 0 .182-.467v-1.429l-1.452.023v1.406c0 .18.064.313.15.426zm1.796 20.081c0-.933-1.451-.933-1.451 0v.525 16.5 1.261c0 .072.022.13.039.194.165.614 1.057.667 1.33.139a.72.72 0 0 0 .082-.333v-1.11-16.546-.629zm-.494 34.781v-.188c0-.93-1.431-.933-1.449-.014l-.003 9.651a.71.71 0 0 0 .067.31c.205.441.838.504 1.172.197a.67.67 0 0 0 .213-.507v-9.448zm22.516 2.281c0 .936 1.451.936 1.451 0v-.371-15.607-.577c0-.933-1.451-.933-1.451 0v.426 15.552.577zm0-55.593v.812 18.462c.018.89 1.304.919 1.428.116.006-.041.024-.072.024-.116v-18.407-.867a.65.65 0 0 0-.357-.6.81.81 0 0 0-.691-.026.65.65 0 0 0-.403.626zm22.947 59.795c0-.041-.016-.07-.022-.107-.101-.713-1.111-.783-1.369-.191-.038.084-.061.183-.061.298v10.625c0 .07.022.122.037.183.15.594.969.667 1.285.212a.67.67 0 0 0 .13-.394v-10.625zm.742-37.36v-.939a.66.66 0 0 0-.233-.527c-.238-.2-.605-.214-.876-.064-.195.11-.343.298-.343.591v.835 17.946c0 .026.012.043.014.067.069.783 1.19.829 1.395.145.02-.067.043-.13.043-.212v-17.841zm-.413-22.186c.206.58 1.097.6 1.34.052.038-.087.061-.185.061-.301v-9.631l-1.451-.519v10.15c0 .096.024.174.051.249zm18.728 61.028c0 .933 1.452.936 1.452 0v-.162-17.099-.281c0-.933-1.452-.936-1.452 0v.131 17.047.365zm.494-38.544c0 .933 1.452.933 1.452 0v-.296-19.945-.516c0-.933-1.452-.933-1.452 0v.461 19.896.4zm21.465 42.714v-.217c0-.933-1.451-.933-1.451 0v12.109c0 .02.01.038.012.058.059.762 1.123.843 1.381.229a.74.74 0 0 0 .059-.287v-11.891zm-1.204-40.213v19.351.383c0 .936 1.451.936 1.451 0v-.232-19.398-1.371c0-.032-.013-.052-.016-.081-.083-.78-1.221-.811-1.399-.101-.014.061-.037.113-.037.183v1.267zm1.277-22.565l-.403-.078a.8.8 0 0 0 .403.078zm18.736 63.964v.327c0 .933 1.452.936 1.452 0v-.125-18.549-.104c0-.916-1.389-.93-1.442-.049-.001.017-.01.032-.01.049v18.45zm-.989-41.184c0 .936 1.451.936 1.451 0v-.197-19.946l-1.451-.139v19.98.301zm23.721 24.215c0 .936 1.451.936 1.451 0v-.449-20.812-.727c0-.933-1.451-.936-1.451 0v.623 20.766.6zm3.428 22.092v-.101c0-.899-1.324-.925-1.432-.099-.004.035-.02.061-.02.099v13.094c0 .041.016.067.02.101.095.704 1.074.785 1.354.226a.71.71 0 0 0 .077-.327v-12.993zm20.044-66.073v.064 22.783.133c0 .933 1.452.936 1.452 0v-.029-22.832-.119c0-.933-1.452-.936-1.452 0zm1.239 47.421c-.001.006-.004.011-.004.02v20.166.096c0 .893 1.315.922 1.43.104.005-.038.022-.064.022-.104v-20.131-.13c0-.927-1.424-.933-1.447-.02zm22.204 38.564v-13.807-.275c0-.933-1.452-.936-1.452 0v.072 14.01a.66.66 0 0 0 .141.412c.227.304.682.362.996.165.181-.113.315-.299.315-.577zm-1.205-60.536v.441 22.044a.7.7 0 0 0 .048.238c.189.559.998.603 1.291.136a.67.67 0 0 0 .112-.374v-21.939-.545c0-.933-1.452-.936-1.452 0zm.494-25.449c0 .933 1.452.936 1.452 0v-.461-8.903l-1.452.53v8.315.519z"/></g><path d="M305.24 284.703c-4.652-.078-9.297.209-13.903.852 1.58 8.266 1.893 16.662.98 25.023 4.307-.142 8.616.609 12.923.136.62-.07 1.07.145 1.356.493.287-.348.733-.562 1.353-.493v-26.011c-.617.009-1.064-.238-1.356-.603-.29.365-.739.611-1.353.603zm-181.825 22.744l-.589-4.883-1.422.046-.201 4.991 2.212-.154zm-2.546 8.429l1.968-.174c.205-.02 1.227-.325 1.296-.159.133-.478-.176-2.003-.201-2.382l-.165-2.11-2.711.191-.187 4.634zm-3.306-8.016l.207-5.13-3.251.104.312 5.217 2.733-.191zm-13.289.724l-.287-4.489a1.55 1.55 0 0 1 .15-.73l-4.593.284.216 5.107 4.514-.171zm167.474-15.32c-1.012-.959-2.134-1.782-3.287-2.562l-5.387-3.437-4.31 5.66-2.9 3.542-1.358 1.678c-.153.191-.502.542-.787.881.729.843 1.696 1.617 2.445 2.339l2.885 2.655 5.414 4.397c2.19-2.15 4.201-4.443 6.125-6.848l2.299-2.872c.466-.681 1.249-1.73 1.043-2.62-.24-1.035-1.446-2.113-2.182-2.811zm-227.143 21.87c.181-1.038.947-2.003 1.477-2.899l1.664-2.814 3.239-5.475c.803-1.359 2.492-.962 3.138.058.441.024.881.206 1.254.505l5.016 3.999c1.423 1.133 4.061 2.53 2.982 4.73-.425.867-1.134 1.643-1.703 2.426l-1.799 2.472-3.701 5.081c-.515.707-1.653 1.292-2.482.652l-5.203-4.014-2.649-2.044c-.852-.666-1.426-1.556-1.231-2.677zm13.176 106.787c4.755-2.148 9.171-5.918 12.706-9.695 10.816-11.564 16.187-27.174 19.15-42.76a.65.65 0 0 1-.301-.568v-48.223l-8.058-.18c-1.358-.049-3.311.229-4.491-.597s-1.062-2.258-1.127-3.544l-.562-11.193c-.046-.916.485-1.467 1.152-1.661.156-.762.715-1.469 1.683-1.577l11.403-1.121v-10.019l-45.51 3.651c-2.332.186-2.313-3.445 0-3.628l45.51-3.634v-16.283l-9.597 1.374v12.132c0 2.339-3.629 2.336-3.629 0v-11.613l-21.079 3.017v10.08c0 2.339-3.629 2.333-3.629 0v-9.561l-7.006 1.003c-2.289.33-3.267-3.165-.966-3.499l7.972-1.139v-10.03c0-2.339 3.629-2.336 3.629 0v9.512l21.079-3.015V258.7c0-2.339 3.629-2.336 3.629 0v9.932l9.597-1.374v-14.61l-45.027 7.306c-2.289.371-3.265-3.127-.965-3.501l45.991-7.462V200.19 92.789l-49.717 13.734v318.67c.302-.154.644-.238.985-.284 5.612-.736 12.042-.667 17.177-2.988zM234.894 301.42c.129-.029.252-.041.372-.043l-.669-7.263-3.032.012.578 7.718 2.75-.423zm-13.046-7.127l-3.231.099v7.727l3.5-.043-.27-7.782zm10.657 12.222c.088.962.154 2.023.386 2.997.389.449.525 1.04.401 1.672-.007.035-.025.067-.034.101.499-.043 2.35.02 2.649-.31.459-.513.083-1.727.027-2.33l-.338-3.678a32.1 32.1 0 0 1-3.176.467l.084 1.081zm-136.37 2.316l-.208-4.907-5.139.394.345 4.617 5.001-.104zm132.396-6.779l-.59-7.883-2.466.043.267 7.857 2.79-.017zm.269 3.6l-2.761.035a53.95 53.95 0 0 0 1.008 6.13l2.799-.229c-.624-1.04-.672-2.463-.818-3.643l-.227-2.292zm-5.409 6.404a59.94 59.94 0 0 1-.984-6.353l-3.79.041v.545l.891 5.97 3.883-.203zm-62.305-8.524l-.666-.51-1.334-1.023-2.835-2.171-4.852-3.716-4.225 5.176-1.985 2.53c-.458.606-.887.991-.391 1.666.593.806 1.515 1.452 2.257 2.113l2.526 2.252 4.02 3.623.501-.698 1.196-1.481 2.124-2.637 2.25-2.805 1.058-1.322.497-.62a1.32 1.32 0 0 0 .099-.159l-.237-.217zm1.679 3.928l-4.37 5.446-2.259 2.796c-.612.757-1.198 1.493-2.234 1.589-1.252.11-2.109-.861-2.968-1.626l-2.526-2.252-5.051-4.504c-1.42-1.287-2.699-2.939-2.135-4.97.285-1.032.984-1.849 1.627-2.678l1.891-2.406 4.264-5.225c.382-.455.834-.606 1.267-.563.505-.611 1.543-.941 2.214-.426l6.337 4.852 3.002 2.301c.888.678 2.009 1.322 2.64 2.269 1.364 2.047-.477 3.873-1.699 5.397zm37.949 9.141l-9.65.464c-2.439.147-5.825 1.147-7.412-1.325-1.353-2.107-1.01-5.402-1.172-7.784l-.699-10.222c-.083-1.209.85-1.783 1.791-1.739-.63-1.003-.135-2.812 1.468-2.974a500.09 500.09 0 0 1 32.125-2.214v-10.373l-72.817 5.936-53.561 4.298v10.022c11.18-.951 22.388-1.562 33.609-1.806.723-.017 1.641.571 1.751 1.33.535 3.707.976 7.426 1.278 11.159.219 2.692 1.293 6.88-2.259 7.703-3.228.751-6.888.661-10.194.887a329.72 329.72 0 0 1-11.463.574c-4.239.139-8.481.182-12.722.153v48.209c0 .362-.219.58-.485.661 5.083 23.962 17.272 47.794 40.509 58.544 19.579 9.057 44.027 5.463 59.318-10.025 12.439-12.601 21.023-28.559 27.036-45.229v-56.865l-16.451.617zm3.464-10.292l-4.182.293.596 5.663c.031.255-.018.496-.119.719l4.749-.174c-.446-1.8-.713-3.655-.938-5.492l-.106-1.009zm-.332-3.609l-.472-7.506c-.001-.02.003-.038.002-.058l-4.271.293.521 7.57 4.219-.299zm3.629-.196l3.12-.162 3.924-.125-.574-7.643-6.986.348c.017.09.038.177.044.272l.473 7.309zm-15.524 1.159l4.068-.368-.523-7.585-4.243.348c.019.093.058.174.065.267l.633 7.338zm-104.175 8.926c-1.15.003-2.3-.012-3.45-.014l.342 3.475a2.48 2.48 0 0 1-.049.904l3.779.058a2.16 2.16 0 0 1-.369-1.046l-.252-3.376zm98.331-4.663l.074 1.087.193 2.817c.031.429-.049 1.165.174 1.542.363.614 1.042.301 1.787.243l.993-.067-.619-5.904-2.602.281zm1.588-11.529l-2.655.252c-.021.003-.039 0-.06 0a1.81 1.81 0 0 1 .43 1.084l.45 6.591 2.495-.272-.66-7.654zm-79.802 12.022l3.323-.151-.315-5.275-3.582.197c.162.272.283.571.299.904l.275 4.324zm-28.795 4.135l.085 1.701c.037.73.244 1.739.166 2.516.577-.055 1.181-.043 1.791 0l-.425-4.211c-.539-.006-1.078.003-1.617-.006zm5.104-3.608l3.304.012-.322-4.315-3.47.342c.526 1.211.505 2.617.488 3.962zm-3.646-1.086l-.013-.62c-.003-.064-.056-.414-.046-.412l-.096-.388a5 5 0 0 0-.017-.035l-.183-.287a1.48 1.48 0 0 1-.25-.762l-1.209.119.174 3.452 1.655.006-.014-1.072zm27.61 4.176l.456 4.637 3.012-.133-.227-4.652-3.242.148zm-8.253.345c.081 1.507.271 3.003 1.058 4.313.054.093.09.183.128.27l.978-.012 2.932-.125-.455-4.626-4.64.18zM90.788 152.48v96.276l9.15-1.484 101.816-16.52 15.412-2.501v-48.565V57.477L90.749 92.4c.016.061.039.116.039.189v59.891zm182.96 150.934c-2.519 3.014-4.966 5.991-7.854 8.672-.545.507-1.543.77-2.199.284-2.601-1.925-5.14-3.936-7.557-6.09a86.99 86.99 0 0 1-3.535-3.324c-.94-.936-2.625-2.153-2.813-3.547-.201-1.475 1.313-2.783 2.15-3.829l3.037-3.727c2.127-2.594 4.225-5.205 6.091-7.996a1.96 1.96 0 0 1 .349-.388c.496-.597 1.307-.858 2.135-.261 2.529 1.826 5.297 3.292 7.828 5.118 2.341 1.687 5.291 3.965 6.065 6.909.819 3.113-1.884 6.005-3.698 8.179zm-55.131-179.35v103.95l84.47-13.705c2.287-.371 3.263 3.127.965 3.501l-56.594 9.181-28.841 4.681v17.543l26.002-3.554v-13.152c0-2.338 3.629-2.336 3.629 0v12.657l36.892-5.037v-14.045c0-2.339 3.63-2.333 3.63 0v13.549l14.316-1.956c2.287-.31 3.269 3.188.965 3.501l-15.281 2.078v24.832c0 2.339-3.63 2.336-3.63 0v-24.339l-36.892 5.016v20.807c0 2.339-3.629 2.336-3.629 0v-20.308l-26.002 3.573v23.856l84.951-6.959c2.333-.191 2.313 3.44 0 3.629l-57.387 4.706-27.564 2.246v10.448a498.01 498.01 0 0 1 17.628-.287c1.056 0 1.724.835 1.814 1.815l1.08 11.732.524 5.689c.117 1.385.062 2.733-.987 3.773-.939.928-2.167 1.067-3.416 1.215l-4.75.475c-3.207.281-6.418.487-9.631.655l-2.262.093v58.225c0 .064-.021.11-.033.165 1.1 2.704 3.037 5.988 3.63 7.225 1.899 3.962 4.075 7.79 6.497 11.457 4.893 7.408 11.156 12.877 17.639 18.94 6.58 6.153 13.258 12.375 21.188 16.65a51.82 51.82 0 0 0 11.677 4.553c9.284 2.385 19.221 2.264 28.402-.507.093-.014.209-.012.333-.003V314.343a1.85 1.85 0 0 1-1.356-.8c-.287.415-.733.734-1.353.8-4.985.548-9.97-.55-14.958 0-1.308.145-1.892-1.269-1.749-2.298 1.264-9.153.871-18.505-1.082-27.53-.188-.873.263-2.072 1.267-2.232 5.471-.878 10.98-1.301 16.522-1.208.614.008 1.064.272 1.356.646.29-.374.739-.638 1.353-.646V32.4l-89.371 24.687c.016.063.039.118.039.191v66.786zm-22.219 182.828l-4.1.368.561 5.353c.166.212.281.452.336.71l4.052-.206c-.138-.261-.245-.542-.284-.852l-.566-5.373zm-81.373 4.773l.225 4.617 1.979-.142.187-4.643-2.392.168zm-66.077 3.999l2.192 1.69 3.096 2.388 2.503-3.437 1.901-2.611.962-1.249-.983-.739-1.847-1.472-3.592-2.866-4.575 7.735-.096.162.441.4zm162.364-9.723l-3.535.177.306 2.423.596 3.272c.257.2.469.478.598.855l2.915-.099 3.687-.145-.958-6.591-3.608.107zM104.77 265.065v-9.825c0-2.339 3.629-2.336 3.629 0v9.315l28.986-4.078v-12.155c0-2.339 3.629-2.336 3.629 0v11.645L170 255.924v-11.555c0-2.339 3.629-2.336 3.629 0v11.051l28.258-3.921 5.669-.774v-13.274c0-2.339 3.63-2.336 3.63 0v12.778l5.979-.817v-17.505l-71.524 11.604-54.854 8.903v8.883 5.756l9.439-1.351 4.544-.638zm-13.366 47.492l.254 3.408c.031.42-.123.791-.371 1.09l5.839-.038c-.538-1.452-.732-3.002-.827-4.562l-4.895.101zM201.416 278.1l15.749-1.29v-23.777l-5.979.823v17.691c0 2.339-3.63 2.336-3.63 0v-17.192l-33.927 4.698v15.952c0 2.339-3.629 2.336-3.629 0v-15.448l-24.377 3.388-4.609.649v13.882c0 2.339-3.629 2.336-3.629 0v-13.369l-28.986 4.084v12.746c0 2.339-3.629 2.333-3.629 0v-12.233l-13.983 1.979v16.372l9.256-.739 101.373-8.216z" fill="#0a0d10"/><g fill="#4f4e40"><path d="M508.468 522.669l-22.105 2.316v15.552l45.743-6.42v-13.923l-15.755 1.649-6.553.687c-.165.614-1.058.664-1.33.139zm-64.108 6.715v17.047l27.159-3.811 13.393-1.881v-15.604l-40.552 4.249zm64.519 18.896v-9.448l-44.073 6.185a.72.72 0 0 1 .061.299v10.625c0 .212-.081.371-.197.487l44.934-7.446c-.362-.003-.725-.235-.725-.701zm-45.461 7.66v-10.625c0-.041.014-.07.02-.107l-39.587 5.556v12.094a.7.7 0 0 1-.096.351l40.071-6.64c-.229-.101-.409-.304-.409-.629zM359.94 489.719l-3.55-.838c-7.364-1.901-14.627-4.199-21.734-6.906v8.709l25.284-.965zm-24.791 27.374v22.044a.67.67 0 0 1-.049.238l33.587-3.516 10.721-1.125v-20.812l-44.259 3.171zm22.238-3.043l10.967-.788 34.773-2.49v-18.236c-4.753.258-9.512.325-14.253.183-7.814-.238-15.079-.64-22.476-1.797l-9.011.345v22.783zm64.784-4.644c.081-.78 1.22-.811 1.397-.101l18.847-1.351v-19.943l-9.695.371a178.81 178.81 0 0 1-28.142 4.06v18.224l17.592-1.261zm-8.405 23.18l-10.184 1.067c.003.017.012.032.012.049v18.45l39.314-5.518v-17.099l-29.142 3.052zm138.074-55.292v5.081l21.583-.826c.936-.038.93 1.414 0 1.449l-39.621 1.519.003 16.818c0 .026-.014.046-.014.072l39.845-2.855c.933-.067.927 1.385 0 1.452l-22.041 1.58v15.114l21.78-2.281c.93-.096.919 1.356 0 1.452l-39.816 4.17v13.874l39.624-5.559c.913-.13 1.304 1.269.386 1.4l-21.974 3.084v8.77a.67.67 0 0 1-.162.441l24.849-4.121v-79.44c-.342 1.452-.78 2.884-1.374 4.266-3.246 7.547-14.363 11.918-23.067 14.54z"/><path d="M550.141 541.608v-8.567l-33.353 4.681-6.46.907.003 9.651c0 .348-.203.568-.458.655l40.618-6.733a.64.64 0 0 1-.351-.594zm-172.71 28.661v-12.993l-42.036 5.901v14.01c0 .936-1.449.936-1.449 0V563.38l-20.966 2.942c-.916.128-1.307-1.272-.385-1.4l42.125-5.912c-.003-.038-.02-.064-.02-.104v-20.131l-43.035 4.507c-.93.098-.919-1.354 0-1.452l22.145-2.319a.68.68 0 0 1-.113-.374v-21.939l-22.528 1.614c-.936.067-.927-1.385 0-1.452l44.766-3.205v-22.832l-45.458 1.739c-.936.038-.933-1.414 0-1.449l22.728-.87v-9.317c-4.411-1.719-8.758-3.597-13.027-5.649-3.51-1.687-7.46-3.582-10.022-6.622-1.298-1.539-1.919-3.119-2.203-4.864-.003.012-.003 118.114-.003 118.114l69.783-11.567c-.174-.113-.301-.296-.301-.568zm108.929-65.462l46.027-3.298c-.014-.058-.035-.107-.035-.174v-16.763l-16.221.62-29.767 1.139v18.462zm-22.246 21.056l7.159-.751 37.114-3.886V504.68l-44.258 3.173v17.943c0 .026-.012.043-.014.067zm-2.426-40.344v-6.243a185.68 185.68 0 0 1-22.058 7.39l22.119-.846c-.038-.087-.061-.185-.061-.301zm-48.125 25.958l-32.703 2.342v20.766l41.294-4.327V510.86l-8.59.617zm49.113-3.522l-39.071 2.8v19.351l39.114-4.098c-.02-.067-.043-.13-.043-.212v-17.841zm.232-1.467c.238-.2.603-.214.875-.064l7.457-.533 13.694-.982c-.006-.041-.023-.072-.023-.116v-18.406l-41.044 1.571v19.896l19.041-1.365zm.18-20.716l7.753-.299 14.427-.551c.212-.113.472-.125.693-.026l23.102-.887c-.107-.113-.183-.264-.183-.467v-.209c-12.344-.246-24.655-2.159-36.468-5.744-1.319-.4-2.669-.826-4.043-.719-1.191.096-2.313.583-3.411 1.055l-1.817.751v6.843c0 .096-.026.174-.052.252zm47.093-1.803l40.21-1.539v-4.707l-3.797 1.055c-11.804 3.174-24.041 4.686-36.262 4.573v.191c0 .18-.064.316-.151.426zM422.4 562.858v-11.891l-7.759 1.087-35.778 5.023c.006.035.02.061.02.098v13.094c0 .165-.058.293-.133.4l43.896-7.274c-.145-.119-.246-.296-.246-.536zm-66.253-24.234c.003.006.006.012.006.02v20.166l13.219-1.855 32.77-4.599v-18.551l-45.995 4.82zm193.994-21.772v-15.163l-33.695 2.414-6.611.472v16.5l40.305-4.223z"/></g><g fill="#76725c"><path d="M550.39 482.801v-.371l-40.21 1.539c-.267.339-.826.356-1.119.041l-23.102.887c.226.099.403.301.403.623v.812l29.767-1.139 16.221-.62v-.041c0-.927 1.429-.93 1.449-.014l39.621-1.519c.93-.035.936-1.487 0-1.449l-21.583.826v.426c0 .936-1.449.936-1.449 0zm-107.975 4.695c0-.933 1.452-.933 1.452 0v.461l41.044-1.571v-.867a.64.64 0 0 1 .357-.597l-14.427.551-7.753.298c-.206.577-1.096.597-1.339.049l-22.119.846-6.909 1.716 9.695-.371v-.516zm-107.758 3.708c0 .936-1.452.933-1.452 0v-.461l-22.728.869c-.933.035-.936 1.487 0 1.449l45.458-1.739v-.119c0-.936 1.452-.933 1.452 0v.064l9.01-.345a106.12 106.12 0 0 1-6.457-1.203l-25.284.965v.519zm197.73 10.305l-46.026 3.298c-.014.875-1.301.904-1.426.101l-13.694.982-7.457.533c.194.11.345.299.345.591v.838l44.259-3.174v-.629c0-.933 1.449-.933 1.449 0v.525l6.611-.472 33.695-2.414v-.107c0-.936 1.452-.933 1.452 0l22.041-1.577c.927-.067.933-1.519 0-1.452l-39.845 2.855c-.078.791-1.229.82-1.403.101zM335.15 516.653v.441l44.258-3.171v-.727c0-.936 1.452-.933 1.452 0v.623l32.704-2.342 8.59-.617v-1.371c0-.032.014-.052.017-.081l-17.592 1.261v.301c0 .936-1.452.936-1.452 0v-.197l-34.773 2.49-10.967.788v.133c0 .936-1.452.933-1.452 0v-.029l-44.766 3.205c-.927.067-.936 1.519 0 1.452l22.528-1.614v-.545c0-.936 1.452-.933 1.452 0zm88.456-5.899l39.071-2.8v-.939a.66.66 0 0 1 .232-.527l-19.041 1.365v.4c0 .933-1.452.933-1.452 0v-.299l-18.847 1.351c.014.061.038.113.038.183v1.267zm126.535 6.64v-.542l-40.305 4.223v1.261c0 .072-.02.13-.038.194l6.553-.687 15.755-1.649v-.327c0-.936 1.452-.936 1.452 0v.174l39.816-4.171c.919-.096.93-1.548 0-1.452l-21.78 2.281v.696c0 .936-1.452.933-1.452 0zm-193.994 21.23l45.995-4.82v-.101c0-.919 1.388-.927 1.44-.049l10.184-1.067 29.142-3.052v-.281c0-.936 1.452-.933 1.452 0v.13l40.552-4.249v-.577c0-.933 1.452-.933 1.452 0v.426l22.104-2.316a.71.71 0 0 1-.081-.333v-1.11l-37.114 3.886-7.159.751c-.069.783-1.191.829-1.394.145l-39.114 4.098v.383c0 .936-1.452.936-1.452 0v-.232l-41.294 4.327v.6c0 .936-1.452.936-1.452 0v-.449l-10.721 1.125-33.587 3.516c-.186.559-.997.603-1.29.136l-22.145 2.319c-.919.099-.93 1.551 0 1.452l43.036-4.507v-.13c0-.927 1.423-.933 1.446-.02zm175.959-3.933v-.574l-45.743 6.42v.577c0 .936-1.452.936-1.452 0v-.374l-13.393 1.881-27.159 3.811v.365c0 .936-1.452.933-1.452 0v-.162l-39.314 5.518v.327c0 .936-1.452.933-1.452 0v-.125l-32.77 4.599-13.219 1.855v.096c0 .896-1.316.922-1.432.104l-42.125 5.912c-.922.128-.53 1.527.385 1.4l20.966-2.942v-.275c0-.936 1.449-.933 1.449 0v.072l42.036-5.901v-.101c0-.898 1.324-.925 1.432-.099l35.778-5.023 7.759-1.087v-.217c0-.933 1.452-.933 1.452 0l39.586-5.541c.102-.713 1.11-.782 1.368-.191l44.073-6.185v-.188c0-.93 1.432-.933 1.449-.014l6.461-.907 33.352-4.681v-.327c0-.936 1.452-.936 1.452 0v.125l21.974-3.084c.919-.13.528-1.53-.385-1.4l-39.624 5.559v.777c0 .936-1.452.933-1.452 0z"/><path d="M550.39 482.801c0 .936 1.449.936 1.449 0v-.426-5.081l-1.449.429v4.707.371zm-.249 18.78v.107 15.163.542c0 .933 1.452.936 1.452 0v-.696-15.114c0-.936-1.452-.939-1.452-.003zm1.452 31.258v-.125c0-.936-1.452-.936-1.452 0v.327 8.567a.64.64 0 0 0 .351.594c.304.168.716.116.939-.154a.67.67 0 0 0 .162-.441v-8.77zm-19.241-48.307v.041 16.763c0 .067.02.116.035.174.174.719 1.324.69 1.403-.101 0-.026.014-.046.014-.072v-16.804c-.023-.93-1.452-.927-1.452 0zm-.246 35.335v.327 13.923.574c0 .933 1.452.936 1.452 0v-.777-13.874-.174c0-.936-1.452-.936-1.452 0zm-23.044-35.857c.293.316.852.299 1.119-.041.087-.11.151-.246.151-.426v-.191l-1.452-.017v.209a.65.65 0 0 0 .183.467zm-.675 38.325a.71.71 0 0 0 .081.333c.272.525 1.165.475 1.33-.139.017-.064.038-.122.038-.194v-1.261-16.499-.525c0-.933-1.449-.933-1.449 0v.629 16.546 1.11zm1.944 25.946v-9.637c-.02-.933-1.452-.93-1.452 0v.188 9.448c0 .467.362.698.725.701a.85.85 0 0 0 .27-.046c.255-.087.458-.307.458-.655zm-23.968-23.723c0-.933-1.452-.933-1.452 0v.577 15.604.374c0 .936 1.452.936 1.452 0v-.577-15.552-.426zm-1.429-19.65c.125.803 1.411.774 1.426-.101l.003-18.476v-.812c0-.322-.177-.525-.403-.623-.22-.099-.481-.087-.693.026a.64.64 0 0 0-.357.597v.867 18.407c0 .043.017.075.023.116zm-20.067 40.407a.72.72 0 0 0-.061-.299c-.258-.591-1.267-.522-1.368.191-.006.038-.02.067-.02.107v10.625c0 .325.18.527.409.629.278.119.626.072.843-.142.116-.116.197-.275.197-.487v-10.625zm-1.959-38.826c-.139.116-.232.293-.232.527v.939 17.841c0 .081.023.145.043.212.203.684 1.324.638 1.394-.145.003-.023.014-.041.014-.067v-17.943-.838c0-.293-.151-.481-.345-.591-.272-.151-.638-.136-.875.064zm-1.159-20.667c.243.548 1.133.527 1.339-.049.026-.078.052-.157.052-.252v-6.843l-1.452.6v6.243c0 .116.023.214.061.301zm-17.39 43.432c0-.933-1.452-.936-1.452 0v.281 17.099.162c0 .933 1.452.936 1.452 0v-.365-17.047-.131zm-.492-21.001v-.4-19.896-.461c0-.933-1.452-.933-1.452 0v.516 19.943.299c0 .933 1.452.933 1.452 0zm-20.015 42.511c0-.948-1.452-.948-1.452-.014v.217 11.891c0 .241.101.417.246.536.327.264.89.2 1.11-.185a.7.7 0 0 0 .096-.351v-12.094zm-1.699-39.906v19.398.232c0 .936 1.452.936 1.452 0v-.383-19.351-1.267c0-.07-.023-.122-.038-.183-.177-.71-1.316-.678-1.397.101-.003.029-.017.049-.017.081v1.371zm-18.572 22.795c-.052-.878-1.44-.869-1.44.049v.101 18.551.125c0 .933 1.452.936 1.452 0v-.327-18.45c0-.017-.009-.032-.012-.049zm-.454-22.684c0 .936 1.452.936 1.452 0v-.301-18.224l-1.452.093v18.236.197zm-22.267 2.226c0-.933-1.452-.936-1.452 0v.727 20.812.449c0 .936 1.452.936 1.452 0v-.6-20.766-.623zm-1.977 43.98c0-.038-.014-.064-.02-.099-.107-.826-1.432-.8-1.432.099v.101 12.993c0 .272.128.455.301.568.319.209.794.154 1.017-.168.075-.107.133-.235.133-.4v-13.094zm-21.496-42.992v-.133-22.783-.064c0-.933-1.452-.936-1.452 0v.119 22.832.029c0 .933 1.452.936 1.452 0zm-1.235 44.723v-.096-20.166c0-.009-.003-.014-.006-.02-.023-.913-1.446-.907-1.446.02v.13 20.131c0 .041.017.067.02.104.116.817 1.432.791 1.432-.104zm-22.206 4.199v.275 13.807c0 .936 1.449.936 1.449 0v-14.01-.072c0-.933-1.449-.936-1.449 0zm1.154-23.731c.026-.072.049-.145.049-.238v-22.044-.441c0-.933-1.452-.936-1.452 0v.545 21.939a.68.68 0 0 0 .113.374c.293.467 1.104.423 1.29-.136zm-1.896-48.171c0 .933 1.452.936 1.452 0v-.519-8.709l-1.452-.551v9.318.461z"/></g><g fill="#151d25"><path d="M423.86 313.548l.991.067c.748.058 1.426.371 1.791-.243.22-.377.142-1.113.171-1.542l.194-2.817.072-1.087-2.6-.281-.62 5.904zm-10.667-6.946l-4.182-.293-.104 1.009-.936 5.492 4.747.174c-.101-.223-.151-.464-.122-.719l.597-5.663zm7.137 6.011l.559-5.353-4.098-.368-.565 5.373a2.56 2.56 0 0 1-.281.852l4.043.203a1.71 1.71 0 0 1 .342-.707zm101.455-.055l-4.895-.101c-.096 1.559-.29 3.11-.829 4.562l5.843.038c-.249-.313-.403-.696-.374-1.09l.255-3.408zm-8.509-.177l-4.64-.18-.455 4.626 2.933.125.977.012c.038-.087.072-.177.128-.27.785-1.31.977-2.805 1.058-4.313zm11.436-25.368v-16.366l-10.091-1.443-3.58-.504v12.239c0 2.339-3.631 2.333-3.631 0V268.19l-28.985-4.078v13.367c0 2.339-3.629 2.336-3.629 0v-13.877l-28.985-4.043v15.447c0 2.339-3.629 2.336-3.629 0v-15.952l-29.223-4.055-4.707-.643v17.192c0 2.339-3.629 2.336-3.629 0V253.86l-6.292-.861v23.78l73.13 5.962 53.249 4.272zm-22.93 24.875l-.229 4.649 3.014.136.455-4.637-3.24-.148zm-74.456-7.564l.452-6.591c.029-.449.191-.809.429-1.084-.02 0-.038.003-.058 0l-2.658-.252-.658 7.654 2.492.272zm-22.701-66.874c0-2.339 3.629-2.336 3.629 0v13.274l33.929 4.698v-11.054c0-2.339 3.629-2.336 3.629 0v11.558l25.342 3.521 3.643.513v-11.639c0-2.339 3.628-2.336 3.628 0v12.152l28.985 4.084v-9.318c0-2.339 3.631-2.336 3.631 0v9.828L524.712 267v-14.639l-9.804-1.591-101.814-16.52-14.761-2.394v17.502l6.292.867V237.45zm162.544 80.504l-2.6 2.005-5.069 3.91c-.838.646-1.962.061-2.484-.652l-3.799-5.22-1.8-2.472c-.536-.736-1.2-1.472-1.603-2.287-1.098-2.234 1.675-3.686 3.116-4.837l4.883-3.892c.374-.302.817-.487 1.258-.51.646-1.018 2.333-1.409 3.133-.052l3.327 5.625 1.664 2.811c.504.852 1.214 1.762 1.388 2.751.217 1.243-.496 2.107-1.414 2.82zm-41.004-69.013l46.302 7.513c2.304.376 1.322 3.872-.962 3.501l-45.339-7.356v8.697 5.913l9.909 1.417V258.7c0-2.339 3.629-2.336 3.629 0v10.445l21.079 3.017v-9.509c0-2.339 3.629-2.336 3.629 0v10.028l7.973 1.142c2.304.333 1.319 3.828-.965 3.498l-7.008-1v9.558c0 2.339-3.629 2.333-3.629 0v-10.077l-21.079-3.014v11.607c0 2.339-3.629 2.336-3.629 0v-12.126l-9.909-1.417v16.276l45.821 3.678c2.316.183 2.327 3.814 0 3.629l-45.821-3.661v10.257l9.092.893c.971.107 1.53.814 1.684 1.576.667.197 1.197.748 1.151 1.661l-.559 11.193c-.067 1.287.049 2.721-1.127 3.544-1.182.826-3.133.548-4.492.597l-5.747.157v48.246c0 .269-.13.452-.301.568 2.962 15.589 8.332 31.199 19.148 42.76 3.536 3.776 7.953 7.547 12.706 9.695 5.136 2.321 11.567 2.252 17.178 2.988.441.058.907.128 1.249.414.055.046.087.128.136.185V106.523l-50.116-13.844v59.801 96.461zm-183.478 52.737c1.887 2.374 3.878 4.623 6.037 6.738l5.417-4.397 3.049-2.817 2.287-2.185-.794-.872-1.51-1.863-2.748-3.356-4.31-5.66-5.544 3.544c-1.101.748-2.165 1.539-3.13 2.455-.739.701-1.939 1.777-2.182 2.811-.209.893.577 1.936 1.043 2.62.719 1.052 1.594 1.985 2.385 2.982zm153.084 9.819l.188 4.643 1.979.139.223-4.614-2.391-.168zm-74.534-7.834l.632-7.338c.009-.093.046-.174.067-.267l-4.243-.348-.522 7.585 4.066.368zm143.349 11.439l-4.576-7.735-3.591 2.866-1.846 1.472-.985.742 1.064 1.382 1.8 2.475 2.504 3.437 3.095-2.388 2.191-1.69c.093-.07.264-.241.44-.4l-.096-.162zm-166.253-86.903l72.803 11.813 53.576 8.695v-48.516V92.589a.75.75 0 0 1 .058-.293L398.333 57.367v66.697 104.135zm-62.59 67.036c.71-2.93 3.759-5.249 6.066-6.909l7.828-5.119c.829-.6 1.64-.336 2.136.264a1.85 1.85 0 0 1 .345.386c1.869 2.79 3.965 5.402 6.092 7.996l3.188 3.912c.806 1.012 2.194 2.223 2.003 3.643-.197 1.444-2.003 2.745-2.979 3.713a89.02 89.02 0 0 1-3.371 3.159c-2.417 2.153-4.956 4.165-7.559 6.089-.652.484-1.661.217-2.197-.284-2.889-2.681-5.336-5.657-7.854-8.671-1.846-2.212-4.463-5.032-3.698-8.179zm-11.274-12.952c1.012.159 1.458 1.353 1.267 2.231-1.95 9.025-2.345 18.378-1.081 27.53.142 1.029-.438 2.444-1.748 2.299-4.988-.551-9.973.548-14.958 0v118.284c1.026.067 2.968.823 3.747.991 1.127.249 2.263.455 3.402.626 2.379.356 4.782.548 7.185.577a53.77 53.77 0 0 0 14.001-1.684c4.058-1.043 7.99-2.565 11.677-4.553 7.93-4.275 14.607-10.497 21.189-16.65 6.48-6.063 12.746-11.532 17.639-18.94a96.46 96.46 0 0 0 6.495-11.457c.594-1.238 2.53-4.521 3.631-7.225-.012-.055-.035-.101-.035-.165v-58.112l-7.338-.362c-3.2-.191-6.396-.432-9.584-.756-2.4-.244-5.64-.186-6.37-3.075-.368-1.458.032-3.148.165-4.62l.426-4.623.951-10.309c.09-.982.765-1.814 1.814-1.814 6.649-.012 13.297.113 19.937.365v-10.546l-84.636-6.933c-2.316-.188-2.33-3.82 0-3.628l57.387 4.706 27.249 2.22v-23.858l-25.687-3.51v20.279c0 2.339-3.631 2.336-3.631 0v-20.774l-36.891-5.037v24.327c0 2.339-3.629 2.336-3.629 0v-24.823l-15.282-2.086c-2.307-.313-1.319-3.809.965-3.502l14.317 1.948v-13.54c0-2.339 3.629-2.333 3.629 0v14.033l36.891 5.017v-12.625c0-2.339 3.631-2.336 3.631 0v13.123l25.687 3.53v-17.543l-85.12-13.81c-2.304-.374-1.319-3.872.965-3.501l56.593 9.185 27.562 4.472v-48.279V57.277a.72.72 0 0 1 .061-.295L307.95 32.399v248.675c5.538-.092 11.051.331 16.52 1.209zm78.124 20.059l3.121.162.472-7.309c.006-.096.026-.183.043-.272l-6.988-.348-.574 7.64 3.924.128zm6.75.358l4.217.299.522-7.57-4.269-.293c0 .02.003.038.003.058l-.472 7.506zm-5.431 9.968c.128-.377.342-.658.597-.858.278-1.069.432-2.203.597-3.269l.304-2.423-3.533-.177-3.545-.104v6.628l2.663.104 2.916.099z"/><path d="M449.799 300.878l10.86-8.318c.722-.553 1.838-.176 2.359.484.467 0 .927.157 1.232.519l4.901 6.025c1.351 1.713 3.437 3.67 2.979 6.069-.371 1.939-2.11 3.209-3.495 4.443l-5.211 4.646c-1.466 1.307-3.466 3.774-5.524 2.043-.864-.73-1.533-1.788-2.243-2.666l-2.122-2.637-4.234-5.281c-.693-.884-1.301-1.808-1.119-2.988.156-1.029.829-1.727 1.617-2.339zm34.889 127.226c23.238-10.749 35.428-34.581 40.508-58.544-.266-.081-.484-.299-.484-.661v-48.232c-5.011.07-10.025.032-15.033-.13a329.93 329.93 0 0 1-11.462-.574c-3.298-.226-6.973-.139-10.193-.887-3.553-.823-2.478-5.011-2.261-7.703.301-3.733.742-7.452 1.278-11.159.11-.762 1.04-1.347 1.75-1.33 11.993.261 23.974.936 35.92 2.003v-10.228l-8.944-.713-101.373-8.216-16.062-1.316v10.491a500.58 500.58 0 0 1 29.817 2.116c1.606.162 2.095 1.971 1.464 2.974.942-.044 1.878.53 1.794 1.739l-.794 11.63c-.165 2.397.188 6.182-2.316 7.57-1.272.704-2.748.357-4.124.264l-4.794-.29-9.683-.411-11.364-.403v56.755c6.014 16.671 14.598 32.628 27.037 45.229 15.291 15.488 39.737 19.082 59.318 10.025zM452.13 303.967l.527.664 1.058 1.322 2.252 2.803 2.124 2.637 1.194 1.481.354.438 4.06-3.666 2.527-2.252c.69-.614 1.539-1.214 2.093-1.962.493-.672-.032-1.084-.478-1.669l-2.017-2.568-4.049-4.953-4.956 3.797-2.834 2.171-1.333 1.02-.609.467-.064.061.151.212zm56.784 4.617l4.515.171.214-5.107-4.594-.284a1.56 1.56 0 0 1 .151.73l-.287 4.489zm-113.865-6.46l.574-7.701-4.281-.13-.27 7.779 3.976.052zm137.755 4.281l-.017.035-.099.406c.023-.061-.043.414-.046.484l-.009.53-.014 1.072 1.655-.006.174-3.452-1.214-.119a1.51 1.51 0 0 1-.243.762l-.185.287zm-4.284 9.645l.342-3.475-2.698.012v4.405l2.411-.038a2.55 2.55 0 0 1-.055-.904zm.954-11.065l-3.31-.325v4.298l2.823-.012c-.017-1.345-.038-2.75.487-3.962zm-7.42 3.95l.345-4.617-5.139-.394-.206 4.907 4.999.104zm-16.757-.516l.275-4.324c.014-.333.136-.632.296-.904l-3.579-.197-.316 5.275 3.324.151zm-114.514-2.713c-.22 2.13-.539 4.249-.985 6.35l3.884.203.959-6.515-3.858-.038zm-9.738-3.866l.577-7.715-3.032-.012-.669 7.263a1.9 1.9 0 0 1 .374.043c.91.191 1.829.325 2.75.42zm151.011 14.877c.655-.061 1.284-.07 1.823.043 0-.017.003-.038.003-.055l.125-2.449.084-1.701-1.617.006-.417 4.156zm-151.759-7.206c.232-.974.299-2.037.385-2.997l.084-1.09-3.176-.464-.336 3.684c-.055.603-.432 1.817.026 2.33.299.33 2.15.267 2.649.31-.009-.035-.026-.067-.035-.101-.122-.629.012-1.22.403-1.672zm7.15-7.44l.267-7.86-2.466-.043-.591 7.886 2.791.017zm110.909 5.98l.313-5.217-3.252-.104.209 5.13 2.73.191zm-113.97-2.411l-.246 2.461c-.145 1.148-.194 2.487-.794 3.487l2.794.229c.461-2.029.788-4.075 1.009-6.133a97.67 97.67 0 0 1-2.762-.043zm-63.513 4.938c-.916-8.361-.6-16.758.977-25.023-4.605-.643-9.248-.93-13.9-.852v26.011c4.307.472 8.616-.278 12.923-.136zm170.91-7.968l-1.42-.046-.588 4.883 2.211.154-.203-4.991zm-2.362 8.44l-.188 2.466c-.026.397-.296 1.632-.171 2.043l.22.041 1.069.101 1.968.174-.188-4.634-2.71-.191z"/></g><g fill="#c27b3f"><path d="M43.344 256.453c-2.3.374-1.324 3.872.965 3.501l45.027-7.306v-3.658l-45.991 7.463zm260.708-38.644c2.298-.374 1.322-3.872-.965-3.501l-84.47 13.706v3.658l28.841-4.681 56.594-9.182zm-86.887 14.097v-3.655l-15.413 2.501-101.815 16.52-9.15 1.484v3.658l54.854-8.903 71.524-11.604zM43.826 290.807c-2.313.183-2.332 3.814 0 3.629l45.51-3.652v-3.611l-45.51 3.634zm173.339-10.374v-3.623l-15.749 1.29-101.373 8.216-9.256.739v3.611l53.561-4.298 72.817-5.936zm86.403-7.071c2.313-.188 2.333-3.82 0-3.629l-84.951 6.959v3.623l27.564-2.246 57.387-4.707zm-260.139.461c-2.301.333-1.323 3.829.966 3.498l7.006-1.003v-3.634l-7.972 1.139zm36.309-5.19v3.631l9.597-1.374v-3.631l-9.597 1.374zm-24.707 3.532v3.634l21.079-3.017v-3.631l-21.079 3.014zm189.588-26.504l-26.002 3.553v2.527 1.096l26.002-3.573v-3.602zm-136.22 18.894v3.637l28.986-4.084v-3.631l-28.986 4.078zm93.488-13.057l-28.258 3.921v3.634l33.927-4.698v-3.631l-5.669.774zm-60.873 8.468v3.629l4.609-.649L170 259.558v-3.634l-28.986 4.043zm144.126-16.218v-3.62l-36.892 5.037v3.6l36.892-5.017zm18.911-2.571c2.304-.313 1.322-3.811-.965-3.501l-14.316 1.956v3.623l15.281-2.078zM104.77 265.064l-4.544.638-9.439 1.351v3.631l13.983-1.979v-3.64zm106.416-11.207l5.979-.823v-3.623l-5.979.817v3.629z"/><path d="M55.03 262.653c0-2.336-3.629-2.339-3.629 0v10.031 3.634 9.561c0 2.333 3.629 2.339 3.629 0v-10.08-3.634-9.512zm24.708-3.953c0-2.336-3.629-2.339-3.629 0v10.451 3.631 11.613c0 2.336 3.629 2.339 3.629 0v-12.132-3.631-9.932zm28.661-3.46c0-2.336-3.629-2.339-3.629 0v9.825 3.64 12.233c0 2.333 3.629 2.339 3.629 0v-12.746-3.637-9.315zm32.615-6.918c0-2.336-3.629-2.339-3.629 0v12.155 3.631 13.369c0 2.336 3.629 2.339 3.629 0v-13.882-3.629-11.645zm32.616-3.954c0-2.336-3.629-2.339-3.629 0v11.555 3.634 15.447c0 2.336 3.629 2.339 3.629 0v-15.952-3.634-11.051zm37.556-6.918c0-2.336-3.63-2.339-3.63 0v13.274 3.631 17.192c0 2.336 3.63 2.339 3.63 0v-17.691-3.629-12.778zm33.433 32.121c0 2.336 3.629 2.339 3.629 0v-20.806-3.6-12.657c0-2.336-3.629-2.339-3.629 0v13.152 3.602 20.308zm40.521-1.484c0 2.336 3.63 2.339 3.63 0v-24.832-3.623-13.549c0-2.333-3.63-2.339-3.63 0v14.045 3.62 24.339z"/></g><g fill="#fac860"><path d="M514.908 250.771l9.804 1.591v-3.655l-53.576-8.695-72.803-11.813v3.657l14.761 2.394 101.814 16.52zm-145.589-27.279l-56.593-9.184c-2.284-.371-3.269 3.127-.965 3.501l85.12 13.81v-3.655l-27.562-4.472zm203.147 32.961l-46.302-7.512v3.658l45.34 7.356c2.284.371 3.266-3.124.962-3.501zm-56.698 33.493l8.944.713v-3.646l-53.249-4.272-73.13-5.962v3.634l16.062 1.316 101.373 8.216zm-146.136-15.505l-57.387-4.707c-2.33-.191-2.316 3.44 0 3.629l84.636 6.933v-3.634l-27.249-2.22zm202.353 16.366l-45.821-3.678v3.646l45.821 3.66c2.327.185 2.316-3.446 0-3.629zm-93.56-30.333v3.637l28.985 4.078v-3.631l-28.985-4.084zm32.616 8.224l3.579.504 10.092 1.443V267l-13.671-1.933v3.631zm-102.787-17.973v3.631l4.707.643 29.223 4.055v-3.631l-33.929-4.698zm62.899 8.723l-25.342-3.521v3.631l28.985 4.043v-3.64l-3.643-.513zm64.92 9.178l-9.909-1.417v3.643l9.909 1.417v-3.643zm35.344 8.695c2.284.33 3.269-3.165.965-3.498l-7.973-1.142v3.64l7.008 1zm-10.636-1.519v-3.64l-21.079-3.017v3.643l21.079 3.014zm-248.055-38.126c-2.284-.307-3.272 3.188-.965 3.501l15.282 2.087v-3.64l-14.317-1.948zm58.468 7.956v3.66l25.687 3.51v-3.64l-25.687-3.53zm-40.523-5.515v3.643l36.891 5.037v-3.663l-36.891-5.017zm73.954 10.109l-6.292-.867v2.382 1.258l6.292.861v-3.634z"/><path d="M560.781 285.879c0 2.333 3.629 2.339 3.629 0v-9.558-3.64-10.028c0-2.336-3.629-2.339-3.629 0v9.509 3.64 10.077zm-24.708-1.483c0 2.336 3.629 2.339 3.629 0v-11.607-3.643V258.7c0-2.336-3.629-2.339-3.629 0v9.926 3.643 12.126zm-25.032-29.156c0-2.336-3.631-2.339-3.631 0v9.318 3.632 12.749c0 2.333 3.631 2.339 3.631 0V268.7v-3.631-9.828zm-32.616-6.918c0-2.336-3.629-2.339-3.629 0v11.639 3.64 13.877c0 2.336 3.629 2.339 3.629 0v-13.367-3.637-12.152zm-32.613-3.954c0-2.336-3.629-2.339-3.629 0v11.054 3.632 15.952c0 2.336 3.629 2.339 3.629 0v-15.447-3.632-11.558zm-37.558-6.918c0-2.336-3.629-2.339-3.629 0v12.775 3.634 17.688c0 2.336 3.629 2.339 3.629 0v-17.192-3.631-13.274zm-37.06-4.941c0-2.336-3.631-2.339-3.631 0v12.625 3.663 20.774c0 2.336 3.631 2.339 3.631 0v-20.279-3.66-13.123zm-40.522-6.426c0-2.333-3.629-2.339-3.629 0v13.54 3.64 24.823c0 2.336 3.629 2.339 3.629 0v-24.328-3.643-14.033z"/></g><g fill="#c27b3f"><path d="M53.178 307.366l3.592 2.866 1.847 1.472.983.739-.962 1.249-1.901 2.611-2.503 3.437-3.096-2.388-2.192-1.69c-.092-.07-.263-.241-.441-.4l.096-.162 4.575-7.735zm-7.341 10.445l2.649 2.043 5.203 4.014c.829.64 1.967.055 2.482-.652l3.701-5.081 1.799-2.472c.569-.783 1.278-1.559 1.703-2.426 1.079-2.2-1.559-3.597-2.982-4.73l-5.016-4c-.373-.298-.813-.481-1.254-.504-.646-1.02-2.334-1.417-3.138-.058l-3.239 5.475-1.664 2.814c-.53.896-1.296 1.861-1.477 2.898-.195 1.122.38 2.011 1.231 2.678zm42.56-.799l-3.779-.058a1.73 1.73 0 0 1-1.219 1.327c-.846.272-2.102-.325-2.231-1.267l-.028-.243c-.611-.043-1.214-.055-1.791 0 .079-.777-.129-1.785-.166-2.516l-.085-1.701c-.349-.006-.698 0-1.047-.006-2.337-.038-2.336-3.666 0-3.629l.864.006-.174-3.452 1.209-.119c-.038-.672.343-1.362.901-1.722.864-.557 1.947-.13 2.482.652a4.17 4.17 0 0 1 .381.699l3.47-.342-.027-.357c-.076-1.011.892-1.774 1.814-1.814.126-.006.248.003.364.026v-1.695l-11.404 1.122c-.968.107-1.527.814-1.683 1.577-.667.194-1.198.745-1.152 1.661l.562 11.193c.065 1.287-.05 2.721 1.127 3.545s3.133.548 4.491.597l8.058.18v-2.965c-.39-.113-.712-.365-.938-.698zm15.112 3.524a329.72 329.72 0 0 0 11.463-.574c3.306-.226 6.965-.136 10.194-.887 3.553-.823 2.478-5.011 2.259-7.703-.302-3.733-.742-7.451-1.278-11.158-.11-.759-1.028-1.348-1.751-1.33-11.221.244-22.429.855-33.609 1.806v3.617l5.139-.382-.017-.385c-.042-.983.864-1.814 1.815-1.814 1.011 0 1.774.835 1.815 1.814l.005.11 4.593-.284c.291-.632.967-1.084 1.665-1.084.669 0 1.202.38 1.517.91l3.582-.197-.045-.756c-.064-.982.881-1.814 1.814-1.814 1.026 0 1.751.838 1.814 1.814l.036.597 3.251-.104.041-1.035c.039-.983.799-1.814 1.815-1.814.953 0 1.854.835 1.815 1.814l-.037.916 1.422-.046a163.29 163.29 0 0 1 .589 4.883c.261-.023.523-.035.784-.055 2.331-.194 2.31 3.437 0 3.629l-.431.029.165 2.11c.026.38.334 1.904.201 2.382-.068-.165-1.09.139-1.295.159l-1.968.174-.04 1.003c-.039.985-.798 1.817-1.815 1.817-.952 0-1.854-.835-1.815-1.817l.03-.739-1.98.142.039.797c.044.985-.864 1.814-1.814 1.814-1.011 0-1.771-.835-1.814-1.814l-.027-.539-3.012.133.076.78c.113.98-.921 1.814-1.814 1.814-1.062 0-1.702-.84-1.814-1.814-.024-.209-.038-.417-.062-.626l-2.932.125-.978.012c.788 1.898-2.116 3.475-3.261 1.562a8.91 8.91 0 0 1-.711-1.507l-5.839.038a2.02 2.02 0 0 1-.5.429v3.205c4.242.029 8.483-.014 12.722-.154zm57.219-16.006l-1.058 1.322-2.25 2.805-2.124 2.637-1.196 1.481c-.088.11-.303.423-.501.698l-4.02-3.623-2.526-2.252c-.741-.661-1.664-1.307-2.257-2.113-.496-.675-.066-1.061.391-1.666l1.985-2.53 4.225-5.176 4.852 3.716 2.835 2.171 1.334 1.023.666.51c.04.032.139.13.237.217a1.26 1.26 0 0 1-.099.159l-.497.62zm1.096-4.736l-3.002-2.301-6.337-4.852c-.671-.516-1.709-.185-2.214.426-.432-.043-.885.107-1.267.562l-4.264 5.226-1.891 2.406c-.643.829-1.342 1.646-1.627 2.678-.563 2.032.715 3.684 2.135 4.97l5.051 4.504 2.526 2.252c.859.765 1.716 1.736 2.968 1.626 1.036-.096 1.622-.832 2.234-1.588l2.259-2.797 4.37-5.446c1.222-1.524 3.063-3.35 1.699-5.396-.631-.948-1.752-1.591-2.64-2.269zm21.748-3.8c-.941-.043-1.874.53-1.791 1.739l.699 10.222c.162 2.382-.181 5.678 1.172 7.785 1.587 2.472 4.973 1.472 7.412 1.324l9.65-.464 16.452-.617v-.777c-.505-.212-.926-.614-1.024-1.159l-.263-1.623-3.687.145-2.915.099c.002.009.007.014.009.023.356 1.075-.376 2.206-1.439 2.452-1.389.322-2.217-.745-2.53-1.93l-.095-.403-4.749.174a1.99 1.99 0 0 1-1.695 1.096c-.727 0-1.233-.406-1.531-.962l-4.052.206c.094.435.039.91-.171 1.336l-.243.493c-.35.713-1.315 1.035-2.049.835-.831-.229-1.24-.945-1.331-1.751l-.072-.687-.993.067c-.745.058-1.425.371-1.787-.243-.223-.377-.143-1.113-.174-1.542l-.193-2.817-.074-1.087-.53.058c-2.318.275-2.292-3.356 0-3.629l.284-.032-.45-6.59a1.81 1.81 0 0 0-.43-1.084c.021 0 .039.003.06 0l2.655-.252-.006-.072c-.076-.982.891-1.814 1.815-1.814.936 0 1.575.696 1.749 1.548l4.243-.348-.098-1.432c-.118-2.339 3.512-2.324 3.629 0l.079 1.151 4.27-.293c-.075-2.179 3.184-2.234 3.583-.214l6.986-.348-.029-.472c-.084-1.901 2.3-2.249 3.249-1.061v-2.235c-10.728.394-21.441 1.13-32.125 2.214-1.603.162-2.098 1.971-1.468 2.974zm46.937 19.18l4.75-.475c1.248-.148 2.477-.287 3.416-1.214 1.049-1.04 1.104-2.388.987-3.773l-.524-5.689-1.08-11.732c-.09-.98-.758-1.814-1.814-1.814a495.65 495.65 0 0 0-17.628.287v3.629l3.231-.099-.014-.777c-.04-2.342 3.589-2.333 3.629 0l.012.696 2.466-.043-.02-.27c-.073-.98.889-1.814 1.814-1.814 1.034 0 1.741.838 1.815 1.814l.017.226 3.032-.012.669 7.263c2.007-.052 2.746 3.087.592 3.542l-.262.049.338 3.678c.056.603.432 1.817-.027 2.33-.299.33-2.15.267-2.649.31a1.85 1.85 0 0 1-.885 1.098c-.524.284-1.317.388-1.831 0a2.71 2.71 0 0 1-.696-.797l-2.799.229.161.739c.556 2.269-2.944 3.232-3.499.962-.119-.484-.214-.974-.318-1.461l-3.883.203.132.823c.156.875-.202 1.739-1.024 2.107v.733l2.262-.093c3.214-.168 6.425-.374 9.631-.655zm42.378-16.479c-.693 1.014-1.533 1.913-2.299 2.872-1.924 2.405-3.935 4.698-6.125 6.848l-5.414-4.397-2.885-2.655-2.445-2.339.787-.881 1.358-1.678 2.9-3.542 4.31-5.66 5.387 3.437c1.154.78 2.275 1.603 3.287 2.562.736.698 1.941 1.777 2.181 2.811.206.89-.577 1.939-1.043 2.62zm-1.505-10.37l-7.828-5.118c-.827-.597-1.639-.336-2.135.261-.125.11-.244.232-.349.388-1.867 2.791-3.965 5.402-6.091 7.996l-3.037 3.727c-.837 1.046-2.351 2.353-2.15 3.828.187 1.394 1.872 2.611 2.813 3.547a87.21 87.21 0 0 0 3.536 3.324c2.417 2.153 4.956 4.165 7.557 6.089.655.487 1.654.223 2.199-.284 2.888-2.681 5.335-5.657 7.854-8.671 1.815-2.174 4.517-5.066 3.698-8.179-.774-2.945-3.724-5.223-6.065-6.909zm35.214 22.882c-.287-.348-.736-.562-1.356-.493-4.307.472-8.616-.278-12.923-.136.913-8.361.6-16.757-.98-25.023a89.56 89.56 0 0 1 13.903-.852c.615.009 1.064-.238 1.353-.603-.525-.658-.522-1.704.003-2.379-.293-.374-.742-.638-1.356-.646-5.541-.093-11.051.33-16.522 1.209-1.004.159-1.454 1.359-1.267 2.232 1.953 9.025 2.346 18.378 1.082 27.53-.143 1.029.441 2.443 1.749 2.298 4.988-.551 9.973.548 14.958 0a1.84 1.84 0 0 0 1.353-.8c-.493-.716-.496-1.73.003-2.336z"/><path d="M80.383 306.404l.017.035.096.388c-.01-.003.043.348.046.412l.013.62.014 1.072 3.632.014c.017-1.345.038-2.75-.488-3.962a4.14 4.14 0 0 0-.381-.698c-.535-.783-1.618-1.209-2.482-.652-.558.359-.939 1.049-.901 1.722a1.48 1.48 0 0 0 .25.762l.183.287zm4.284 9.646l-.342-3.475c-1.204-.003-2.407 0-3.611-.014l.425 4.211.028.243c.129.942 1.385 1.539 2.231 1.267a1.73 1.73 0 0 0 1.219-1.327 2.48 2.48 0 0 0 .049-.904zm3.361-.085a2.16 2.16 0 0 0 .369 1.046 1.72 1.72 0 0 0 .938.698v-5.115c-.52.003-1.04-.009-1.56-.006l.252 3.376zm2.76-11.648l-.001 4.626.346-.009-.345-4.617zm-3.631-.031l.027.356.322 4.315 1.83.009v-6.469c-.117-.023-.238-.032-.364-.026-.922.041-1.89.803-1.814 1.814zm4.13 12.769c.249-.299.402-.669.371-1.09l-.254-3.408-.617.014v4.912a2.02 2.02 0 0 0 .5-.429zm8.472-8.3l-.216-5.107-.005-.11c-.041-.98-.804-1.814-1.815-1.814-.95 0-1.857.832-1.815 1.814l.017.385.208 4.907 3.625-.075zm.154 3.626l-3.614.075c.096 1.559.29 3.11.827 4.562a8.91 8.91 0 0 0 .711 1.507c1.145 1.913 4.049.336 3.261-1.562l-.128-.27c-.787-1.31-.976-2.805-1.058-4.313zm4.64-.18l.455 4.626.061.626c.113.974.753 1.814 1.814 1.814.894 0 1.928-.835 1.815-1.814l-.077-.78-.456-4.637-3.613.165zm-.28-3.617l3.619-.165-.275-4.324c-.016-.333-.137-.632-.299-.904-.314-.53-.847-.91-1.517-.91-.698 0-1.374.452-1.665 1.084a1.55 1.55 0 0 0-.15.73l.287 4.489zm7.134 3.304l.227 4.652.027.539c.044.98.803 1.814 1.814 1.814.95 0 1.858-.829 1.814-1.814l-.039-.797-.225-4.617-3.618.223zm3.424-3.837l-.312-5.217-.036-.597c-.063-.977-.788-1.814-1.815-1.814-.933 0-1.878.832-1.814 1.814l.045.756.315 5.275 3.616-.217zm6.372-.45l.201-4.991.037-.916c.039-.98-.862-1.814-1.815-1.814-1.015 0-1.775.832-1.815 1.814l-.041 1.035-.207 5.13 3.639-.258zm-3.786 3.896l-.187 4.643-.03.739c-.039.982.863 1.817 1.815 1.817 1.017 0 1.775-.832 1.815-1.817l.04-1.003.187-4.634-3.639.255z"/><path d="M96.299 312.456l3.614-.075 4.64-.18 3.613-.165 3.242-.148 3.618-.223 2.392-.168 3.639-.255 2.711-.191.431-.029c2.31-.191 2.331-3.823 0-3.629l-.784.055-2.212.154-3.639.258-2.733.191-3.616.217-3.323.151-3.619.165-4.514.171-3.625.075-5.001.104-.346.009v3.629l.617-.014 4.895-.101zm-12.097-3.509l-3.632-.014c-.552-.006-1.103 0-1.655-.006-.288-.006-.576 0-.864-.006-2.336-.038-2.337 3.591 0 3.629l1.047.006 1.618.006 3.611.014 3.45.014 1.56.006v-3.591-.038c-.61.003-1.22-.012-1.83-.009-1.101.006-2.202-.009-3.304-.012zm107.749-5.284l-.633-7.338c-.007-.093-.046-.174-.065-.267-.174-.852-.813-1.548-1.749-1.548-.924 0-1.891.832-1.815 1.814l.006.072.66 7.654 3.595-.388zm.908 8.95l-.561-5.353-3.589.385.619 5.904.072.687c.092.806.5 1.522 1.331 1.751.734.2 1.699-.122 2.049-.835l.243-.493c.21-.426.265-.901.171-1.336-.055-.258-.17-.498-.336-.71zm6.768-9.614l-.521-7.57-.079-1.151c-.117-2.324-3.747-2.339-3.629 0l.098 1.432.523 7.585 3.609-.296zm.368 3.603l-3.598.29.566 5.373c.038.31.145.591.284.852.298.556.803.962 1.531.962a1.99 1.99 0 0 0 1.695-1.096c.102-.223.151-.464.119-.719l-.596-5.663zm8.684 5.211c-.278-1.072-.43-2.206-.596-3.272l-.306-2.423-3.599.191.105 1.009.938 5.492.095.403c.313 1.185 1.141 2.252 2.53 1.93 1.063-.246 1.795-1.377 1.439-2.452-.002-.009-.007-.014-.009-.023-.129-.377-.341-.655-.598-.855zm-4.834-9.112l3.629-.197-.473-7.309c-.006-.096-.026-.183-.044-.272-.399-2.02-3.658-1.965-3.583.214 0 .02-.004.038-.002.058l.472 7.506zm12.033 9.723l.263 1.623c.098.545.519.948 1.024 1.159v-7.845-1.594l-2.245.067.958 6.591zm-1.962-18.322l.029.472.574 7.643 2.646-.078v-9.098c-.949-1.188-3.333-.84-3.249 1.061zm5.725 18.98l-.132-.823-.891-5.97v8.9c.821-.368 1.18-1.232 1.024-2.107zm3.504-11.021l2.596.009-.267-7.857-.012-.696c-.04-2.333-3.669-2.342-3.629 0l.014.777.27 7.782 1.028-.014zm.718 3.628l-1.456.014c.218 2.133.538 4.252.984 6.353l.318 1.461c.555 2.269 4.055 1.307 3.499-.962l-.161-.739c-.459-2.029-.786-4.072-1.008-6.13l-2.177.003zm8.281-3.847l-.578-7.718-.017-.226c-.073-.977-.781-1.814-1.815-1.814-.925 0-1.888.835-1.814 1.814l.02.27.59 7.883 3.613-.209zm.748 7.669c-.232-.974-.298-2.035-.386-2.997l-.084-1.081-3.62.217.227 2.292c.147 1.18.194 2.603.818 3.643.181.301.402.577.696.797.514.388 1.308.284 1.831 0a1.85 1.85 0 0 0 .885-1.098c.01-.035.027-.067.034-.101.124-.632-.013-1.223-.401-1.672z"/><path d="M210.595 302.341l-3.12.162-3.63.197-4.219.299-3.608.296-4.068.368-3.595.388-2.495.272-.284.032c-2.292.272-2.318 3.904 0 3.629l.53-.058 2.602-.281 3.589-.385 4.1-.368 3.598-.29 4.182-.293 3.599-.191 3.535-.177 3.608-.107 2.245-.067v-3.629l-2.646.078-3.924.125zm13.268 3.348l2.177-.003 2.761-.035 3.62-.217 3.176-.467.262-.049c2.154-.455 1.415-3.594-.592-3.542a1.89 1.89 0 0 0-.372.043 27.74 27.74 0 0 1-2.75.423l-3.614.209-2.79.017-2.596-.009-1.028.014-3.5.043v3.626l3.79-.041 1.456-.014z"/></g><g fill="#fac860"><path d="M564.241 315.664l-2.191 1.69-3.095 2.388-2.504-3.437-1.8-2.475-1.064-1.382.985-.742 1.846-1.472 3.591-2.866 4.576 7.735.096.162-.441.4zm2.953-3.281l-1.664-2.811-3.327-5.625c-.8-1.356-2.487-.965-3.133.052-.441.023-.884.209-1.258.51l-4.883 3.892c-1.44 1.151-4.214 2.603-3.116 4.837.403.814 1.067 1.551 1.603 2.287l1.8 2.472 3.8 5.22c.522.713 1.646 1.298 2.484.652l5.069-3.91 2.6-2.006c.919-.713 1.632-1.577 1.414-2.82-.174-.988-.884-1.898-1.388-2.75zm-80.153-12.169c-.536 3.707-.977 7.425-1.278 11.158-.217 2.692-1.293 6.88 2.261 7.703 3.22.748 6.895.661 10.193.887a328.99 328.99 0 0 0 11.462.574 324.92 324.92 0 0 0 15.033.13v-3.573a1.82 1.82 0 0 1-1.365.687c-.545.023-1.093-.281-1.443-.725-1.948.012-3.895-.012-5.843-.038-.191.519-.42 1.023-.71 1.507-1.145 1.916-4.049.333-3.26-1.562l-.977-.012-2.933-.125-.064.626c-.11.977-.739 1.814-1.814 1.814-.898 0-1.927-.84-1.814-1.814.032-.261.049-.522.078-.78l-3.014-.136-.026.542c-.041.982-.797 1.814-1.814 1.814-.951 0-1.858-.835-1.814-1.814l.041-.8-1.979-.139.029.739c.041.985-.864 1.817-1.814 1.817-1.011 0-1.777-.835-1.814-1.817l-.041-1.003-1.968-.174-1.069-.101a3.22 3.22 0 0 0-.22-.041c-.125-.412.145-1.646.171-2.043l.188-2.466c-.142-.012-.287-.017-.432-.029-2.313-.191-2.327-3.823 0-3.629l.785.055.588-4.883 1.42.046-.035-.916c-.041-.985.861-1.814 1.814-1.814 1.009 0 1.774.835 1.814 1.814l.041 1.035 3.252.104.035-.597c.064-.982.78-1.814 1.814-1.814.936 0 1.878.835 1.814 1.814l-.043.757 3.579.197c.313-.53.843-.91 1.519-.91a1.89 1.89 0 0 1 1.664 1.084l4.594.284c.003-.038.003-.073.006-.11.041-.983.797-1.814 1.814-1.814.951 0 1.858.835 1.814 1.814l-.017.385 5.139.394c.003-.012.003-.02.003-.032.075-1.014.771-1.768 1.814-1.814.168-.006.333.026.495.072v-1.658c-11.946-1.067-23.928-1.742-35.92-2.003-.71-.017-1.64.568-1.751 1.33zm49.362 19.684c1.177-.823 1.061-2.258 1.127-3.544l.559-11.193c.046-.913-.484-1.464-1.151-1.661-.154-.762-.713-1.469-1.684-1.577l-9.092-.893v3.629l3.31.325c.104-.241.229-.475.383-.698.571-.841 1.559-1.139 2.481-.652.588.31.936 1.041.896 1.722l1.214.119-.174 3.452.864-.006c2.339-.038 2.333 3.591 0 3.629l-1.046.006-.084 1.701-.125 2.449c0 .017-.003.038-.003.055-.539-.113-1.168-.104-1.823-.043l-.035.299c-.139 1.003-1.38 1.461-2.232 1.267-.707-.162-1.075-.707-1.214-1.327l-2.411.038v3.66l5.747-.157c1.359-.049 3.31.229 4.492-.597zm-83.752-16.669l1.333-1.02 2.834-2.171 4.956-3.797 4.049 4.953 2.017 2.568c.446.586.971.997.478 1.669-.554.748-1.403 1.348-2.093 1.962l-2.527 2.252-4.06 3.666-.354-.438-1.194-1.481-2.124-2.637-2.252-2.803-1.058-1.322-.527-.664-.151-.212.064-.061.609-.467zm.884 8.257l2.121 2.637c.71.878 1.38 1.936 2.243 2.666 2.058 1.73 4.057-.736 5.524-2.043l5.211-4.646c1.385-1.235 3.124-2.504 3.495-4.443.458-2.4-1.629-4.356-2.979-6.069l-4.901-6.025c-.304-.362-.765-.519-1.232-.519-.522-.661-1.637-1.038-2.359-.484l-10.86 8.318c-.788.611-1.461 1.31-1.617 2.339-.183 1.18.426 2.104 1.119 2.988l4.234 5.281zm-58.718 3.827c-1.009-.278-1.44-1.269-1.269-2.232l.133-.823-3.884-.203-.319 1.461c-.556 2.272-4.052 1.304-3.498-.962l.159-.739-2.794-.229c-.18.301-.403.574-.701.797-.513.388-1.307.284-1.832 0a1.85 1.85 0 0 1-.884-1.098c-.499-.043-2.35.02-2.649-.31-.458-.513-.081-1.727-.026-2.33l.336-3.684-.261-.043c-2.159-.458-1.411-3.591.591-3.542l.669-7.263 3.031.012.017-.226c.072-.98.771-1.814 1.814-1.814.927 0 1.887.838 1.814 1.814l-.02.269 2.466.043.014-.696c.038-2.339 3.666-2.336 3.629 0l-.014.777 4.281.13.02-.322c.038-.881.582-1.429 1.238-1.643v-1.617c-6.64-.252-13.288-.377-19.937-.365-1.049 0-1.724.832-1.814 1.814l-.951 10.309-.426 4.623c-.133 1.472-.533 3.162-.165 4.62.73 2.89 3.971 2.832 6.37 3.075 3.188.325 6.385.565 9.584.756l7.338.362v-1.556c-.391.687-1.33 1.035-2.064.835zm24.563 1.594l4.794.29c1.377.093 2.852.441 4.124-.264 2.504-1.388 2.15-5.173 2.316-7.57l.794-11.63c.084-1.209-.852-1.782-1.794-1.739.632-1.003.142-2.811-1.464-2.974a500.45 500.45 0 0 0-29.817-2.116v1.62c.559.246.974.768.939 1.577l-.029.472 6.988.348c.4-2.023 3.658-1.962 3.582.214l4.269.293.081-1.151c.116-2.327 3.747-2.333 3.629 0l-.099 1.432 4.243.348c.171-.855.803-1.548 1.751-1.548.924 0 1.89.838 1.814 1.814l-.009.072 2.658.252c.02.003.038 0 .058 0-.238.275-.4.635-.429 1.084l-.452 6.591.284.032c2.295.272 2.316 3.904 0 3.629l-.53-.058-.072 1.087-.194 2.817c-.029.429.049 1.165-.171 1.542-.365.614-1.043.301-1.791.243l-.991-.067-.07.687c-.093.803-.504 1.522-1.333 1.751-.733.2-1.701-.122-2.049-.835l-.243-.493a2.07 2.07 0 0 1-.177-1.339l-4.043-.203c-.296.559-.797.962-1.533.962-.664 0-1.406-.461-1.695-1.096l-4.747-.174-.139.571c-.327 1.151-1.255 2.09-2.55 1.753-1.038-.27-1.722-1.4-1.377-2.443l.009-.023-2.916-.099-2.663-.104v3.629l11.364.403 9.683.412zm-80.121-20.832c.243-1.035 1.443-2.11 2.182-2.811.965-.916 2.029-1.707 3.13-2.455l5.544-3.544 4.31 5.66 2.747 3.356 1.51 1.864c.183.229.519.551.794.872-.687.788-1.591 1.516-2.287 2.185l-3.049 2.817-5.417 4.397c-2.159-2.116-4.15-4.365-6.037-6.738l-2.385-2.982c-.467-.684-1.252-1.727-1.043-2.62zm8.037 16.01c.536.501 1.545.768 2.197.284l7.559-6.089 3.371-3.159c.977-.968 2.782-2.269 2.979-3.713.191-1.42-1.197-2.632-2.003-3.643l-3.188-3.913c-2.127-2.594-4.223-5.205-6.092-7.996-.101-.154-.22-.278-.345-.385-.496-.6-1.307-.864-2.136-.264-2.53 1.826-5.298 3.295-7.828 5.118-2.307 1.661-5.356 3.979-6.066 6.909-.765 3.147 1.852 5.967 3.698 8.179 2.519 3.014 4.965 5.991 7.854 8.671zm-24.389 2.258c1.31.145 1.89-1.269 1.748-2.298-1.264-9.153-.869-18.505 1.081-27.53.191-.878-.255-2.072-1.267-2.232-5.469-.878-10.981-1.301-16.52-1.209-.614.009-1.064.272-1.353.646-.525.675-.527 1.722-.003 2.379.293.365.739.612 1.356.603 4.652-.078 9.295.209 13.9.852-1.577 8.266-1.893 16.662-.977 25.023-4.307-.142-8.616.609-12.923.136-.62-.07-1.067.145-1.353.493-.499.606-.496 1.62-.003 2.336.287.414.736.73 1.356.8 4.985.548 9.97-.551 14.958 0z"/><path d="M528.863 312.575l-.342 3.475c-.041.301-.012.609.055.904.139.62.507 1.165 1.214 1.327.852.194 2.092-.264 2.232-1.267l.035-.299.417-4.156-3.611.014zm.124-3.629l3.631-.014.014-1.072.009-.53c.003-.07.07-.545.046-.484l.099-.406c-.084.168-.078.157.017-.035l.186-.287a1.51 1.51 0 0 0 .243-.762c.041-.681-.307-1.411-.896-1.722-.922-.487-1.91-.188-2.481.652a4.14 4.14 0 0 0-.383.698c-.525 1.211-.504 2.617-.487 3.962zm-7.201 3.611l-.255 3.408c-.029.394.125.777.374 1.09.351.443.898.748 1.443.725a1.82 1.82 0 0 0 1.365-.687v-4.501l-2.927-.035zm.617-8.271c0 .012 0 .02-.003.032l-.345 4.617 2.658.029v-6.42a1.61 1.61 0 0 0-.496-.072c-1.043.046-1.739.8-1.814 1.814zm-9.127 8.095c-.081 1.507-.272 3.003-1.058 4.313-.055.093-.09.183-.128.27-.788 1.895 2.116 3.478 3.26 1.562.29-.484.519-.988.71-1.507.539-1.452.733-3.002.829-4.562l-3.614-.075zm3.78-3.551l.206-4.907.017-.385c.043-.98-.864-1.814-1.814-1.814-1.017 0-1.774.832-1.814 1.814l-.006.11-.214 5.107 3.626.075zm-11.759-.411l3.617.165.287-4.489a1.56 1.56 0 0 0-.151-.73 1.89 1.89 0 0 0-1.664-1.084c-.675 0-1.206.38-1.519.91-.159.272-.281.571-.296.904l-.275 4.324zm-.275 3.617l-.455 4.637-.078.78c-.113.974.916 1.814 1.814 1.814 1.075 0 1.704-.838 1.814-1.814l.064-.626.455-4.626-3.614-.165zm-6.86-.371l-.223 4.614-.041.8c-.043.98.864 1.814 1.814 1.814 1.017 0 1.774-.832 1.814-1.814l.026-.542.229-4.649-3.62-.223zm3.811-3.397l.316-5.275.043-.756c.064-.98-.878-1.814-1.814-1.814-1.035 0-1.751.832-1.814 1.814l-.035.597-.313 5.217 3.617.217zm-6.347-.409l-.209-5.13-.041-1.035c-.041-.98-.806-1.814-1.814-1.814-.954 0-1.855.829-1.814 1.814l.035.916.203 4.991 3.64.258zm-3.495 3.383l.188 4.634.041 1.003c.038.982.803 1.817 1.814 1.817.951 0 1.855-.832 1.814-1.817l-.029-.739-.188-4.643-3.64-.255z"/><path d="M532.473 312.56l1.617-.006 1.046-.006c2.333-.038 2.339-3.666 0-3.629l-.864.006-1.655.006-3.631.014-2.823.012v3.629l2.698-.012 3.611-.014zm-10.418-3.626l-4.999-.104-3.626-.075-4.515-.171-3.617-.165-3.324-.151-3.617-.217-2.73-.191-3.64-.258-2.211-.154-.785-.055c-2.327-.194-2.313 3.437 0 3.629l.432.029 2.71.191 3.64.255 2.391.168 3.62.223 3.24.148 3.614.165 4.64.18 3.614.075 4.895.101 2.927.035v-3.588-.041l-2.658-.029zm-100.817-5.271l3.597.388.658-7.654.009-.072c.075-.977-.89-1.814-1.814-1.814-.948 0-1.58.693-1.751 1.548-.02.093-.058.174-.067.267l-.632 7.338zm-.348 3.597l-.559 5.353a1.71 1.71 0 0 0-.342.707c-.093.435-.035.91.177 1.339l.243.493c.348.713 1.316 1.035 2.049.835.829-.229 1.24-.948 1.333-1.751l.07-.687.62-5.904-3.591-.385zm-3.719-3.965l.522-7.585.099-1.432c.119-2.333-3.513-2.327-3.629 0l-.081 1.151-.522 7.57 3.611.296zm-.379 3.596l-3.6-.29-.597 5.663c-.029.255.02.496.122.719.29.635 1.032 1.096 1.695 1.096.736 0 1.238-.403 1.533-.962.136-.261.241-.542.281-.852l.565-5.373zm-7.782-.582l-3.6-.191-.304 2.423-.597 3.269a1.8 1.8 0 0 0-.597.858l-.009.023c-.345 1.043.339 2.174 1.377 2.443 1.296.336 2.223-.603 2.55-1.753l.139-.571c.458-1.794.71-3.663.936-5.492l.104-1.009zm-3.295-3.805l3.629.197.472-7.506c0-.02-.003-.038-.003-.058.075-2.177-3.182-2.237-3.582-.214-.017.09-.038.177-.043.272l-.472 7.309zm-6.472-7.93l.029-.472c.035-.809-.38-1.33-.939-1.577v9.68l.336.009.574-7.64zm-5.561 17.685l-.133.823c-.171.962.261 1.953 1.269 2.232.733.2 1.672-.148 2.064-.835v-7.118-1.568l-2.24-.049-.959 6.515zm1.961-18.157l-.02.322-.574 7.701 1.832.035v-9.7a1.74 1.74 0 0 0-1.238 1.643zm-5.24 7.961l.669.009.27-7.779.014-.777c.038-2.336-3.591-2.339-3.629 0l-.014.696-.267 7.86 2.956-.009zm-1.434 3.625a375.69 375.69 0 0 1-1.82-.006 53.23 53.23 0 0 1-1.009 6.133l-.159.739c-.554 2.266 2.942 3.234 3.498.962l.319-1.461c.446-2.101.765-4.22.985-6.35l-1.814-.017zm-4.313-3.634l.591-7.886.02-.27c.072-.977-.887-1.814-1.814-1.814-1.043 0-1.742.835-1.814 1.814l-.017.226-.577 7.715 3.611.214zm-.269 3.585l-3.62-.214-.084 1.09c-.087.959-.154 2.023-.385 2.997-.391.452-.525 1.043-.403 1.672.009.035.026.067.035.101a1.85 1.85 0 0 0 .884 1.098c.525.284 1.319.388 1.832 0 .299-.223.522-.496.701-.797.6-1 .649-2.339.794-3.487l.246-2.461z"/><path d="M405.41 306.118l3.6.191 4.182.293 3.599.29 4.098.368 3.591.385 2.6.281.53.058c2.316.275 2.295-3.356 0-3.629l-.284-.032-2.493-.272-3.597-.388-4.066-.368-3.611-.296-4.217-.299-3.629-.197-3.121-.162-3.924-.128-.336-.009v3.631l3.544.104 3.533.177zm-14.337-4.046l-.67-.009c-.985-.006-1.971.003-2.956.009a99.88 99.88 0 0 1-2.791-.017l-3.611-.214-2.75-.42c-.13-.029-.252-.041-.374-.043-2.003-.049-2.75 3.084-.591 3.542l.261.043a32.27 32.27 0 0 0 3.176.464l3.62.214 2.762.043 1.82.006 1.814.017 3.857.038 2.24.049v-3.634l-1.832-.035-3.976-.052z"/></g><g fill="#d8f2f3"><path d="M89.336 248.991v3.657 14.61 3.632 16.282 3.611 10.019 1.695 6.469.038 3.591 5.115 2.965 48.223a.65.65 0 0 0 .301.568l.3-1.585.365 1.678c.267-.081.485-.299.485-.661v-48.209-3.205-4.913-3.628-4.637-3.617-10.022-3.611-16.372-3.632-5.756-8.883-3.657-96.276-59.891c0-.073-.023-.128-.039-.189-.191-.73-1.413-.675-1.413.189v.2 107.402 48.8zm127.829-20.74v3.655 17.505 3.623 23.776 3.623 10.373 2.234 9.098 3.629 1.594 7.846.777 56.866l.714-1.994c-.244.701.109 1.997.704 3.458.012-.055.033-.101.033-.165v-58.225-.733-8.9-.545-3.626-7.727-3.628-10.448-3.623-23.855-1.096-2.527-17.543-3.658-103.95-66.786c0-.073-.023-.128-.039-.191-.191-.728-1.413-.673-1.413.191v.2 122.209 48.565z"/><path d="M39.618 460.746c.752 1.962 1.746 3.805 3.135 5.417 4.562 5.295 11.774 8.674 19.62 10.923l1.452.403c9.007 2.403 18.678 3.397 26.08 4.072a142.4 142.4 0 0 0 13.978.577l1.452-.023c12.994-.232 25.957-2.24 38.381-6.063 1.924-.591 3.909-1.235 5.91-1.003.494.058.975.18 1.45.322.491.148.975.322 1.452.519l1.15.493c10.653 4.658 21.764 8.243 33.113 10.755l4.693.974.402.078 4.216.754c4.487.751 9.002 1.333 13.532 1.745l1.452.139a180.74 180.74 0 0 0 13.78.623c5.863.043 11.6-.212 17.244-.745 3.016-.287 6.005-.655 8.971-1.11 9.696-1.484 19.143-3.878 28.478-7.225l1.452-.53a165.91 165.91 0 0 0 14.312-6.063c3.51-1.687 7.457-3.582 10.022-6.622 1.327-1.574 2.127-3.156 2.605-4.852-.165-1.023-.22-2.092-.226-3.243l-.101-15.071-.049-7.385c-.012-1.423-1.728-5.712.043-5.973-9.181 2.771-19.118 2.892-28.402.507a51.82 51.82 0 0 1-11.678-4.553c-7.93-4.275-14.607-10.497-21.187-16.65-6.483-6.063-12.747-11.532-17.639-18.94a96.42 96.42 0 0 1-6.497-11.456c-.593-1.238-2.53-4.522-3.63-7.226-.594-1.46-.948-2.756-.704-3.457l-.714 1.994c-6.013 16.67-14.598 32.628-27.036 45.229-15.291 15.488-39.739 19.082-59.318 10.025-23.238-10.749-35.427-34.581-40.509-58.544l-.365-1.678-.3 1.585c-2.963 15.587-8.335 31.197-19.15 42.761-3.534 3.776-7.951 7.547-12.705 9.695-5.136 2.321-11.566 2.252-17.177 2.988-.341.046-.683.131-.985.284-.087.043-.186.067-.263.13-.435.365-.543.982-.621 1.545a131.08 131.08 0 0 0-1.19 20.954c.102 4.359.535 8.909 2.074 12.923z"/></g><g fill="#fff"><path d="M524.712 200.191v48.516 3.654V267v3.646 16.366 3.646 10.228 1.658 6.42.041 3.588 4.501 3.573 48.232c0 .362.217.58.484.661l.365-1.678.301 1.585c.171-.116.301-.299.301-.568v-48.247-3.66-4.405-3.629-4.298-3.629-10.257-3.646-16.276-3.643-5.913-8.697-3.658-96.461-59.801-.09c0-.823-1.125-.922-1.394-.293a.75.75 0 0 0-.058.293v107.602zm-127.831-20.505v48.278 3.655 17.543 3.64 23.858 3.634 10.547 1.617 9.7 3.634 1.568 7.118 1.556 58.112c0 .064.023.11.035.165.594-1.461.948-2.756.704-3.458l.713 1.994v-56.756-3.629-6.628-3.632-9.68-1.62-10.491-3.634-23.78-1.258-2.382-17.503-3.657-104.136-66.696-.09c0-.823-1.122-.919-1.391-.296a.73.73 0 0 0-.061.296v122.409z"/><path d="M574.895 424.909c-5.611-.736-12.042-.666-17.178-2.988-4.753-2.148-9.17-5.918-12.706-9.695-10.816-11.561-16.186-27.171-19.148-42.76l-.302-1.586c-.11.56-.246 1.119-.365 1.678-5.08 23.963-17.27 47.795-40.508 58.544-19.58 9.057-44.027 5.463-59.318-10.025-12.439-12.601-21.023-28.559-27.037-45.229l-.713-1.994c.243.701-.11 1.997-.704 3.458-1.101 2.704-3.037 5.987-3.632 7.225-1.898 3.962-4.075 7.79-6.495 11.456-4.892 7.408-11.158 12.877-17.639 18.94-6.582 6.153-13.259 12.375-21.189 16.65-3.687 1.988-7.619 3.51-11.677 4.553-4.565 1.174-9.286 1.739-14.001 1.684-2.403-.029-4.805-.22-7.185-.577-1.139-.171-2.275-.377-3.403-.626-.78-.168-2.721-.925-3.747-.991-.125-.009-.241-.012-.333.003-1.771.261-.055 4.55-.043 5.973l.049 7.385.101 15.071c.006 1.151.061 2.22.229 3.231.284 1.745.904 3.324 2.203 4.863 2.562 3.04 6.512 4.936 10.022 6.622 4.269 2.052 8.616 3.93 13.027 5.649l1.452.551a205.07 205.07 0 0 0 21.734 6.906c1.194.307 2.374.577 3.55.838a106.1 106.1 0 0 0 6.457 1.203c7.396 1.156 14.662 1.559 22.476 1.797a169.5 169.5 0 0 0 14.253-.183l1.452-.093c9.451-.597 18.879-1.965 28.141-4.06 2.316-.522 4.617-1.104 6.91-1.716 7.515-2.006 14.893-4.478 22.058-7.39l1.452-.6 1.817-.751c1.098-.472 2.22-.959 3.411-1.055 1.374-.107 2.724.319 4.043.719 11.813 3.585 24.125 5.498 36.468 5.744l1.452.017c12.222.113 24.458-1.4 36.263-4.573l3.796-1.055 1.449-.429c8.704-2.623 19.821-6.993 23.067-14.54.594-1.382 1.032-2.814 1.374-4.266 1.188-5.037 1.07-10.408.916-15.517l-.319-10.462c-.046-1.539.597-5.628-.597-6.999-.049-.058-.081-.139-.136-.185-.342-.287-.809-.357-1.249-.415z"/></g></svg>