<svg xmlns="http://www.w3.org/2000/svg" width="1459" height="1459" fill="none" xmlns:v="https://vecta.io/nano"><g fill-rule="evenodd"><path d="M478.707 304.957l17.065 5.502v26.104s12.122.319 12.122 23.539v62.563l29.022 9.353-1.289 26.122-14.189 26.767v90.622l20.59 5.517 6.608 24.666-16.234 23.028v21.931l-4.356 4.352v132.708l26.229 15.144v-11.274h11.988v413.143l-162.825 18.794V871.609l-25.745-44.588v-38.083l14.608-14.608v17.757h29.563V637.135l-20.262-35.098 7.496-2.009v-19.222l19.201-11.082V483.63l-15.858-27.468 7.259-27.086 25.28-6.775v-71.969c0-12.638 12.578-14.094 12.578-14.094v-25.779l21.149-5.501v-.001z" fill="#f0ece1"/><path d="M495.261 310.83l-16.569-5.34-20.62 5.365v25.833l-.45.058c-.033.003-12.128 1.404-12.128 13.587v72.36l-25.377 6.8-7.128 26.599 15.751 27.283.073.256v86.385l-19.201 11.085v19.323l-7.234 1.936 19.93 34.524.07.252v155.462h-30.59v-17.027l-13.581 13.58v37.737l25.672 44.463.07.258v351.355l161.803-18.675V792.115h-10.964v11.645l-27.253-15.733V655.024l.149-.362 4.204-4.204V628.74l.094-.294 16.098-22.834-6.472-24.146-20.684-5.544v-91.015l.061-.237 14.137-26.669 1.264-25.615-29.006-9.346v-62.938c0-22.724-11.599-23.028-11.633-23.028l-.486-.027V310.83zm-16.399-6.358l17.423 5.617v26.012c2.319.353 12.119 3.064 12.119 24.001v62.193l29.043 9.359-1.31 26.511-.058.216-14.131 26.654v90.103l20.496 5.492 6.748 25.18-16.28 23.092v21.769l-.149.362-4.204 4.204v132.2l25.205 14.551v-10.9h13.012v414.113l-163.852 18.912v-352.37l-25.672-44.466-.07-.255v-38.296l15.63-15.633v18.481h28.542V637.27l-20.526-35.554 7.76-2.079v-19.123l19.198-11.085v-85.665l-15.894-27.529 7.389-27.578 25.189-6.748v-71.576c0-11.651 10.286-14.125 12.575-14.532v-25.737l21.535-5.602.283.01h0 0z" fill="#876f51"/><path d="M463.649 1143.795c183.533-22.399 367.753-60.406 531.702.435 10.688 3.967 12.937 53.299 10.63 65.147-148.849-31.408-400.286-23.912-551.353.146-3.076-21.523-.395-55.415 9.021-65.728z" fill="#e3e3e3"/><path d="M540.207 1134.37l-76.306 9.912c-4.237 4.769-7.079 14.493-8.614 25.675-1.763 12.845-1.79 27.584-.225 38.983 80.5-12.781 189.336-20.87 295.955-20.897 93.383-.024 185.075 6.134 254.553 20.73 1.253-7.395.973-26.864-1.583-42.527-1.788-10.949-4.654-19.991-8.815-21.535-141.049-52.344-297.186-31.454-454.965-10.341zm-76.619 8.918l76.485-9.933c157.91-21.128 314.172-42.034 455.455 10.395 4.574 1.696 7.626 11.049 9.468 22.332 2.632 16.143 2.86 36.347 1.489 43.393l-.1.511-.507-.106c-69.47-14.657-161.311-20.839-254.86-20.815-106.796.027-215.811 8.143-296.311 20.964l-.511.082-.076-.514c-1.647-11.55-1.647-26.645.152-39.776 1.578-11.48 4.541-21.487 9-26.368l.316-.164h0z" fill="#b8b6b4"/><g fill="#82796d"><path d="M382.674 835.648l-.714-1.237h135.362l.2.033 34.831 12.04-.401 1.167-34.724-12.003H382.674zm20.763 121.939v-1.237h102.139v1.237H403.438h0 0z"/><path d="M466.898 480.993l-8.347-31.153a.62.62 0 0 1 .003-.334h-15.851l10.292 31.487h13.903zm16.958 0v-31.487H459.74l.006.015 8.432 31.472h7.143.015.015 8.505 0zm19.064 0l8.438-31.487h-26.265v31.487h10.651.015.018 7.143 0zm-68.545 400.918v74.439h41.992v-74.439h-41.992 0zm43.232 74.439h8.536v-74.439h-8.536v74.439h0zm-53.007-74.439v74.439h8.538v-74.439h-8.538 0zm13.66 75.676v66.701h32.299v-66.701h-32.299 0zm-16.396-319.138v-1.24h24.074l5.173-9.186.006-.012h.003l.006-.012h0l.006-.012v-.003l.009-.012.009-.012h0l.009-.013h0l.009-.012h0l.009-.012h0l.009-.012h.003l.006-.009.003-.003.009-.009v-.003l.009-.01h.003l.009-.009.003-.003.006-.009h.003l.009-.009h.003l.009-.009.003-.003.009-.006.003-.003.009-.006.003-.003.009-.01h.003l.012-.006.012-.009h0l.012-.009h0l.012-.006h.003l.009-.006.006-.003.009-.006h.003l.009-.006.006-.003.009-.003.012-.006.006-.003.021-.006.009-.003.006-.003.009-.003h.006l.012-.006.009-.004h.006l.015-.003.009-.003h.003l.012-.003h.003l.015-.003.012-.003h.003.012.003l.012-.003h.003.012.003.012.003l.009-.003h.003.012.003l.012.003h.003.012.003.012.003l.012.003h.003.012.003l.012.003.015.003h.003l.009.003h.006l.009.003.015.003h.003l.024.01h.006l.009.003.006.003.006.003.021.006.009.003.012.006.009.003.003.003.009.006h.006l.009.006.003.003.012.006h.003l.009.006h.003l.012.009h0l.012.009.012.007h.003l.009.009.003.003.009.006.003.003.009.006.003.003.009.009h0l.012.009h0l.009.009.003.003.009.009h.003l.006.01.003.003.009.009v.003l.009.009h.003l.006.012h.003l.009.012h0l.009.012h0l.009.013h0l.009.012.006.012v.003l.009.012h0l.006.012h.003l.006.012 5.173 9.186h1.024.015.362l5.176-9.186.003-.012h.003l.006-.012h0l.009-.012v-.003l.009-.012.006-.012h.003l.006-.013h.003l.006-.012h.003l.006-.012h.003l.006-.012h.003l.009-.009v-.003l.009-.009.003-.003.009-.01h0l.009-.009.003-.003.009-.009h.003l.009-.009h0l.012-.009v-.003l.012-.006v-.003l.012-.006v-.003l.012-.009h0l.012-.007.012-.009h0l.012-.009h.003l.012-.006h0l.012-.006.003-.003.009-.006h.006l.009-.006.003-.003.009-.003.015-.006.006-.003.021-.006.006-.003.006-.003.009-.003h.006l.015-.006.009-.003h.003l.015-.003.009-.003h.006l.012-.003h.003l.015-.004.009-.003h.003.012.003l.012-.003h.003.012.003.012.003l.012-.003h.003.012.003l.012.003h.003.012.003.009.003l.012.003h.003.012.003l.012.003.015.004h.003l.012.003h.003l.012.003.012.003h.006l.024.009h.006l.006.003.006.003.009.003.021.006.006.003.012.006.009.003.006.003.009.006h.003l.012.006.003.003.009.006h.003l.012.006h0l.012.009h0l.015.01.012.006h0l.012.009v.003l.012.006v.003l.009.006.003.003.009.009h.003l.009.009h.003l.009.009v.003l.009.009h.003l.009.01.003.003.006.009.003.003.009.009h0l.009.012h0l.009.012h0l.009.013h0l.009.012h0l.009.012.009.012v.003l.006.012h.003l.006.012h0l.006.013 5.173 9.185h.362.018 1.024l5.173-9.185.006-.013h0l.006-.012h.003l.006-.012v-.003l.009-.012.009-.012h0l.009-.012h0l.009-.013h0l.009-.012h0l.009-.012h0l.009-.009.003-.003.006-.009.003-.003.009-.01h.003l.006-.009.003-.003.009-.009h.003l.009-.009h.003l.009-.009.003-.003.009-.006v-.003l.012-.006v-.003l.012-.009h0l.012-.006.015-.01h0l.012-.009h0l.012-.006h.003l.009-.006.003-.003.012-.006h.003l.009-.006.006-.003.009-.003.012-.006.006-.003.021-.006.009-.003.006-.003.006-.003h.006l.015-.006.009-.003h.006l.012-.003.012-.003h.003l.012-.003h.003l.015-.003.012-.004h.003.012.003l.009-.003h.003.012.003.012.003l.012-.003h.003.012.003l.012.003h.003.012.003.012.003l.012.003h.003.012.003l.009.004.015.003h.003l.012.003h.006l.009.003.015.003h.003l.024.009h.006l.009.003.006.003.006.003.021.006.006.003.015.006.009.003.003.003.009.006h.006l.009.006.003.003.012.006h0l.012.006h.003l.012.009h0l.012.01.012.006h0l.012.009v.003l.012.006v.003l.012.006v.003l.012.009h0l.009.009h.003l.009.009.003.003.009.01h0l.009.009.003.003.009.009v.003l.009.009h0l.009.012h.003l.006.012h.003l.006.013h.003l.006.012h.003l.006.012.009.012v.003l.009.012h0l.006.012h.003l.003.013 5.177 9.185h1.024.015.362l5.174-9.185.006-.013h0l.009-.012h0l.006-.012v-.003l.009-.012.009-.012h0l.009-.012h0l.009-.013h0l.009-.012h0l.01-.012h.003l.006-.009.003-.003.009-.009.003-.003.006-.009h.003l.009-.01.003-.003.006-.009h.003l.009-.009h.003l.009-.009.003-.003.01-.006.003-.003.009-.006.003-.003.009-.009h.003l.012-.006.012-.01h0l.012-.009h.003l.01-.006h.003l.009-.006.006-.003.009-.006h.003l.009-.006.006-.003.009-.003.012-.006.006-.003.022-.006.009-.003.006-.003.009-.003h.006l.012-.006.009-.003h.007l.015-.003.009-.003h.006l.009-.003h.003l.015-.003.012-.003h.003.013.003l.012-.003h.003.012.003.012.003l.012-.004h0 .013.003l.012.004h.003.012.003.012.003l.012.003h.003.013.003l.012.003.015.003h.003l.009.003h.006l.009.003.015.003h.004l.024.009h.006l.009.003.006.003.006.003.021.006.01.003.012.006.009.003.006.003.006.006h.006l.009.006.003.003.012.006h0l.013.006h.003l.012.01h0l.012.009.012.006h0l.012.009.003.003.009.006.003.003.01.006.003.003.009.009h0l.012.009h0l.009.009.003.004.009.009h.003l.006.009.003.003.009.009.003.003.007.009h.003l.006.012h.003l.009.012h0l.009.013h0l.009.012h0l.009.012.006.012.003.003.006.012h0l.006.013h.003l.007.012 5.173 9.185h.362.015 1.027l5.174-9.185.006-.012h0l.006-.013h0l.009-.012v-.003l.009-.012.006-.012h0l.009-.012h.003l.006-.013h.003l.006-.012h.003l.009-.012h0l.01-.009v-.003l.009-.009.003-.003.009-.009h0l.009-.009.003-.004.009-.009h.003l.009-.009h0l.013-.009v-.003l.012-.006v-.003l.012-.006v-.003l.012-.009h0l.012-.006.012-.009h.003l.01-.01h.003l.012-.006h0l.012-.006.003-.003.009-.006h.006l.009-.006.003-.003.01-.003.015-.006.006-.003.021-.006.006-.003.006-.003.009-.003h.006l.016-.006.009-.003h.006l.012-.003.009-.003h.006l.012-.003h.003l.015-.003.01-.003h.003.012.003l.012-.003h.003.012.003.012.003l.013-.003h.003.012.003l.012.003h.003.012.003.012.003l.01.003h.003.012.003l.012.003.015.003h.003l.012.003h.003l.013.003.012.003h.006l.024.009h.006l.006.003.006.003.009.003.022.006.006.003.015.006.006.003.006.003.009.006h.003l.012.006.003.003.01.006h.003l.012.006h0l.012.01h0l.015.009.012.006h0l.012.009v.003l.013.006v.003l.009.006.003.003.009.009h.003l.009.009h.003l.009.01.003.003.006.009h.003l.01.009.003.003.006.009.003.003.009.009h0l.009.012h0l.009.013h0l.009.012h.003l.006.012h0l.009.012.01.012v.003l.006.012h.003l.006.013h0l.006.012 5.173 9.185h1.024.019.361l5.174-9.185.006-.012h0l.006-.013h.003l.006-.012v-.003l.009-.012.009-.012h0l.009-.012h0l.01-.012h0l.009-.013h0l.009-.012h0l.009-.009.003-.003.006-.009.003-.003.009-.009h.003l.006-.009.003-.003.009-.01h.003l.01-.009h.003l.009-.009v-.003l.012-.006v-.003l.012-.006v-.003l.012-.009h0l.012-.006.013-.009h.003l.012-.01h0l.012-.006h.003l.009-.006.003-.003.012-.006h.003l.01-.006.006-.003.009-.003.012-.006.006-.003.021-.006.009-.003.006-.003.006-.003h.007l.015-.006.009-.003h.006l.012-.003.012-.003h.003l.012-.003h.004l.015-.003.009-.003h.006.009.006l.009-.003h.003.012.003.013.003l.012-.003h.003.012.003l.012.003h.003.012.003.013.003l.012.003h.003.012.003l.009.003.015.003h.003l.013.003h.003l.012.003.015.003h.003l.024.009h.006l.01.003.006.003.006.003.021.006.006.003.015.006.009.003.003.003.009.006h.007l.009.006.003.003.012.006h0l.012.007h0l.015.009h0l.012.009.013.006h0l.012.009v.003l.012.006v.003l.012.006v.003l.012.009h0l.009.009h.003l.01.01.003.003.006.009h.003l.009.009.003.003.009.009v.003l.009.009h0l.009.012h.003l.006.013h.003l.01.012h0l.006.012h.003l.006.012.009.012v.003l.009.012h0l.006.013h.003l.006.012 5.17 9.185h10.055a.62.62 0 1 1 0 1.241h-10.413a.63.63 0 0 1-.541-.317l-4.818-8.559-4.818 8.559c-.112.201-.322.314-.538.314l-.714.003h-.027-1.061-.015-.307c-.219-.003-.429-.116-.541-.317l-4.818-8.559-4.818 8.559c-.115.201-.325.314-.541.314h-.295l-.027.003h-1.064-.015-.724c-.215-.003-.425-.116-.538-.317l-4.82-8.559-4.818 8.559c-.113.201-.322.314-.538.314l-.715.003h-.024-1.064-.015-.307c-.216-.003-.425-.116-.541-.317l-4.818-8.559-4.818 8.559a.62.62 0 0 1-.538.314h-.298l-.027.003h-1.061-.018-.723c-.216-.003-.425-.116-.538-.317l-4.818-8.559-4.818 8.559c-.115.201-.325.314-.541.314l-.714.003h-.024-1.061-.018-.307c-.216-.003-.425-.116-.538-.317l-4.821-8.559-4.818 8.559c-.113.201-.322.314-.538.314l-24.435.003.001-.001zm-39.189 197.199l-.714-1.237h135.362c.067 0 .133.012.2.034l34.831 12.039a.62.62 0 0 1 .383.785.62.62 0 0 1-.784.383l-34.725-12.004H382.674h0zm20.502 35.509l-.714-1.237h7.119l12.271-18.195.009-.016.003-.006.006-.006.003-.006.012-.015v-.003l.009-.009v-.003l.009-.009.003-.003.006-.009.009-.01h.003v-.003l.009-.009.003-.003.009-.009h0l.009-.009.003-.003h0l.012-.009.009-.009.003-.003.009-.006.003-.003.009-.007.003-.003.012-.009.009-.006.006-.003.006-.006.006-.003.006-.003.006-.006.006-.003.009-.003.006-.003.006-.006.006-.003.009-.003.003-.003.009-.003.006-.003.009-.006h.003l.012-.006h.003l.012-.003v-.003l.012-.003h.003l.012-.006h.003l.012-.004h0l.015-.006h0l.012-.003h.003l.012-.003h0l.015-.003h0l.015-.003h0l.015-.003h.015 0l.015-.003h.012.003l.012-.003h.015 0 .015.015 0 .015l.015.003h0 .015l.015.003h0 .015l.012.003h0l.015.003h0l.015.003h0l.015.003h0l.012.003h.003l.012.006h.003l.012.004h0l.012.006h.003l.012.003.003.003.012.003h.003l.009.006h.003l.012.006.003.003.009.003.003.003.009.003.006.003.009.006.006.003.006.003.006.003.006.006.009.003.006.003.006.006.006.003.006.006.012.009.006.003.009.007.003.003.009.006v.003l.009.009.012.009h0l.003.003.009.009h.003l.009.009v.003l.009.009.003.003h0l.009.01.009.009v.003l.009.009.003.003.006.009.003.003.009.015.006.006.003.006.006.006.006.016 12.274 18.195h1.374.015 2.474.015.41l12.271-18.195.006-.016.006-.006.003-.006.006-.006.009-.015.003-.003.006-.009.003-.003.009-.009v-.003l.009-.009.009-.01h0l.003-.003.009-.009v-.003l.012-.009h0l.009-.009.003-.003h0l.012-.009.009-.009.003-.003.009-.006.003-.003.006-.007.006-.003.012-.009.009-.006.003-.003.009-.006.003-.003.009-.003.006-.006.006-.003.009-.003.006-.003.006-.006.006-.003.009-.003.003-.003.009-.003.006-.003.009-.006h.003l.012-.006h.003l.009-.003.003-.003.012-.003h.003l.012-.006h0l.015-.004h0l.012-.006h.003l.012-.003h0l.015-.003h0l.015-.003h0l.015-.003h0l.015-.003h.012 0l.015-.003h.015 0l.015-.003h.015 0 .015.015 0 .015l.015.003h0 .012l.015.003h0 .015l.015.003h0l.015.003h0l.015.003h0l.012.003h.003l.012.003h0l.015.006h0l.012.004h.003l.012.006h.003l.012.003.003.003.009.003h.003l.012.006h.003l.009.006.006.003.009.003.003.003.009.003.006.003.006.006.006.003.009.003.006.003.006.006.006.003.006.003.009.006.003.003.009.006.012.009.003.003.009.007.003.003.009.006.003.003.009.009.012.009h0l.003.003.009.009h0l.009.009.003.003.009.009v.003h.003l.009.01.009.009v.003l.009.009v.003l.009.009.003.003.009.015.006.006.003.006.003.006.009.016 12.271 18.195h.41.015 2.471.018 1.374l12.274-18.195.006-.016.006-.006.003-.006.006-.006.009-.015.003-.003.006-.009.003-.003.006-.009.003-.003.009-.009.009-.01h0l.003-.003.009-.009v-.003l.009-.009h.003l.009-.009.003-.003h0l.009-.009.009-.009.003-.003.009-.006.003-.003.009-.007.003-.003.015-.009.006-.006.006-.003.006-.006.006-.003.009-.003.006-.006.006-.003.006-.003.006-.003.009-.006.006-.003.006-.003.006-.003.009-.003.003-.003.009-.006h.006l.009-.006h.003l.012-.003.003-.003.012-.003h0l.015-.006h0l.012-.004h.003l.012-.006h0l.015-.003h0l.015-.003h0l.013-.003h.003l.012-.003h0l.015-.003h.015 0l.015-.003h.016 0l.015-.003h.015 0 .015.012.003.013l.015.003h0 .015l.015.003h0 .015l.016.003h0l.015.003h0l.012.003h.003l.012.003h0l.015.003h0l.016.006h0l.012.004h.003l.012.006h.003l.009.003.003.003.012.003h.003l.012.006h.004l.009.006.003.003.009.003.006.003.009.003.003.003.009.006.006.003.006.003.009.003.006.006.007.003.006.003.006.006.006.003.009.006.012.009.003.003.009.007.003.003.009.006.003.003.01.009.009.009h.003v.003l.009.009h.003l.009.009.003.003.009.009v.003h0l.009.01.009.009.003.003.006.009.003.003.006.009.004.003.009.015.006.006.003.006.006.006.009.016 12.271 18.195h1.377.015 2.471.018.408l12.27-18.195.01-.016.006-.006.003-.006.006-.006.009-.015.003-.003.006-.009.003-.003.006-.009.003-.003.006-.009.009-.01h.003v-.003l.009-.009.003-.003.01-.009h.003l.009-.009v-.003h.003l.009-.009.009-.009.003-.003.009-.006.003-.003.009-.007.003-.003.013-.009.009-.006.006-.003.006-.006.006-.003.006-.003.006-.006.006-.003.009-.003.006-.003.006-.006.006-.003.009-.003.004-.003.012-.003.003-.003.009-.006h.003l.012-.006h.003l.012-.003.003-.003.009-.003h.003l.013-.006h.003l.012-.004h0l.015-.006h0l.015-.003h0l.012-.003h0l.016-.003h0l.015-.003h0l.015-.003h.015 0l.015-.003h.016 0l.015-.003h.012 0 .015.015 0 .016l.015.003h0 .015l.015.003h0 .015l.016.003h0l.012.003h0l.015.003h0l.015.003h0l.015.003h0l.012.006h.003l.013.004h.003l.009.006h.003l.012.003.003.003.012.003h.003l.009.006h.003l.013.006.003.003.009.003.006.003.009.003.003.003.009.006.006.003.006.003.006.003.006.006.009.003.007.003.006.006.006.003.006.006.015.009.003.003.009.007.003.003.009.006.003.003.009.009.01.009h0l.003.003.009.009h.003l.009.009v.003l.009.009.003.003h0l.009.01.009.009.003.003.006.009.003.003.007.009.003.003.009.015.006.006.003.006.006.006.006.016 12.274 18.195h.407.015 2.475.015 1.374l12.286-18.217a.62.62 0 0 1 .86-.167.62.62 0 0 1 .167.857l-12.471 18.49a.61.61 0 0 1-.511.274h-1.696-.025-2.474-.015-.736a.61.61 0 0 1-.513-.274l-11.958-17.727-11.955 17.727c-.118.179-.316.274-.513.274h-.724-.03-2.471-.016-1.705c-.197 0-.395-.095-.514-.274l-11.954-17.727-11.958 17.727a.61.61 0 0 1-.514.274h-1.693-.027-2.471-.015-.739a.62.62 0 0 1-.514-.274l-11.955-17.727-11.958 17.727a.61.61 0 0 1-.514.274h-.723-.027-2.474-.015-1.702a.61.61 0 0 1-.514-.274l-11.958-17.727-11.955 17.727a.62.62 0 0 1-.514.274h-6.733.001zm.261 154.371v-1.24h33.581v-66.701h-3.261-.018-9.757a.62.62 0 0 1-.62-.617v-75.059h-19.924v-1.241h20.526 9.775.018 43.229.015 9.757.018 38.581a.62.62 0 1 1 0 1.241h-37.979v75.059a.62.62 0 0 1-.62.617h-9.757-.015-5.189v66.701h24.32a.62.62 0 1 1 0 1.24h-24.922-.018-33.539-.015-34.186 0zm0 59.05v-1.24h68.172c.34 0 .62.28.62.62a.62.62 0 0 1-.62.62h-68.172 0zm124.607-316.676v1.237H421.864v-1.237h106.181 0zm0-20.104v1.237h-6.829a.62.62 0 0 1-.542-.316l-4.817-8.556-4.818 8.556a.61.61 0 0 1-.538.316h-.714-.028-1.061-.015-.307c-.219 0-.428-.112-.541-.316l-4.818-8.556-4.817 8.556a.62.62 0 0 1-.541.316h-.295-.028-1.063-.016-.723a.61.61 0 0 1-.538-.316l-4.821-8.556-4.817 8.556c-.113.204-.323.316-.539.316h-.714-.024-1.064-.015-.307a.62.62 0 0 1-.541-.316l-4.818-8.556-4.818 8.556c-.113.204-.325.316-.538.316h-.298-.027-1.061-.018-.723a.61.61 0 0 1-.538-.316l-4.818-8.556-4.818 8.556a.62.62 0 0 1-.541.316h-.714-.024-1.061-.018-.307a.61.61 0 0 1-.538-.316l-4.821-8.556-4.818 8.556a.61.61 0 0 1-.538.316h-24.435v-1.237h24.074l5.173-9.185.006-.013.003-.003.006-.009v-.003l.006-.012h0l.009-.012.009-.012h0l.009-.012v-.003l.009-.01v-.003l.009-.009v-.003l.009-.009.003-.003.006-.009h.003l.009-.009v-.003l.009-.009.003-.004.009-.006.003-.003.006-.009.003-.003.009-.006.003-.003.009-.006.003-.003.009-.009h.003l.009-.009h.003l.009-.009h.003l.012-.009.012-.007v-.003l.012-.006h0l.012-.006.003-.003.009-.006h.006l.009-.006.003-.003.009-.003.006-.003.009-.003.012-.006.006-.003.021-.009.009-.003h.006l.009-.003.006-.003.012-.003.009-.003h.006l.015-.003.009-.003.003-.003h.012.003l.015-.003.012-.003h.003.012.003l.012-.003h.003.012.003l.012-.003h.003.009.003.012.003.012.003l.012.003h.003.012.003l.012.003h.003.012.003l.012.003.015.003h.003.009l.006.003.009.003.015.003h.003l.024.006.006.003.009.003h.006l.006.003.021.009.009.003.012.006.009.003.003.003.009.003.006.003.009.006h.003l.012.006.003.003.009.006h.003l.012.006v.003l.012.007.012.009h.003l.009.009h.003l.009.009h.003l.009.009.003.003.009.006v.003l.012.006v.003l.009.009.003.003.009.006.003.004.006.009.003.003.009.009h0l.009.009.003.003.006.009.003.003.009.009v.003l.009.01v.003l.009.012h0l.009.012.006.012h0l.009.012v.003l.006.009.003.003.006.013 5.173 9.185h1.024.015.362l5.176-9.185.003-.013.003-.003.006-.009v-.003l.009-.012h0l.009-.012.006-.012h.003l.006-.012.003-.003.006-.01.003-.003.006-.009.003-.003.006-.009.003-.003.009-.009h0l.009-.009.003-.003.009-.009v-.004l.009-.006.003-.003.009-.009.003-.003.009-.006v-.003l.012-.006v-.003l.012-.009h0l.012-.009h0l.012-.009h0l.012-.009.012-.007v-.003l.012-.006h.003l.012-.006v-.003l.012-.006h.003l.009-.006.006-.003.009-.003.003-.003.009-.003.015-.006.006-.003.021-.009.006-.003h.006l.009-.003.006-.003.015-.003.009-.003h.003l.015-.003.009-.003.006-.003h.012.003l.015-.003.009-.003h.003.012.003l.012-.003h.003.012.003l.012-.003h.003.012.003.012.003.012.003l.012.003h.003.009.003l.012.003h.003.012.003l.012.003.015.003h.003.012l.003.003.012.003.012.003h.006l.024.006.006.003.006.003h.006l.009.003.021.009.006.003.012.006.009.003.006.003.009.003.003.003.012.006h.003l.009.006.003.003.012.006h0l.012.006v.003l.015.007.012.009h0l.012.009h0l.012.009h0l.009.009.003.003.009.006.003.003.009.006.003.003.009.009v.003l.009.006.003.004.009.009.003.003.006.009h.003l.009.009v.003l.009.009v.003l.009.009v.003l.009.01v.003l.009.012h0l.009.012.009.012h0l.006.012.003.003.006.009v.003l.006.013 5.173 9.185h.362.018 1.024l5.173-9.185.006-.013v-.003l.006-.009.003-.003.006-.012h0l.009-.012.009-.012h0l.009-.012v-.003l.009-.01v-.003l.009-.009v-.003l.009-.009v-.003l.009-.009h.003l.006-.009.003-.003.009-.009.003-.004.006-.006.003-.003.009-.009.003-.003.009-.006.003-.003.009-.006.003-.003.009-.009h0l.012-.009h0l.012-.009h0l.012-.009.015-.007v-.003l.012-.006h0l.012-.006.003-.003.009-.006h.003l.012-.006.003-.003.009-.003.006-.003.009-.003.012-.006.006-.003.021-.009.009-.003h.006l.006-.003.006-.003.015-.003.009-.003h.006l.012-.003.012-.003.003-.003h.012.003l.015-.003.012-.003h.003.012.003l.009-.003h.003.012.003l.012-.003h.003.012.003.012.003.012.003l.012.003h.003.012.003l.012.003h.003.012.003l.009.003.015.003h.003.012l.006.003.009.003.015.003h.003l.024.006.006.003.009.003h.006l.006.003.021.009.006.003.015.006.009.003.003.003.009.003.006.003.009.006h.003l.012.006v.003l.012.006h.003l.012.006v.003l.012.007.012.009h0l.012.009h0l.012.009h0l.012.009v.003l.012.006v.003l.009.006.003.003.009.009.003.003.009.006v.004l.009.009.003.003.009.009h0l.009.009v.003l.009.009.003.003.006.009.003.003.006.01.003.003.006.012h.003l.006.012.009.012h0l.009.012v.003l.006.009.003.003.003.013 5.177 9.185h1.024.015.362l5.174-9.185.006-.013v-.003l.009-.009v-.003l.006-.012h0l.009-.012.009-.012h0l.009-.012v-.003l.009-.01v-.003l.009-.009v-.003l.01-.009.003-.003.006-.009h.003l.009-.009.003-.003.006-.009.003-.004.009-.006.003-.003.006-.009.003-.003.009-.006.003-.003.009-.006.003-.003.01-.009h.003l.009-.009h.003l.009-.009h.003l.012-.009.012-.007v-.003l.012-.006h.003l.01-.006.003-.003.009-.006h.006l.009-.006.003-.003.009-.003.006-.003.009-.003.012-.006.006-.003.022-.009.009-.003h.006l.009-.003.006-.003.012-.003.009-.003h.006l.016-.003.009-.003.006-.003h.009.003l.015-.003.012-.003h.003.013.003l.012-.003h.003.012.003l.012-.003h.003.012 0 .013.003.012.003l.012.003h.003.012.003l.012.003h.003.013.003l.012.003.015.003h.003.009l.006.003.009.003.015.003h.003l.025.006.006.003.009.003h.006l.006.003.021.009.01.003.012.006.009.003.006.003.006.003.006.003.009.006h.003l.012.006v.003l.013.006h.003l.012.006v.003l.012.007.012.009h0l.012.009h.003l.009.009h.003l.01.009.003.003.009.006v.003l.012.006v.003l.009.009.003.003.009.006.003.004.006.009.003.003.009.009h.003l.007.009.003.003.006.009.003.003.009.009v.003l.009.01v.003l.009.012h0l.009.012.006.012h.003l.006.012v.003l.006.009.003.003.007.013 5.173 9.185h.362.015 1.027l5.174-9.185.006-.013v-.003l.006-.009v-.003l.009-.012h0l.009-.012.006-.012h0l.009-.012.003-.003.006-.01.003-.003.006-.009.003-.003.009-.009v-.003l.01-.009h0l.009-.009.003-.003.009-.009v-.004l.009-.006.003-.003.009-.009.003-.003.009-.006v-.003l.013-.006v-.003l.012-.009h0l.012-.009h0l.012-.009h0l.012-.009.012-.007.003-.003.01-.006h.003l.012-.006v-.003l.012-.006h.003l.009-.006.006-.003.009-.003.003-.003.01-.003.015-.006.006-.003.021-.009.006-.003h.006l.009-.003.006-.003.016-.003.009-.003h.006l.012-.003.009-.003.006-.003h.012.003l.015-.003.01-.003h.003.012.003l.012-.003h.003.012.003l.012-.003h.003.013.003.012.003.012.003l.012.003h.003.012.003l.01.003h.003.012.003l.012.003.015.003h.003.012l.003.003.013.003.012.003h.006l.024.006.006.003.006.003h.006l.009.003.022.009.006.003.015.006.006.003.006.003.009.003.003.003.012.006h.003l.01.006.003.003.012.006h0l.012.006v.003l.015.007.012.009h0l.012.009h0l.013.009h0l.009.009.003.003.009.006.003.003.009.006.003.003.009.009.003.003.006.006.003.004.01.009.003.003.006.009h.003l.009.009v.003l.009.009v.003l.009.009v.003l.009.01.003.003.006.012h0l.009.012.01.012h0l.006.012.003.003.006.009v.003l.006.013 5.173 9.185h1.024.019.361l5.174-9.185.006-.013v-.003l.006-.009.003-.003.006-.012h0l.009-.012.009-.012h0l.009-.012v-.003l.01-.01v-.003l.009-.009v-.003l.009-.009v-.003l.009-.009h.003l.006-.009.003-.003.009-.009.003-.004.006-.006.003-.003.009-.009.003-.003.01-.006.003-.003.009-.006v-.003l.012-.009h0l.012-.009h0l.012-.009h0l.012-.009.013-.007.003-.003.012-.006h0l.012-.006.003-.003.009-.006h.003l.012-.006.003-.003.01-.003.006-.003.009-.003.012-.006.006-.003.021-.009.009-.003h.006l.006-.003.007-.003.015-.003.009-.003h.006l.012-.003.012-.003.003-.003h.012.003l.016-.003.009-.003h.006.009.006l.009-.003h.003.012.003l.013-.003h.003.012.003.012.003.012.003l.012.003h.003.013.003l.012.003h.003.012.003l.009.003.015.003h.003.013l.003.003.012.003.015.003h.003l.024.006.006.003.01.003h.006l.006.003.021.009.006.003.015.006.009.003.003.003.009.003.007.003.009.006h.003l.012.006v.003l.012.006h0l.015.006v.003l.012.007.013.009h0l.012.009h0l.012.009h0l.012.009v.003l.012.006v.003l.009.006.003.003.01.009.003.003.006.006.003.004.009.009.003.003.009.009h0l.009.009v.003l.009.009.003.003.006.009.003.003.01.01v.003l.006.012h.003l.006.012.009.012h0l.009.012v.003l.006.009.003.003.006.013 5.17 9.185h6.472 0zm0-14.511v1.237h-6.829a.62.62 0 0 1-.542-.316l-4.817-8.556-4.818 8.556a.61.61 0 0 1-.538.316h-.714-.028-1.061-.015-.307c-.219 0-.428-.112-.541-.316l-4.818-8.556-4.817 8.556a.62.62 0 0 1-.541.316h-.295-.028-1.063-.016-.723a.61.61 0 0 1-.538-.316l-4.821-8.556-4.817 8.556c-.113.204-.323.316-.539.316h-.714-.024-1.064-.015-.307a.62.62 0 0 1-.541-.316l-4.818-8.556-4.818 8.556c-.113.204-.325.316-.538.316h-.298-.027-1.061-.018-.723a.61.61 0 0 1-.538-.316l-4.818-8.556-4.818 8.556a.62.62 0 0 1-.541.316h-.714-.024-1.061-.018-.307a.61.61 0 0 1-.538-.316l-4.821-8.556-4.818 8.556a.61.61 0 0 1-.538.316h-24.435v-1.237h24.074l5.173-9.185.006-.013h.003l.006-.012v-.003l.006-.012h0l.009-.012.009-.012h0l.009-.012v-.003l.009-.01v-.003l.009-.009v-.003l.009-.009.003-.003.006-.009h.003l.009-.009v-.003l.009-.009.003-.003.009-.006.003-.004.006-.009.003-.003.009-.006.003-.003.009-.006.003-.003.009-.009h.003l.009-.009h.003l.009-.009h.003l.012-.009.012-.006v-.004l.012-.006h0l.012-.006.003-.003.009-.006h.006l.009-.006.003-.003.009-.003.006-.003.009-.003.012-.006.006-.003.021-.009.009-.003h.006l.009-.003.006-.003.012-.003.009-.003h.006l.015-.003.009-.003.003-.003h.012.003l.015-.003.012-.003h.003.012.003l.012-.003h.003.012.003l.012-.003h.003.009.003.012.003.012.003l.012.003h.003.012.003l.012.003h.003.012.003l.012.003.015.003h.003.009l.006.003.009.003.015.003h.003l.024.006.006.003.009.003h.006l.006.003.021.009.009.003.012.006.009.003.003.003.009.003.006.003.009.006h.003l.012.006.003.003.009.006h.003l.012.006v.004l.012.006.012.009h.003l.009.009h.003l.009.009h.003l.009.009.003.003.009.006v.003l.012.006v.003l.009.009.003.004.009.006.003.003.006.009.003.003.009.009h0l.009.009.003.003.006.009.003.003.009.009v.003l.009.01v.003l.009.012h0l.009.012.006.012h0l.009.012v.003l.006.012h.003l.006.013 5.173 9.185h1.024.015.362l5.176-9.185.003-.013h.003l.006-.012v-.003l.009-.012h0l.009-.012.006-.012h.003l.006-.012.003-.003.006-.01.003-.003.006-.009.003-.003.006-.009.003-.003.009-.009h0l.009-.009.003-.003.009-.009v-.003l.009-.006.003-.004.009-.009.003-.003.009-.006v-.003l.012-.006v-.003l.012-.009h0l.012-.009h0l.012-.009h0l.012-.009.012-.006v-.004l.012-.006h.003l.012-.006v-.003l.012-.006h.003l.009-.006.006-.003.009-.003.003-.003.009-.003.015-.006.006-.003.021-.009.006-.003h.006l.009-.003.006-.003.015-.003.009-.003h.003l.015-.003.009-.003.006-.003h.012.003l.015-.003.009-.003h.003.012.003l.012-.003h.003.012.003l.012-.003h.003.012.003.012.003.012.003l.012.003h.003.009.003l.012.003h.003.012.003l.012.003.015.003h.003.012l.003.003.012.003.012.003h.006l.024.006.006.003.006.003h.006l.009.003.021.009.006.003.012.006.009.003.006.003.009.003.003.003.012.006h.003l.009.006.003.003.012.006h0l.012.006v.004l.015.006.012.009h0l.012.009h0l.012.009h0l.009.009.003.003.009.006.003.003.009.006.003.003.009.009v.004l.009.006.003.003.009.009.003.003.006.009h.003l.009.009v.003l.009.009v.003l.009.009v.003l.009.01v.003l.009.012h0l.009.012.009.012h0l.006.012.003.003.006.012h0l.006.013 5.173 9.185h.362.018 1.024l5.173-9.185.006-.013h0l.006-.012.003-.003.006-.012h0l.009-.012.009-.012h0l.009-.012v-.003l.009-.01v-.003l.009-.009v-.003l.009-.009v-.003l.009-.009h.003l.006-.009.003-.003.009-.009.003-.003.006-.006.003-.004.009-.009.003-.003.009-.006.003-.003.009-.006.003-.003.009-.009h0l.012-.009h0l.012-.009h0l.012-.009.015-.006v-.004l.012-.006h0l.012-.006.003-.003.009-.006h.003l.012-.006.003-.003.009-.003.006-.003.009-.003.012-.006.006-.003.021-.009.009-.003h.006l.006-.003.006-.003.015-.003.009-.003h.006l.012-.003.012-.003.003-.003h.012.003l.015-.003.012-.003h.003.012.003l.009-.003h.003.012.003l.012-.003h.003.012.003.012.003.012.003l.012.003h.003.012.003l.012.003h.003.012.003l.009.003.015.003h.003.012l.006.003.009.003.015.003h.003l.024.006.006.003.009.003h.006l.006.003.021.009.006.003.015.006.009.003.003.003.009.003.006.003.009.006h.003l.012.006v.003l.012.006h.003l.012.006v.004l.012.006.012.009h0l.012.009h0l.012.009h0l.012.009v.003l.012.006v.003l.009.006.003.003.009.009.003.004.009.006v.003l.009.009.003.003.009.009h0l.009.009v.003l.009.009.003.003.006.009.003.003.006.01.003.003.006.012h.003l.006.012.009.012h0l.009.012v.003l.006.012h.003l.003.013 5.177 9.185h1.024.015.362l5.174-9.185.006-.013h0l.009-.012v-.003l.006-.012h0l.009-.012.009-.012h0l.009-.012v-.003l.009-.01v-.003l.009-.009v-.003l.01-.009.003-.003.006-.009h.003l.009-.009.003-.003.006-.009.003-.003.009-.006.003-.004.006-.009.003-.003.009-.006.003-.003.009-.006.003-.003.01-.009h.003l.009-.009h.003l.009-.009h.003l.012-.009.012-.006v-.004l.012-.006h.003l.01-.006.003-.003.009-.006h.006l.009-.006.003-.003.009-.003.006-.003.009-.003.012-.006.006-.003.022-.009.009-.003h.006l.009-.003.006-.003.012-.003.009-.003h.006l.016-.003.009-.003.006-.003h.009.003l.015-.003.012-.003h.003.013.003l.012-.003h.003.012.003l.012-.003h.003.012 0 .013.003.012.003l.012.003h.003.012.003l.012.003h.003.013.003l.012.003.015.003h.003.009l.006.003.009.003.015.003h.003l.025.006.006.003.009.003h.006l.006.003.021.009.01.003.012.006.009.003.006.003.006.003.006.003.009.006h.003l.012.006v.003l.013.006h.003l.012.006v.004l.012.006.012.009h0l.012.009h.003l.009.009h.003l.01.009.003.003.009.006v.003l.012.006v.003l.009.009.003.004.009.006.003.003.006.009.003.003.009.009h.003l.007.009.003.003.006.009.003.003.009.009v.003l.009.01v.003l.009.012h0l.009.012.006.012h.003l.006.012v.003l.006.012h.003l.007.013 5.173 9.185h.362.015 1.027l5.174-9.185.006-.013h0l.006-.012v-.003l.009-.012h0l.009-.012.006-.012h0l.009-.012.003-.003.006-.01.003-.003.006-.009.003-.003.009-.009v-.003l.01-.009h0l.009-.009.003-.003.009-.009v-.003l.009-.006.003-.004.009-.009.003-.003.009-.006v-.003l.013-.006v-.003l.012-.009h0l.012-.009h0l.012-.009h0l.012-.009.012-.006.003-.004.01-.006h.003l.012-.006v-.003l.012-.006h.003l.009-.006.006-.003.009-.003.003-.003.01-.003.015-.006.006-.003.021-.009.006-.003h.006l.009-.003.006-.003.016-.003.009-.003h.006l.012-.003.009-.003.006-.003h.012.003l.015-.003.01-.003h.003.012.003l.012-.003h.003.012.003l.012-.003h.003.013.003.012.003.012.003l.012.003h.003.012.003l.01.003h.003.012.003l.012.003.015.003h.003.012l.003.003.013.003.012.003h.006l.024.006.006.003.006.003h.006l.009.003.022.009.006.003.015.006.006.003.006.003.009.003.003.003.012.006h.003l.01.006.003.003.012.006h0l.012.006v.004l.015.006.012.009h0l.012.009h0l.013.009h0l.009.009.003.003.009.006.003.003.009.006.003.003.009.009.003.004.006.006.003.003.01.009.003.003.006.009h.003l.009.009v.003l.009.009v.003l.009.009v.003l.009.01.003.003.006.012h0l.009.012.01.012h0l.006.012.003.003.006.012h0l.006.013 5.173 9.185h1.024.019.361l5.174-9.185.006-.013h0l.006-.012.003-.003.006-.012h0l.009-.012.009-.012h0l.009-.012v-.003l.01-.01v-.003l.009-.009v-.003l.009-.009v-.003l.009-.009h.003l.006-.009.003-.003.009-.009.003-.003.006-.006.003-.004.009-.009.003-.003.01-.006.003-.003.009-.006v-.003l.012-.009h0l.012-.009h0l.012-.009h0l.012-.009.013-.006.003-.004.012-.006h0l.012-.006.003-.003.009-.006h.003l.012-.006.003-.003.01-.003.006-.003.009-.003.012-.006.006-.003.021-.009.009-.003h.006l.006-.003.007-.003.015-.003.009-.003h.006l.012-.003.012-.003.003-.003h.012.003l.016-.003.009-.003h.006.009.006l.009-.003h.003.012.003l.013-.003h.003.012.003.012.003.012.003l.012.003h.003.013.003l.012.003h.003.012.003l.009.003.015.003h.003.013l.003.003.012.003.015.003h.003l.024.006.006.003.01.003h.006l.006.003.021.009.006.003.015.006.009.003.003.003.009.003.007.003.009.006h.003l.012.006v.003l.012.006h0l.015.006v.004l.012.006.013.009h0l.012.009h0l.012.009h0l.012.009v.003l.012.006v.003l.009.006.003.003.01.009.003.004.006.006.003.003.009.009.003.003.009.009h0l.009.009v.003l.009.009.003.003.006.009.003.003.01.01v.003l.006.012h.003l.006.012.009.012h0l.009.012v.003l.006.012h.003l.006.013 5.17 9.185h6.472 0zm0-14.243v1.237h-6.829a.63.63 0 0 1-.542-.316l-4.817-8.557-4.818 8.557a.62.62 0 0 1-.538.316h-.714-.028-1.061-.015-.307a.62.62 0 0 1-.541-.316l-4.818-8.557-4.817 8.557a.63.63 0 0 1-.541.316h-.295-.028-1.063-.016-.723a.62.62 0 0 1-.538-.316l-4.821-8.557-4.817 8.557a.62.62 0 0 1-.539.316h-.714-.024-1.064-.015-.307c-.216 0-.426-.116-.541-.316l-4.818-8.557-4.818 8.557c-.113.2-.325.316-.538.316h-.298-.027-1.061-.018-.723a.62.62 0 0 1-.538-.316l-4.818-8.557-4.818 8.557c-.115.2-.325.316-.541.316h-.714-.024-1.061-.018-.307a.62.62 0 0 1-.538-.316l-4.821-8.557-4.818 8.557a.62.62 0 0 1-.538.316h-24.435v-1.237h24.074l5.173-9.189.006-.009.003-.003.006-.012h0l.006-.012h0l.009-.016.009-.009v-.003l.009-.012h0l.009-.012h0l.009-.012h0l.009-.009.003-.004.006-.009.003-.003.009-.009h0l.009-.009.003-.003.009-.009.003-.003.006-.006.003-.003.009-.009h.003l.009-.01h.003l.009-.009h.003l.009-.009h.003l.009-.009h.003l.012-.009.012-.009h0l.012-.006v-.003l.012-.006h.003l.009-.006.006-.003.009-.003.003-.003.009-.004.006-.003.009-.006.012-.003.006-.003.021-.009.009-.003.006-.003.009-.003h.006l.012-.006h.009l.006-.003.015-.003.009-.003h.003l.012-.003h.003l.015-.003h.012.003l.012-.003h.003.012.003l.012-.003h.003.012.003.009.003.012.003.012.003.012.003l.012.003h.003.012.003l.012.003h.003.012l.015.003h.003l.009.003h.006l.009.003.015.003.003.003.024.006h.006l.009.003.006.003.006.003.021.009.009.003.012.003.009.006.003.003.009.004.006.003.009.003.003.003.012.006h.003l.009.006.003.003.012.006h0l.012.009.012.009h.003l.009.009h.003l.009.009h.003l.009.009h.003l.009.01h0l.012.009v.003l.009.006.003.003.009.009.003.003.006.009h.003l.009.009v.003l.009.009.003.004.006.009h.003l.009.012h0l.009.012h0l.009.012v.003l.009.009.006.016h0l.009.012h0l.006.012.003.003.006.009 5.173 9.189h1.024.015.362l5.176-9.189.003-.009.003-.003.006-.012h0l.009-.012h0l.009-.016.006-.009.003-.003.006-.012h.003l.006-.012h.003l.006-.012h.003l.006-.009.003-.004.009-.009v-.003l.009-.009h.003l.009-.009v-.003l.009-.009.003-.003.009-.006.003-.003.009-.009h0l.012-.01h0l.012-.009h0l.012-.009h0l.012-.009h0l.012-.009.012-.009h0l.012-.006.003-.003.012-.006h0l.012-.006.003-.003.009-.003.006-.003.009-.004.003-.003.009-.006.015-.003.006-.003.021-.009.006-.003.006-.003.009-.003h.006l.015-.006h.009l.003-.003.015-.003.009-.003h.006l.012-.003h.003l.015-.003h.009.003l.012-.003h.003.012.003l.012-.003h.003.012.003.012.003.012.003.012.003.012.003l.009.003h.003.012.003l.012.003h.003.012l.015.003h.003l.012.003h.003l.012.003.012.003.006.003.024.006h.006l.006.003.006.003.009.003.021.009.006.003.012.003.009.006.006.003.009.004.003.003.012.003.003.003.009.006h.003l.012.006v.003l.012.006h0l.015.009.012.009h0l.012.009h0l.012.009h0l.009.009h.003l.009.01h.003l.009.009.003.003.009.006v.003l.009.009.003.003.009.009h.003l.006.009.003.003.009.009v.004l.009.009h0l.009.012h0l.009.012h0l.009.012v.003l.009.009.009.016h0l.006.012h.003l.006.012v.003l.006.009 5.173 9.189h.362.018 1.024l5.173-9.189.006-.009v-.003l.006-.012h.003l.006-.012h0l.009-.016.009-.009v-.003l.009-.012h0l.009-.012h0l.009-.012h0l.009-.009v-.004l.009-.009.003-.003.006-.009h.003l.009-.009.003-.003.006-.009.003-.003.009-.006.003-.003.009-.009h.003l.009-.01h.003l.009-.009h0l.012-.009h0l.012-.009h0l.012-.009.015-.009h0l.012-.006v-.003l.012-.006h.003l.009-.006.003-.003.012-.003.003-.003.009-.004.006-.003.009-.006.012-.003.006-.003.021-.009.009-.003.006-.003.006-.003h.006l.015-.006h.009l.006-.003.012-.003.012-.003h.003l.012-.003h.003l.015-.003h.012.003l.012-.003h.003.009.003l.012-.003h.003.012.003.012.003.012.003.012.003.012.003l.012.003h.003.012.003l.012.003h.003.009l.015.003h.003l.012.003h.006l.009.003.015.003.003.003.024.006h.006l.009.003.006.003.006.003.021.009.006.003.015.003.009.006.003.003.009.004.006.003.009.003.003.003.012.006h0l.012.006.003.003.012.006h0l.012.009.012.009h0l.012.009h0l.012.009h0l.012.009h0l.012.01h0l.009.009.003.003.009.006.003.003.009.009v.003l.009.009h.003l.009.009v.003l.009.009v.004l.009.009h.003l.006.012h.003l.006.012h.003l.006.012.003.003.006.009.009.016h0l.009.012h0l.006.012.003.003.003.009 5.177 9.189h1.024.015.362l5.174-9.189.006-.009v-.003l.009-.012h0l.006-.012h0l.009-.016.009-.009v-.003l.009-.012h0l.009-.012h0l.009-.012h0l.01-.009.003-.004.006-.009.003-.003.009-.009h.003l.006-.009.003-.003.009-.009.003-.003.006-.006.003-.003.009-.009h.003l.009-.01h.003l.01-.009h.003l.009-.009h.003l.009-.009h.003l.012-.009.012-.009h0l.012-.006.003-.003.01-.006h.003l.009-.006.006-.003.009-.003.003-.003.009-.004.006-.003.009-.006.012-.003.006-.003.022-.009.009-.003.006-.003.009-.003h.006l.012-.006h.009l.006-.003.016-.003.009-.003h.006l.009-.003h.003l.015-.003h.012.003l.013-.003h.003.012.003l.012-.003h.003.012.003.012 0 .013.003.012.003.012.003l.012.003h.003.012.003l.013.003h.003.012l.015.003h.003l.009.003h.006l.009.003.015.003.003.003.025.006h.006l.009.003.006.003.006.003.021.009.01.003.012.003.009.006.006.003.006.004.006.003.009.003.003.003.012.006h0l.013.006.003.003.012.006h0l.012.009.012.009h0l.012.009h.003l.009.009h.003l.01.009h.003l.009.01h0l.012.009v.003l.009.006.003.003.009.009.003.003.006.009h.003l.009.009.003.003.007.009.003.004.006.009h.003l.009.012h0l.009.012h0l.009.012v.003l.009.009.006.016h.003l.006.012h0l.006.012.003.003.007.009 5.173 9.189h.362.015 1.027l5.174-9.189.006-.009v-.003l.006-.012h0l.009-.012h0l.009-.016.006-.009v-.003l.009-.012h.003l.006-.012h.003l.006-.012h.003l.009-.009v-.004l.01-.009v-.003l.009-.009h.003l.009-.009v-.003l.009-.009.003-.003.009-.006.003-.003.009-.009h0l.013-.01h0l.012-.009h0l.012-.009h0l.012-.009h0l.012-.009.012-.009h.003l.01-.006.003-.003.012-.006h0l.012-.006.003-.003.009-.003.006-.003.009-.004.003-.003.01-.006.015-.003.006-.003.021-.009.006-.003.006-.003.009-.003h.006l.016-.006h.009l.006-.003.012-.003.009-.003h.006l.012-.003h.003l.015-.003h.01.003l.012-.003h.003.012.003l.012-.003h.003.012.003.013.003.012.003.012.003.012.003l.012.003h.003.01.003l.012.003h.003.012l.015.003h.003l.012.003h.003l.013.003.012.003.006.003.024.006h.006l.006.003.006.003.009.003.022.009.006.003.015.003.006.006.006.003.009.004.003.003.012.003.003.003.01.006h.003l.012.006v.003l.012.006h0l.015.009.012.009h0l.012.009h0l.013.009h0l.009.009h.003l.009.01h.003l.009.009.003.003.009.006.003.003.006.009.003.003.01.009h.003l.006.009.003.003.009.009v.004l.009.009h0l.009.012h0l.009.012h.003l.006.012v.003l.009.009.01.016h0l.006.012h.003l.006.012v.003l.006.009 5.173 9.189h1.024.019.361l5.174-9.189.006-.009v-.003l.006-.012h.003l.006-.012h0l.009-.016.009-.009v-.003l.009-.012h0l.01-.012h0l.009-.012h0l.009-.009v-.004l.009-.009.003-.003.006-.009h.003l.009-.009.003-.003.006-.009.003-.003.009-.006.003-.003.01-.009h.003l.009-.01h0l.012-.009h0l.012-.009h0l.012-.009h0l.012-.009.013-.009h.003l.012-.006v-.003l.012-.006h.003l.009-.006.003-.003.012-.003.003-.003.01-.004.006-.003.009-.006.012-.003.006-.003.021-.009.009-.003.006-.003.006-.003h.007l.015-.006h.009l.006-.003.012-.003.012-.003h.003l.012-.003h.003l.016-.003h.009.006l.009-.003h.006.009.003l.012-.003h.003.013.003.012.003.012.003.012.003.012.003l.013.003h.003.012.003l.012.003h.003.009l.015.003h.003l.013.003h.003l.012.003.015.003.003.003.024.006h.006l.01.003.006.003.006.003.021.009.006.003.015.003.009.006.003.003.009.004.007.003.009.003.003.003.012.006h0l.012.006v.003l.015.006h0l.012.009.013.009h0l.012.009h0l.012.009h0l.012.009h0l.012.01h0l.009.009.003.003.01.006.003.003.006.009.003.003.009.009h.003l.009.009v.003l.009.009v.004l.009.009h.003l.006.012h.003l.01.012h0l.006.012.003.003.006.009.009.016h0l.009.012h0l.006.012.003.003.006.009 5.17 9.189h6.472 0zm0-14.621v1.237h-6.829c-.216 0-.426-.115-.542-.316l-4.817-8.556-4.818 8.556c-.112.201-.322.316-.538.316h-.714-.028-1.061-.015-.307a.62.62 0 0 1-.541-.316l-4.818-8.556-4.817 8.556c-.116.201-.325.316-.541.316h-.295-.028-1.063-.016-.723c-.216 0-.426-.115-.538-.316l-4.821-8.556-4.817 8.556a.62.62 0 0 1-.539.316h-.714-.024-1.064-.015-.307c-.216 0-.426-.115-.541-.316l-4.818-8.556-4.818 8.556a.62.62 0 0 1-.538.316h-.298-.027-1.061-.018-.723c-.216 0-.425-.115-.538-.316l-4.818-8.556-4.818 8.556c-.115.201-.325.316-.541.316h-.714-.024-1.061-.018-.307c-.216 0-.425-.115-.538-.316l-4.821-8.556-4.818 8.556c-.112.201-.322.316-.538.316h-24.435v-1.237h24.074l5.173-9.188.006-.01.003-.003.006-.009v-.003l.006-.012h0l.009-.012.009-.012v-.003l.009-.009v-.003l.009-.01v-.003l.009-.009v-.003l.009-.009.003-.003.006-.009.003-.003.009-.006v-.003l.009-.009.003-.003.009-.006.003-.003.006-.01.003-.003.009-.006.003-.003.009-.009h.003l.009-.009h.003l.009-.009h.003l.009-.009h.003l.012-.009.012-.01h0l.012-.006h0l.012-.009h.003l.009-.006.006-.003.009-.003.003-.003.009-.003.006-.003.009-.003.012-.006.006-.003.021-.009.009-.003h.006l.009-.003.006-.003.012-.003.009-.003.006-.003.015-.003h.009l.003-.003h.012l.003-.003h.015l.012-.003h.003l.012-.004h.003.012.003.012l.003-.003h.012.003.009.003.012.003.012.003.012l.003.003h.012.003.012.003l.012.004h.003l.012.003h.015l.003.003h.009l.006.003h.009l.015.003.003.003.024.006.006.003.009.003h.006l.006.003.021.009.009.003.012.006.009.003.003.003.009.003.006.003.009.003.003.003.012.006h.003l.009.009h.003l.012.006h0l.012.01.012.009h.003l.009.009h.003l.009.009h.003l.009.009h.003l.009.009v.003l.012.006v.003l.009.01.003.003.009.006.003.003.006.009.003.003.009.006v.003l.009.009.003.003.006.009.003.003.009.009v.003l.009.01v.003l.009.009v.003l.009.012.006.012h0l.009.012v.003l.006.009.003.003.006.01 5.173 9.188h1.024.015.362l5.176-9.188.003-.01.003-.003.006-.009v-.003l.009-.012h0l.009-.012.006-.012.003-.003.006-.009.003-.003.006-.01.003-.003.006-.009.003-.003.006-.009.003-.003.009-.009v-.003l.009-.006.003-.003.009-.009v-.003l.009-.006.003-.003.009-.01.003-.003.009-.006v-.003l.012-.009h0l.012-.009h0l.012-.009h0l.012-.009h0l.012-.009.012-.01h0l.012-.006h.003l.012-.009h0l.012-.006.003-.003.009-.003.006-.003.009-.003.003-.003.009-.003.015-.006.006-.003.021-.009.006-.003h.006l.009-.003.006-.003.015-.003.009-.003.003-.003.015-.003h.009l.006-.003h.012l.003-.003h.015l.009-.003h.003l.012-.004h.003.012.003.012l.003-.003h.012.003.012.003.012.003.012.003.012l.003.003h.009.003.012.003l.012.004h.003l.012.003h.015l.003.003h.012l.003.003h.012l.012.003.006.003.024.006.006.003.006.003h.006l.009.003.021.009.006.003.012.006.009.003.006.003.009.003.003.003.012.003.003.003.009.006h.003l.012.009h0l.012.006h0l.015.01.012.009h0l.012.009h0l.012.009h0l.009.009h.003l.009.009.003.003.009.006.003.003.009.01v.003l.009.006.003.003.009.009.003.003.006.006.003.003.009.009v.003l.009.009v.003l.009.009v.003l.009.01v.003l.009.009v.003l.009.012.009.012h0l.006.012.003.003.006.009v.003l.006.01 5.173 9.188h.362.018 1.024l5.173-9.188.006-.01v-.003l.006-.009.003-.003.006-.012h0l.009-.012.009-.012v-.003l.009-.009v-.003l.009-.01v-.003l.009-.009v-.003l.009-.009v-.003l.009-.009.003-.003.006-.006.003-.003.009-.009.003-.003.006-.006.003-.003.009-.01.003-.003.009-.006.003-.003.009-.009h.003l.009-.009h0l.012-.009h0l.012-.009h0l.012-.009.015-.01h0l.012-.006h0l.012-.009h.003l.009-.006.003-.003.012-.003.003-.003.009-.003.006-.003.009-.003.012-.006.006-.003.021-.009.009-.003h.006l.006-.003.006-.003.015-.003.009-.003.006-.003.012-.003h.012l.003-.003h.012l.003-.003h.015l.012-.003h.003l.012-.004h.003.009.003.012l.003-.003h.012.003.012.003.012.003.012.003.012l.003.003h.012.003.012.003l.012.004h.003l.009.003h.015l.003.003h.012l.006.003h.009l.015.003.003.003.024.006.006.003.009.003h.006l.006.003.021.009.006.003.015.006.009.003.003.003.009.003.006.003.009.003.003.003.012.006h0l.012.009h.003l.012.006h0l.012.01.012.009h0l.012.009h0l.012.009h0l.012.009h0l.012.009v.003l.009.006.003.003.009.01.003.003.009.006v.003l.009.009.003.003.009.006v.003l.009.009v.003l.009.009.003.003.006.009.003.003.006.01.003.003.006.009.003.003.006.012.009.012h0l.009.012v.003l.006.009.003.003.003.01 5.177 9.188h1.024.015.362l5.174-9.188.006-.01v-.003l.009-.009v-.003l.006-.012h0l.009-.012.009-.012v-.003l.009-.009v-.003l.009-.01v-.003l.009-.009v-.003l.01-.009.003-.003.006-.009.003-.003.009-.006.003-.003.006-.009.003-.003.009-.006.003-.003.006-.01.003-.003.009-.006.003-.003.009-.009h.003l.01-.009h.003l.009-.009h.003l.009-.009h.003l.012-.009.012-.01h0l.012-.006h.003l.01-.009h.003l.009-.006.006-.003.009-.003.003-.003.009-.003.006-.003.009-.003.012-.006.006-.003.022-.009.009-.003h.006l.009-.003.006-.003.012-.003.009-.003.006-.003.016-.003h.009l.006-.003h.009l.003-.003h.015l.012-.003h.003l.013-.004h.003.012.003.012l.003-.003h.012.003.012 0 .013.003.012.003.012l.003.003h.012.003.012.003l.013.004h.003l.012.003h.015l.003.003h.009l.006.003h.009l.015.003.003.003.025.006.006.003.009.003h.006l.006.003.021.009.01.003.012.006.009.003.006.003.006.003.006.003.009.003.003.003.012.006h0l.013.009h.003l.012.006h0l.012.01.012.009h0l.012.009h.003l.009.009h.003l.01.009h.003l.009.009v.003l.012.006v.003l.009.01.003.003.009.006.003.003.006.009.003.003.009.006.003.003.007.009.003.003.006.009.003.003.009.009v.003l.009.01v.003l.009.009v.003l.009.012.006.012h.003l.006.012v.003l.006.009.003.003.007.01 5.173 9.188h.362.015 1.027l5.174-9.188.006-.01v-.003l.006-.009v-.003l.009-.012h0l.009-.012.006-.012v-.003l.009-.009.003-.003.006-.01.003-.003.006-.009.003-.003.009-.009v-.003l.01-.009v-.003l.009-.006.003-.003.009-.009v-.003l.009-.006.003-.003.009-.01.003-.003.009-.006v-.003l.013-.009h0l.012-.009h0l.012-.009h0l.012-.009h0l.012-.009.012-.01h.003l.01-.006h.003l.012-.009h0l.012-.006.003-.003.009-.003.006-.003.009-.003.003-.003.01-.003.015-.006.006-.003.021-.009.006-.003h.006l.009-.003.006-.003.016-.003.009-.003.006-.003.012-.003h.009l.006-.003h.012l.003-.003h.015l.01-.003h.003l.012-.004h.003.012.003.012l.003-.003h.012.003.013.003.012.003.012.003.012l.003.003h.012.003.01.003l.012.004h.003l.012.003h.015l.003.003h.012l.003.003h.013l.012.003.006.003.024.006.006.003.006.003h.006l.009.003.022.009.006.003.015.006.006.003.006.003.009.003.003.003.012.003.003.003.01.006h.003l.012.009h0l.012.006h0l.015.01.012.009h0l.012.009h0l.013.009h0l.009.009h.003l.009.009.003.003.009.006.003.003.009.01.003.003.006.006.003.003.01.009.003.003.006.006.003.003.009.009v.003l.009.009v.003l.009.009v.003l.009.01.003.003.006.009v.003l.009.012.01.012h0l.006.012.003.003.006.009v.003l.006.01 5.173 9.188h1.024.019.361l5.174-9.188.006-.01v-.003l.006-.009.003-.003.006-.012h0l.009-.012.009-.012v-.003l.009-.009v-.003l.01-.01v-.003l.009-.009v-.003l.009-.009v-.003l.009-.009.003-.003.006-.006.003-.003.009-.009.003-.003.006-.006.003-.003.009-.01.003-.003.01-.006.003-.003.009-.009h0l.012-.009h0l.012-.009h0l.012-.009h0l.012-.009.013-.01h.003l.012-.006h0l.012-.009h.003l.009-.006.003-.003.012-.003.003-.003.01-.003.006-.003.009-.003.012-.006.006-.003.021-.009.009-.003h.006l.006-.003.007-.003.015-.003.009-.003.006-.003.012-.003h.012l.003-.003h.012l.003-.003h.016l.009-.003h.006l.009-.004h.006.009.003.012l.003-.003h.013.003.012.003.012.003.012.003.012l.003.003h.013.003.012.003l.012.004h.003l.009.003h.015l.003.003h.013l.003.003h.012l.015.003.003.003.024.006.006.003.01.003h.006l.006.003.021.009.006.003.015.006.009.003.003.003.009.003.007.003.009.003.003.003.012.006h0l.012.009h0l.015.006h0l.012.01.013.009h0l.012.009h0l.012.009h0l.012.009h0l.012.009v.003l.009.006.003.003.01.01.003.003.006.006.003.003.009.009.003.003.009.006v.003l.009.009v.003l.009.009.003.003.006.009.003.003.01.01v.003l.006.009.003.003.006.012.009.012h0l.009.012v.003l.006.009.003.003.006.01 5.17 9.188h6.472 0zm0-14.243v1.237h-6.829c-.216-.003-.426-.116-.542-.316l-4.817-8.56-4.818 8.56c-.112.2-.322.313-.538.316h-.714-.028-1.061-.015-.31c-.216-.003-.425-.116-.538-.316l-4.817-8.56-4.821 8.56c-.113.2-.322.313-.538.316h-.295-.027-1.064-.016-.723c-.216-.003-.425-.116-.538-.316l-4.821-8.56-4.817 8.56c-.113.2-.323.313-.538.316h-.715-.024-1.064-.015-.307c-.216-.003-.426-.116-.541-.316l-4.818-8.56-4.818 8.56a.63.63 0 0 1-.538.316h-.298-.027-1.061-.018-.723c-.216-.003-.426-.116-.538-.316l-4.818-8.56-4.818 8.56c-.115.2-.325.313-.541.316h-.714-.024-1.061-.018-.307c-.216-.003-.426-.116-.538-.316l-4.821-8.56-4.818 8.56c-.113.2-.322.313-.538.316h-24.435v-1.237h24.074l5.173-9.189.006-.009.003-.003.006-.012h0l.006-.012v-.003l.009-.013.009-.012h0l.009-.012h0l.009-.012h0l.009-.012h0l.009-.009.003-.003.006-.009.003-.004.009-.009v-.003l.009-.006.003-.003.009-.009.003-.003.006-.006.003-.003.009-.009h.003l.009-.009.003-.003.009-.006.003-.003.009-.007.003-.003.009-.006h.003l.012-.009.012-.009h0l.012-.006v-.003l.012-.006h.003l.009-.006.006-.003.009-.006h.003l.009-.006h.006l.009-.006.012-.006.006-.003.021-.006.009-.003.006-.003.009-.003h.006l.012-.007.009-.003h.006l.015-.003.009-.003h.003l.012-.003h.003l.015-.003h.012l.003-.003h.012.003l.012-.003h.003.012.003.012.003.009.003.012.003.012.003.012.003.012.003l.012.003h.003.012l.003.003h.012l.015.003h.003l.009.003h.006l.009.003.015.003h.003l.024.01h.006l.009.003.006.003.006.003.021.006.009.003.012.006.009.006h.003l.009.006h.006l.009.006.003.003.012.006h.003l.009.006.003.003.012.006h0l.012.009.012.01h.003l.009.006.003.003.009.006.003.003.009.006.003.003.009.009h0l.012.009v.003l.009.006.003.003.009.009.003.003.006.006.003.003.009.01v.003l.009.009.003.003.006.009h.003l.009.012h0l.009.012h0l.009.012h0l.009.013.006.012v.003l.009.012h0l.006.012.003.003.006.009 5.173 9.189h1.024.015.362l5.176-9.189.003-.009.003-.003.006-.012h0l.009-.012v-.003l.009-.012.006-.013h.003l.006-.012h.003l.006-.012h.003l.006-.012h.003l.006-.009.003-.003.009-.009v-.003l.009-.01.003-.003.009-.006v-.003l.009-.009.003-.003.009-.006.003-.003.009-.009h0l.012-.009v-.003l.012-.006v-.003l.012-.006v-.003l.012-.006h0l.012-.01.012-.009h0l.012-.006.003-.003.012-.006h0l.012-.006.003-.003.009-.006h.006l.009-.006h.003l.009-.006.015-.006.006-.003.021-.006.006-.003.006-.003.009-.003h.006l.015-.007.009-.002h.003l.015-.004.009-.003h.006l.012-.003h.003l.015-.003h.009l.003-.003h.012.003l.012-.003h.003.012.003.012.003.012.003.012.003.012.003.012.003.009.003l.012.003h.003.012l.003.003h.012l.015.003h.003l.012.003h.003l.012.003.012.004h.006l.024.009h.006l.006.003.006.003.009.003.021.006.006.003.012.006.009.006h.006l.009.006h.003l.012.006.003.003.009.006h.003l.012.006v.003l.012.006h0l.015.009.012.01h0l.012.006v.003l.012.006v.003l.009.006.003.003.009.009h.003l.009.009.003.003.009.006v.003l.009.009.003.003.009.006.003.003.006.01.003.003.009.009v.003l.009.009h0l.009.012h0l.009.012h0l.009.012h0l.009.013.009.012v.003l.006.012h.003l.006.012v.003l.006.009 5.173 9.189h.362.018 1.024l5.173-9.189.006-.009v-.003l.006-.012h.003l.006-.012v-.003l.009-.012.009-.013h0l.009-.012h0l.009-.012h0l.009-.012h0l.009-.009v-.003l.009-.009.003-.003.006-.01.003-.003.009-.006.003-.003.006-.009.003-.003.009-.006.003-.003.009-.009h.003l.009-.009.003-.003.009-.006v-.003l.012-.006v-.003l.012-.006h0l.012-.01.015-.009h0l.012-.006v-.003l.012-.006h.003l.009-.006.003-.003.012-.006h.003l.009-.006h.006l.009-.006.012-.006.006-.003.021-.006.009-.003.006-.003.006-.003h.006l.015-.006.009-.003h.006l.012-.003.012-.003h.003l.012-.004h.003l.015-.003h.012l.003-.003h.012.003l.009-.003h.003.012.003.012.003.012.003.012.003.012.003.012.003.012.003l.012.003h.003.012l.003.003h.009l.015.003h.003l.012.004h.006l.009.003.015.003h.003l.024.009h.006l.009.003.006.003.006.003.021.006.006.003.015.006.009.006h.003l.009.006h.006l.009.006.003.003.012.006h0l.012.006.003.003.012.006h0l.012.009.012.01h0l.012.006v.003l.012.006v.003l.012.006v.003l.012.009h0l.009.009.003.003.009.006.003.003.009.009v.003l.009.006.003.003.009.01v.003l.009.009v.003l.009.009h.003l.006.012h.003l.006.012h.003l.006.012h.003l.006.013.009.012v.003l.009.012h0l.006.012.003.003.003.009 5.177 9.189h1.024.015.362l5.18-9.198.024-.042.067-.082.009-.009.003-.003.009-.01.003-.003.009-.006v-.003l.009-.009h.003l.009-.009.004-.003.009-.006.003-.003.009-.006.003-.003.009-.006h.003l.012-.009h0l.012-.01h0l.012-.006.003-.003.01-.006h.003l.009-.006.006-.003.009-.006h.003l.009-.006h.006l.009-.006.006-.003.006-.003.01-.003h.006l.012-.006.009-.003.006-.003.009-.003h.006l.012-.006.013-.003h.003l.009-.003h.006l.009-.003h.006l.009-.003h.003l.012-.003h.003.012l.003-.003h.013.003l.012-.003h.003.012.003.012.003.012 0 .016 0 .012.003.012.003.012.003l.012.003h.003.013l.003.003h.012.003l.012.003h.003l.012.003h.003l.009.003h.003l.013.003h.003l.012.003.012.006h.006l.009.003.006.003.006.003.015.006h.007l.009.003.006.003.006.003.009.006h.006l.006.006h.006l.009.006.003.003.013.006h.003l.009.006.003.003.012.006h0l.012.01h0l.012.009h0l.012.006.003.003.01.006.003.003.009.006.003.003.009.009h0l.012.009v.003l.009.006.003.003.009.01.003.003.009.006c.025.027.046.057.067.085l.025.042 5.179 9.198h.362.015 1.024l5.177-9.189.006-.009v-.003l.006-.012h0l.009-.012v-.003l.009-.012.006-.013h0l.009-.012h.003l.006-.012h.003l.006-.012h.003l.01-.009v-.003l.009-.009v-.003l.009-.01.003-.003.009-.006v-.003l.009-.009.003-.003.009-.006.003-.003.01-.009h0l.012-.009v-.003l.012-.006v-.003l.012-.006v-.003l.012-.006h0l.012-.01.013-.009h.003l.009-.006.003-.003.012-.006h0l.012-.006.003-.003.009-.006h.006l.009-.006h.003l.01-.006.015-.006.006-.003.021-.006.006-.003.006-.003.009-.003h.006l.016-.006.009-.003h.006l.012-.003.009-.003h.006l.012-.003h.003l.016-.004h.009l.003-.003h.012.003l.012-.003h.003.012.003.013.003.012.003.012.003.012.003.012.003.013.003l.009.003h.003.012l.003.003h.012l.015.004h.003l.013.003h.003l.012.003.012.003h.006l.024.009h.006l.006.003.006.003.01.003.021.006.006.003.015.006.006.006h.006l.009.006h.003l.013.006.003.003.009.006h.003l.012.006v.003l.012.006h0l.015.01.012.009h0l.013.006v.003l.012.006v.003l.009.006.003.003.009.009h.003l.009.009.003.003.009.006.003.003.007.009.003.003.009.007.003.003.006.009.003.003.009.009v.003l.009.009h0l.009.012h0l.009.012h.003l.006.013h0l.01.012.009.012v.003l.006.012h.003l.006.012v.003l.006.009 5.173 9.189h1.025.018.362l5.173-9.189.006-.009v-.003l.006-.012h.003l.006-.012v-.003l.009-.012.009-.012h0l.009-.013h0l.01-.012h0l.009-.012h0l.009-.009v-.003l.009-.009.003-.003.006-.009.003-.003.009-.007.003-.003.006-.009.003-.003.01-.006.003-.003.009-.009h.003l.009-.009v-.003l.012-.006v-.003l.012-.006v-.003l.012-.006h0l.013-.009.012-.01h.003l.012-.006v-.003l.012-.006h.003l.009-.006.003-.003.013-.006h.003l.009-.006h.006l.009-.006.012-.006.006-.003.021-.006.009-.003.007-.003.006-.003h.006l.015-.006.009-.003h.006l.012-.003.012-.003h.003l.013-.003h.003l.015-.003h.009l.006-.003h.009.006l.009-.003h.003.013.003.012.003.012.003.012.003.012.003.013.003.012.003l.012.003h.003.012l.003.003h.009l.016.003h.003l.012.003h.003l.012.003.015.003h.003l.024.009h.007l.009.003.006.003.006.003.021.006.006.003.015.006.009.006h.003l.01.006h.006l.009.006.003.003.012.006h0l.012.006v.003l.015.006h0l.013.01.012.009h0l.012.006v.003l.012.006v.003l.012.006v.003l.012.009h0l.01.009.003.003.009.006.003.003.006.01.003.003.009.006.003.003.009.009v.003l.009.009v.003l.009.009h.003l.006.012h.004l.009.012h0l.006.013h.003l.006.012.009.012v.003l.009.012h0l.006.012.003.003.006.01 5.171 9.188h6.471 0zm2.472-37.627l-1.237 1.24h-12.001a.62.62 0 0 1-.617-.62v-6.584h-41.861-.015-.015-41.861v6.584a.62.62 0 0 1-.62.62h-10.426v-1.24h9.809v-6.581a.62.62 0 0 1 .617-.62h42.481.015.015 42.478a.62.62 0 0 1 .62.62v6.581h12.618 0zm5.282-197.929l-.063 1.265-23.147-6.204-8.389 31.308h19.31l-.653 1.24h-26.478v98.06a.62.62 0 0 1-.62.62.62.62 0 0 1-.617-.62v-98.06h-10.651-.018-.015-8.502v99.996c0 .341-.28.62-.62.62s-.62-.279-.62-.62v-99.996h-21.551V581.8c0 .341-.277.617-.617.617a.62.62 0 0 1-.62-.617v-99.567H427.49l-.714-1.24h24.918l-10.25-31.36-28.384 7.605-.62-1.076.009-.039 29.223-7.83h0l.015-.003h.003l.003-.003h.006l.003-.003h.003.003.006l.003-.003h.003.003.006l.003-.004h.006.006l.006-.003h0 .003.006.006 0 .003l.006-.003h.003.003.003.006.003.003l.003-.003h.003.003.003.003.003.003.006.003.003.003.006.003.003.003 42.602l.022-.003.024.003 27.496-.003c.07 0 .134.012.195.034l.106.027.015.006.015.003 23.475 6.289h0 0z"/></g><path d="M528.046 787.732l26.229 15.143v-11.274h11.988v53.67l-41.08-15.958H379.018l-1.325-2.292v-38.083l14.608-14.608v17.757h29.563l105.981-.669.201-3.687h0z" fill="#c9beb1"/><g fill="#998164"><use href="#B"/><use href="#B" x="32.035"/><use href="#B" x="63.64"/><use href="#B" x="94.17"/><path d="M518.809 800.34h7.094v13.329h-7.094V800.34h0zm15.049 4.191h7.094v13.329h-7.094v-13.329h0zm12.039 3.763h7.094v13.329h-7.094v-13.329h0z"/></g><path d="M542.307 582.092l6.125 22.858-27.304-7.316h-94.3l-24.049 6.444-1.176-2.04 7.496-2.009v-19.222l4.328-2.495 11.812-3.167h91.139l25.93 6.948h0zM515.785 425.21l21.131 6.809-.553 11.195-22.439-4.921h-73.202l-24.961 5.477 3.939-14.693 15.244-4.085 4.547-.997h70.746l5.548 1.216h0z" fill="#c9beb1"/><path d="M478.826 246.725v14.654c5.994 0 5.872 8.556.118 8.556v8c5.262 0 5.137 8.335.122 8.335v5.11c6.891 7.274 10.395 13.499 16.706 19.079-13.864 6.602-24.35 6.602-38.214 0 6.313-5.581 9.818-11.806 16.709-19.079v-5.11c-5.018 0-5.143-8.335.119-8.335v-8c-5.751 0-5.873-8.556.121-8.556v-14.693c-5.419-1.058-9.508-5.827-9.508-11.553 0-6.502 5.271-11.772 11.772-11.772a12.07 12.07 0 0 1 1.599.109c-4.195.663-7.404 4.298-7.404 8.678a8.79 8.79 0 0 0 17.466 1.383c.073.523.109 1.058.109 1.602 0 5.799-4.195 10.62-9.714 11.593z" fill="#e0c672"/><path d="M474.346 246.653c-5.337-1.119-9.347-5.851-9.347-11.52 0-6.502 5.271-11.772 11.772-11.772h.049a12.39 12.39 0 0 1 1.55.109c-4.195.663-7.404 4.298-7.404 8.678a8.79 8.79 0 0 0 17.466 1.383c.073.523.109 1.058.109 1.602 0 5.669-4.009 10.401-9.344 11.52h-4.851zm4.72 44.065v.663c6.891 7.274 10.395 13.499 16.706 19.079-13.864 6.602-24.35 6.602-38.214 0 6.313-5.581 9.818-11.806 16.709-19.079v-.663h4.8 0zm.021-12.778c5.116.149 4.948 8.332-.021 8.332l-4.8.015c-4.973-.015-5.14-8.198-.021-8.347h4.842zm.021-16.554c5.395.252 5.502 7.669.714 8.477h-6.313c-4.787-.809-4.681-8.225.714-8.477h4.885 0z" fill="#cfae43"/><path d="M1095.552 1168.525l1.173.553-3.237-.553h2.064zM729.501 593.673l2.094 15.964c8.137 0 7.344 10.641.809 10.641v12.739c8.054 0 7.893 12.417.161 12.417v11.608c7.073 0 6.903 12.094.161 12.094v7.417c38.843 44.275 66.822 61.801 117.547 95.619 77.95 51.968 97.208 101.054 108.142 180.187.93 6.717 1.24 12.067 2.018 15.857 2.614 12.739 7.876 2.608 7.876 31.329v17.399l8.766 5.058v43.958l26.855 7.198-8.578 2.298v23.359.653 1 1 1 1.003 1 1 1 1 1.003 1 1 1 1 1 1.003 1 1 1 1 1 1 1.003 1 1 1 1 1.003 1 1 1 1 1 1.003 1 1 1 1 1 1 1.003 15.715c-77.722-8.404-170.673-14.146-264.313-14.146-93.954 0-188.6 5.781-267.389 14.228v-15.797-1.003-1-1-1-1-1-1-1.003-1-1-1-1-1-1.003-1-1-1-1-1.003-1-1-1-.21-41.812l-8.578-2.298 26.855-7.198v-43.958l8.766-5.058V999.71c0-16.527-2.569-13.821 4.921-26.265 2.422-4.019 3.581-11.058 4.973-21.086 10.946-78.832 30.359-128.331 108.142-180.187 50.725-33.818 78.704-51.344 117.547-95.619v-7.416c-6.742 0-6.912-12.095.161-12.095v-11.608c-7.733 0-7.894-12.417.161-12.417v-12.739c-6.535 0-7.328-10.641.809-10.641l2.094-15.964z" fill="#018935"/><path d="M959.98 965.518c-11.302-5.839-24.791-11.213-40.111-16.003-48.727-15.244-116.033-24.669-190.369-24.669s-141.641 9.426-190.369 24.669c-15.639 4.891-29.365 10.386-40.809 16.368l-.271 1.122c11.52-6.082 25.438-11.672 41.344-16.648 48.646-15.216 115.857-24.63 190.105-24.63s141.459 9.414 190.105 24.63c15.535 4.857 29.171 10.307 40.533 16.225l-.158-1.064zm-5.396-37.411l.216 1.21c-12.283-8.711-28.912-16.605-48.949-23.362-45.123-15.213-107.474-24.624-176.351-24.624s-131.228 9.411-176.35 24.624c-20.025 6.751-36.645 14.639-48.925 23.344l.216-1.21c12.289-8.569 28.727-16.326 48.43-22.97 45.211-15.244 107.662-24.672 176.63-24.672s131.42 9.429 176.63 24.672c19.718 6.648 36.162 14.411 48.454 22.988zm-11.696-45.934c-11.602-8.198-26.925-15.623-45.202-22.006-43.049-15.037-102.516-24.335-168.186-24.335s-125.137 9.298-168.186 24.335c-18.219 6.362-33.505 13.763-45.095 21.93l-.538 1.538c11.623-8.392 27.21-16.003 45.919-22.535 42.958-15.007 102.321-24.286 167.9-24.286s124.942 9.279 167.901 24.286c18.766 6.553 34.39 14.192 46.022 22.611l-.535-1.538zm-24.666-47.803l1.058 1.48c-8.329-4.067-17.855-7.854-28.417-11.307-41.29-13.496-98.34-21.843-161.363-21.843s-120.076 8.347-161.362 21.843c-10.496 3.431-19.967 7.191-28.259 11.231l1.055-1.477c7.982-3.803 17.003-7.347 26.934-10.593 41.372-13.523 98.519-21.888 161.633-21.888s120.261 8.365 161.633 21.888c9.994 3.267 19.07 6.839 27.089 10.666zm-37.773-39.819l1.933 1.626c-4.83-1.763-10.028-3.44-15.557-5.024-35.137-10.061-83.691-16.286-137.325-16.286s-102.188 6.225-137.325 16.286c-5.508 1.577-10.684 3.249-15.499 5.003l1.927-1.623c4.195-1.474 8.642-2.888 13.332-4.228 35.21-10.085 83.851-16.32 137.565-16.32s102.355 6.235 137.565 16.32c4.709 1.346 9.177 2.766 13.384 4.246zm-66.461-46.718l1.733 1.188c-25.454-4.355-54.874-6.845-86.221-6.845s-60.767 2.49-86.221 6.845l1.733-1.188c25.067-4.167 53.861-6.538 84.488-6.538s59.421 2.371 84.488 6.538h0zm-54.939-43.653a358.4 358.4 0 0 0 11.125 10.189c-27.377 11.918-54.746 11.912-82.114.672 3.796-3.313 7.584-6.76 11.402-10.392l53.329-.474 6.259.006z" fill="#0c7137"/><path d="M445.381 979.758h4.137c0-18.918 6.128-18.918 6.128 0h4.14v35.259h-14.405v-35.259h0z" fill="#614c30"/><g fill="#998164"><use href="#C"/><use href="#C" x="25.262"/><use href="#C" x="47.837"/><use href="#C" x="71.056"/></g><path d="M472.619 325.986c0-7.59-5.59-7.59-5.59 0v10.933h5.59v-10.933z" fill="#614c30"/><path d="M495.772 336.563s7.529.201 10.717 11.657c-2.377-5.623-39.15-12.9-61.068-1.729 2.222-9.104 12.137-10.253 12.137-10.253l38.214.325z" fill="#c9beb1"/><path d="M640.985 750.588c-102.467 93.361-100.379 224.026-100.376 224.488l1.31-.006c-.003-.471-2.185-137.748 108.565-231.032l-9.499 6.55zm-27.195 18.213c-108.474 97.753-97.431 204.108-97.394 204.497l1.304-.112c-.033-.398-11.52-110.784 104.184-209.774l-8.094 5.389zm223.327-5.389c115.705 98.99 104.218 209.375 104.185 209.774l1.304.112c.036-.389 11.079-106.744-97.394-204.497l-8.095-5.389zm-28.599-19.374c110.75 93.284 108.568 230.561 108.564 231.032l1.31.006c.004-.462 2.092-131.127-100.379-224.491l-9.495-6.547zm-35.904-27.551l7.949 6.644-7.171-4.608c-4.693-2.738-9.501-5.453-14.453-8.137 135.967 86.689 131.593 263.696 131.584 264.24l-1.31-.018c.009-.562 4.714-189.199-145.423-271.723 132.313 88.002 114.799 273.07 114.75 273.623l-1.31-.116c.046-.541 16.906-178.733-107.689-267.939 90.616 78.084 79.789 266.991 79.758 267.572l-1.31-.067c.031-.605 11.764-205.692-91.728-276.01 1.203 1.332 2.374 2.791 3.514 4.362 69.381 78.735 63.955 270.204 63.94 270.781l-1.31-.03c.015-.559 5.082-179.606-57.232-262.061 36.134 67.64 34.335 262.821 34.332 263.453l-1.31-.006c.003-.66 1.96-213.962-39.226-271.073a115.94 115.94 0 0 0-7.021-7.344c27.119 54.853 30.186 278.213 30.195 278.87l-1.31.015c-.009-.66-3.088-225.008-30.259-278.724 5.681 46.676 9.334 93.832 11.629 140.189 2.35 47.463 3.274 94.096 3.49 138.529l-1.31.003c-.216-44.393-1.14-91.002-3.49-138.468-2.17-43.837-5.559-88.406-10.736-132.632v271.787h-1.313V705.812c-5.176 44.226-8.565 88.795-10.736 132.632-2.349 47.466-3.273 94.075-3.489 138.468l-1.31-.003c.216-44.433 1.14-91.066 3.489-138.529 2.295-46.357 5.949-93.513 11.63-140.189-27.171 53.716-30.25 278.065-30.259 278.724l-1.31-.015c.009-.657 3.073-224.017 30.195-278.87-2.422 2.323-4.766 4.766-7.024 7.344-41.184 57.111-39.226 270.413-39.223 271.073l-1.31.006c-.003-.632-1.806-195.813 34.332-263.453-62.315 82.455-57.248 261.502-57.233 262.061l-1.31.03c-.015-.578-5.44-192.047 63.941-270.781 1.14-1.571 2.31-3.03 3.514-4.362-103.495 70.318-91.759 275.405-91.729 276.01l-1.31.067c-.03-.581-10.857-189.488 79.762-267.572-124.599 89.206-107.738 267.398-107.692 267.939l-1.313.116c-.046-.553-17.56-185.621 114.754-273.623-150.14 82.524-145.432 271.161-145.423 271.723l-1.31.018c-.009-.544-4.383-177.551 131.584-264.24-4.952 2.684-9.761 5.399-14.454 8.137-2.431 1.514-4.817 3.055-7.17 4.608l7.948-6.644c13.077-8.055 27.314-15.533 42.856-22.247l.24.565h.018.018l.24-.565c15.542 6.714 29.779 14.192 42.855 22.247zm195.694 296.144v4.313l8.766 5.058v2.088c-69.828-5.499-148.997-9.614-228.172-9.614-94.249 0-188.494 5.83-266.976 12.885v-5.359l8.766-5.058c76.163-7.967 165.943-12.562 262.097-12.562 77.197 0 150.284 2.964 215.519 8.249z" fill="#0c7137"/><path d="M928.538 1131.542c2.277-63.518 27.517-62.427 29.001 3.274l-29.001-3.274zm-79.126-6.337c2.249-60.409 28.569-59.749 30.283 2.003l-30.283-2.003zm-94.245-3.186c1.723-61.011 31.423-60.804 32.961.608l-32.961-.608zm-89.066.979c.936-62.305 31.846-62.573 33.046-.815l-33.046.815zm-88.118 4.912c1.383-64.153 32.524-64.965 34.657-2.426l-34.657 2.426zm-76.555 7.885c1.204-66.901 33.429-68.281 35.922-4.161l-35.922 4.161z" fill="#006624"/><path d="M1096.724 1235.639c-88.378-15.289-227.801-33.66-367.224-33.66s-278.845 18.371-367.224 33.66c135.657-64.929 597.846-65.381 734.448 0z" fill="#c7c5c3"/><g fill="#006624"><use href="#D"/><use href="#D" x="-17.414"/><path d="M884.297 1038.349v23.794h-8.167v-23.794c0-11.636 8.167-11.636 8.167 0z"/><use href="#D" x="-98.327" y="-3.252"/><use href="#E"/><use href="#E" x="-31.818"/><use href="#E" x="-87.719"/><use href="#D" x="-281.645" y="-3.252"/><use href="#D" x="-348.537" y="-3.252"/><use href="#D" x="-370.826" y="-3.252"/><use href="#D" x="-426.551"/><use href="#D" x="-443.968"/></g><path d="M977.074 1061.447v4.514l26.855 7.198-3.505.939c-75.245-6.432-163.381-11.529-251.522-11.529-101.69 0-203.37 6.784-285.253 14.575v-1.687l-8.578-2.298 26.855-7.198c78.002-8.532 170.995-13.49 270.863-13.49 80.674 0 156.861 3.237 224.285 8.976z" fill="#0c7137"/><path d="M729.501 593.673l2.097 15.964c8.134 0 7.341 10.642.806 10.642v12.739c8.055 0 7.894 12.417.161 12.417v11.608c7.073 0 6.903 12.095.161 12.095v7.417c9.262 10.557 17.903 19.59 26.387 27.688-9 4.629-19.031 7.216-29.612 7.216s-20.611-2.587-29.612-7.216c8.483-8.097 17.125-17.131 26.387-27.688v-7.417c-6.742 0-6.912-12.095.161-12.095v-11.608c-7.733 0-7.894-12.417.161-12.417v-12.739c-6.535 0-7.328-10.642.806-10.642l2.097-15.964z" fill="#e0c672"/><path d="M732.726 676.553c9.262 10.557 17.903 19.59 26.387 27.688-9 4.629-19.031 7.216-29.612 7.216s-20.611-2.587-29.612-7.216c8.483-8.097 17.125-17.131 26.387-27.688h6.45zm-.161-19.511c6.66 0 6.897 10.727 1.271 11.973h-8.669c-5.626-1.246-5.389-11.973 1.27-11.973h6.128zm-.161-24.025c8.055 0 7.894 12.417.161 12.417h-6.128c-7.733 0-7.894-12.417.161-12.417h5.806zm-.806-23.38c8.134 0 7.341 10.642.806 10.642v.486h-5.806v-.486c-6.535 0-7.328-10.642.805-10.642h4.195 0z" fill="#cfae43"/><path d="M960.432 968.216c2.493 12.152 7.396 3.495 7.842 27.599-68.086-5.86-142.96-9.991-217.837-9.991-90.592 0-181.178 6.046-259.745 13.885v-16.578c.611-2.283 2-4.833 4.924-9.687 76.844-8.642 165.113-13.566 259.015-13.566 72.899 0 142.402 2.967 205.801 8.338z" fill="#0c7137"/><path d="M995.352 1142.169c5.717 2.711 8.179 14.085 8.541 20.621-186.655-27.292-361.343-26.754-548.004.447-1.31-5.714 4.973-21.067 7.76-21.551 150.758-26.15 384.335-33.824 531.703.483z" fill="#016f32"/></g><defs ><path id="B" d="M398.088 800.34h13.329v13.329h-13.329V800.34h0z"/><path id="C" d="M440.722 524.252c0-12.04-5.59-12.04-5.59 0v17.344h5.59v-17.344z"/><path id="D" d="M960.335 1041.601v23.794h-8.17v-23.794c0-11.636 8.17-11.636 8.17 0z"/><path id="E" d="M798.228 1037.835v22.399h-8.17v-22.399c0-10.952 8.17-10.952 8.17 0z"/></defs></svg>