<!-- icon666.com - MILLIONS vector ICONS FREE --><svg id="Layer_1" viewBox="0 0 32 32" xmlns="http://www.w3.org/2000/svg" data-name="Layer 1"><rect height="11" rx="1" width="6" x="1" y="20"></rect><rect height="8" rx="1" width="6" x="9" y="23"></rect><rect height="15" rx="1" width="6" x="17" y="16"></rect><rect height="22" rx="1" width="6" x="25" y="9"></rect><path d="m28 1a3 3 0 0 0 -3 3 2.953 2.953 0 0 0 .075.648l-3.218 2.014a2.972 2.972 0 0 0 -1.857-.662 3 3 0 0 0 -3 3 2.955 2.955 0 0 0 .385 1.44l-4.259 4.784a2.961 2.961 0 0 0 -3.315.739l-2.829-.781c0-.062.018-.12.018-.182a3.024 3.024 0 1 0 -.811 2.037l2.829.781c0 .062-.018.12-.018.182a3 3 0 0 0 6 0 2.955 2.955 0 0 0 -.385-1.44l4.259-4.784a2.972 2.972 0 0 0 1.126.224 3 3 0 0 0 3-3 2.953 2.953 0 0 0 -.075-.648l3.218-2.014a2.972 2.972 0 0 0 1.857.662 3 3 0 0 0 0-6z"></path></svg>