<!-- icon666.com - MILLIONS vector ICONS FREE --><svg viewBox="-1 0 512 512" xmlns="http://www.w3.org/2000/svg"><path d="m478.625 99.714844c.097656-.082032.203125-.160156.304688-.242188 10.210937-8.578125 16.070312-21.144531 16.070312-34.472656 0-8.285156-6.714844-15-15-15s-15 6.714844-15 15c0 4.441406-1.953125 8.632812-5.363281 11.496094-3.457031 2.902344-7.890625 4.058594-12.480469 3.25-5.867188-1.027344-10.875-6.035156-11.902344-11.902344-.808594-4.589844.347656-9.023438 3.25-12.480469 2.863282-3.40625 7.054688-5.363281 11.496094-5.363281 8.285156 0 15-6.714844 15-15s-6.714844-15-15-15c-13.328125 0-25.894531 5.859375-34.472656 16.074219-8.574219 10.207031-12.152344 23.679687-9.824219 36.957031 1.847656 10.523438 7.636719 19.953125 15.707031 26.644531-19.980468 21.269531-31.410156 49.507813-31.410156 79.40625v60.917969h-30v-45c0-50.351562-27.46875-96.429688-70.910156-120.628906 7-8.109375 10.910156-18.484375 10.910156-29.371094 0-8.285156-6.714844-15-15-15s-15 6.714844-15 15c0 4.441406-1.953125 8.632812-5.363281 11.496094-3.457031 2.902344-7.890625 4.058594-12.480469 3.25-5.867188-1.027344-10.875-6.035156-11.902344-11.902344-.808594-4.589844.347656-9.023438 3.25-12.480469 2.863282-3.40625 7.054688-5.363281 11.496094-5.363281 8.285156 0 15-6.714844 15-15s-6.714844-15-15-15c-13.328125 0-25.894531 5.859375-34.472656 16.074219-8.574219 10.207031-12.152344 23.679687-9.824219 36.953125 1.398437 7.972656 5.054687 15.316406 10.253906 21.316406-43.46875 24.191406-70.957031 70.289062-70.957031 120.65625v45h-30v-60.917969c0-29.878906-11.414062-58.105469-31.375-79.367187.097656-.082032.203125-.160156.304688-.242188 10.210937-8.578125 16.070312-21.144531 16.070312-34.472656 0-8.285156-6.714844-15-15-15s-15 6.714844-15 15c0 4.445312-1.953125 8.632812-5.363281 11.496094-3.457031 2.90625-7.890625 4.058594-12.480469 3.25-5.867188-1.027344-10.875-6.035156-11.902344-11.902344-.808594-4.589844.347656-9.023438 3.25-12.480469 2.863282-3.40625 7.054688-5.363281 11.496094-5.363281 8.285156 0 15-6.714844 15-15s-6.714844-15-15-15c-13.328125 0-25.894531 5.859375-34.472656 16.074219-8.574219 10.207031-12.152344 23.679687-9.824219 36.957031 1.847656 10.523438 7.636719 19.953125 15.707031 26.644531-19.980468 21.269531-31.410156 49.507813-31.410156 79.40625v317.917969c0 8.285156 6.714844 15 15 15h480c8.285156 0 15-6.714844 15-15v-317.917969c0-29.878906-11.414062-58.105469-31.375-79.367187zm-58.625 79.367187c0-25.328125 11.050781-49.0625 30-65.300781 18.949219 16.238281 30 39.972656 30 65.300781v.917969h-60zm0 30.917969h60v30h-60zm-175.804688-113.785156 10.804688-4.800782 10.804688 4.800782c34.371093 15.277344 58.019531 47.207031 63.148437 83.785156h-147.90625c5.128906-36.578125 28.777344-68.507812 63.148437-83.785156zm-64.195312 113.785156h150v30h-150zm-150 0h60v30h-60zm0-30.917969c0-25.328125 11.050781-49.0625 30-65.300781 18.949219 16.238281 30 39.972656 30 65.300781v.917969h-60zm180 302.917969v-72h90v72zm2.320312-102c5.65625-21.894531 21.292969-40.195312 42.679688-49.003906 21.386719 8.808594 37.023438 27.109375 42.679688 49.003906zm267.679688 102h-150v-83.753906c0-.777344-.027344-1.554688-.046875-2.328125.019531-.304688.046875-.609375.046875-.917969 0-.679688-.0625-1.34375-.148438-1.996094-2.128906-42.117187-29.753906-78.78125-70.109374-92.234375-3.078126-1.027343-6.40625-1.027343-9.484376 0-40.355468 13.453125-67.980468 50.117188-70.109374 92.234375-.085938.652344-.148438 1.316406-.148438 1.996094 0 .308594.027344.613281.046875.917969-.019531.773437-.046875 1.546875-.046875 2.328125v83.753906h-150v-212h450zm0 0"></path><path d="m360 345v90c0 8.285156 6.714844 15 15 15h60c8.285156 0 15-6.714844 15-15v-90c0-24.8125-20.1875-45-45-45s-45 20.1875-45 45zm60 0v75h-30v-75c0-8.269531 6.730469-15 15-15s15 6.730469 15 15zm0 0"></path><path d="m105 300c-24.8125 0-45 20.1875-45 45v90c0 8.285156 6.714844 15 15 15h60c8.285156 0 15-6.714844 15-15v-90c0-24.8125-20.1875-45-45-45zm15 120h-30v-75c0-8.269531 6.730469-15 15-15s15 6.730469 15 15zm0 0"></path></svg>