<!-- icon666.com - MILLIONS vector ICONS FREE --><svg version="1.1" id="Capa_1" xmlns="http://www.w3.org/2000/svg" xmlns:xlink="http://www.w3.org/1999/xlink" x="0px" y="0px" viewBox="0 0 511.999 511.999" style="enable-background:new 0 0 511.999 511.999;" xml:space="preserve"><g><g><path d="M199.73,241.906h-69.556c-8.239,0-14.918,6.679-14.918,14.918V371.88c0,8.239,6.679,14.918,14.918,14.918h69.556 c8.239,0,14.918-6.679,14.918-14.918V256.824C214.649,248.585,207.969,241.906,199.73,241.906z"></path></g></g><g><g><path d="M315.067,53.286h-69.556c-8.239,0-14.918,6.679-14.918,14.918v303.677c0,8.239,6.678,14.918,14.918,14.918h69.556 c8.239,0,14.918-6.679,14.918-14.918V68.205C329.985,59.966,323.306,53.286,315.067,53.286z"></path></g></g><g><g><path d="M430.405,171.801h-69.557c-8.239,0-14.918,6.679-14.918,14.918v185.161c0,8.239,6.679,14.918,14.918,14.918h69.557 c8.239,0,14.918-6.679,14.918-14.918V186.72C445.323,178.481,438.643,171.801,430.405,171.801z"></path></g></g><g><g><path d="M504.966,438.849l-73.176-45.568c-4.601-2.865-10.391-3.008-15.128-0.379c-4.738,2.632-7.676,7.624-7.676,13.043v30.649 H75.404V103.014h30.649c5.418,0,10.412-2.939,13.042-7.676c2.632-4.737,2.486-10.528-0.378-15.128L73.15,7.032 C70.426,2.658,65.638,0,60.486,0c-5.153,0-9.94,2.658-12.664,7.032L2.254,80.209c-2.864,4.6-3.008,10.391-0.378,15.128 c2.631,4.737,7.623,7.676,13.042,7.676h30.649v348.5c0,8.239,6.679,14.918,14.918,14.918h348.5v30.649 c0,5.418,2.938,10.411,7.676,13.043c2.257,1.252,4.75,1.876,7.242,1.876c2.74,0,5.477-0.754,7.886-2.255l73.176-45.568 c4.374-2.723,7.032-7.511,7.032-12.664S509.341,441.574,504.966,438.849z"></path></g></g></svg>