<!-- icon666.com - MILLIONS vector ICONS FREE --><svg viewBox="1 0 511 511.99999" xmlns="http://www.w3.org/2000/svg"><path d="m316.480469 116.003906c.808593 0 1.625-.066406 2.445312-.199218l61-10c8.175781-1.34375 13.714844-9.054688 12.375-17.230469-1.339843-8.175781-9.046875-13.714844-17.230469-12.375l-60.996093 10c-8.175781 1.339843-13.71875 9.054687-12.375 17.230469 1.203125 7.351562 7.566406 12.574218 14.78125 12.574218zm0 0"></path><path d="m316.480469 182.003906c.808593 0 1.625-.066406 2.445312-.203125l61-10c8.175781-1.339843 13.714844-9.050781 12.375-17.226562-1.339843-8.175781-9.046875-13.71875-17.230469-12.375l-60.996093 10c-8.175781 1.339843-13.71875 9.054687-12.375 17.226562 1.203125 7.355469 7.566406 12.578125 14.78125 12.578125zm0 0"></path><path d="m316.480469 248.003906c.808593 0 1.625-.066406 2.445312-.203125l61-10c8.175781-1.339843 13.714844-9.050781 12.375-17.226562-1.339843-8.175781-9.046875-13.714844-17.230469-12.375l-60.996093 10c-8.175781 1.339843-13.71875 9.054687-12.375 17.226562 1.203125 7.355469 7.566406 12.578125 14.78125 12.578125zm0 0"></path><path d="m375.074219 274.199219-61 10c-8.175781 1.339843-13.71875 9.050781-12.375 17.226562 1.207031 7.355469 7.566406 12.578125 14.78125 12.578125.808593 0 1.625-.066406 2.445312-.203125l61-10c8.175781-1.339843 13.71875-9.050781 12.375-17.226562-1.339843-8.175781-9.046875-13.714844-17.226562-12.375zm0 0"></path><path d="m133.074219 105.804688 61 10c.820312.132812 1.636719.199218 2.445312.199218 7.214844 0 13.578125-5.222656 14.78125-12.578125 1.34375-8.175781-4.199219-15.886719-12.375-17.226562l-61-10c-8.179687-1.347657-15.886719 4.199219-17.226562 12.375-1.339844 8.175781 4.199219 15.886719 12.375 17.230469zm0 0"></path><path d="m133.074219 171.800781 61 10c.820312.136719 1.636719.203125 2.445312.203125 7.214844 0 13.578125-5.222656 14.78125-12.578125 1.34375-8.175781-4.199219-15.886719-12.375-17.226562l-61-10c-8.179687-1.34375-15.886719 4.199219-17.226562 12.375-1.339844 8.175781 4.199219 15.886719 12.375 17.226562zm0 0"></path><path d="m133.074219 237.800781 61 10c.820312.136719 1.636719.203125 2.445312.203125 7.214844 0 13.578125-5.222656 14.78125-12.578125 1.34375-8.175781-4.199219-15.886719-12.375-17.226562l-61-10c-8.179687-1.34375-15.886719 4.199219-17.226562 12.375-1.339844 8.175781 4.199219 15.886719 12.375 17.226562zm0 0"></path><path d="m133.074219 303.800781 61 10c.820312.136719 1.636719.199219 2.445312.199219 7.214844 0 13.578125-5.222656 14.78125-12.574219 1.34375-8.175781-4.199219-15.890625-12.375-17.230469l-61-10c-8.179687-1.34375-15.886719 4.203126-17.226562 12.375-1.339844 8.179688 4.199219 15.890626 12.375 17.230469zm0 0"></path><path d="m507.195312 23.554688c-3.367187-2.851563-7.8125-4.074219-12.164062-3.351563l-42.53125 7.089844v-12.292969c0-4.40625-1.9375-8.589844-5.300781-11.441406-3.359375-2.847656-7.804688-4.078125-12.152344-3.355469l-178.546875 29.59375-178.546875-29.59375c-4.347656-.722656-8.792969.507813-12.152344 3.355469-3.363281 2.851562-5.300781 7.035156-5.300781 11.441406v12.292969l-42.535156-7.089844c-4.347656-.722656-8.796875.5-12.160156 3.351563-3.363282 2.851562-5.304688 7.039062-5.304688 11.445312v360c0 7.335938 5.308594 13.597656 12.542969 14.796875l47.457031 7.878906v79.324219c0 4.84375 2.339844 9.390625 6.28125 12.203125 2.578125 1.84375 5.632812 2.796875 8.71875 2.796875 1.632812 0 3.277344-.265625 4.859375-.808594l176.140625-60.335937 176.136719 60.335937c1.585937.542969 3.226562.808594 4.863281.808594 3.085938 0 6.140625-.953125 8.71875-2.796875 3.941406-2.8125 6.28125-7.359375 6.28125-12.203125v-79.324219l47.453125-7.878906c7.238281-1.199219 12.546875-7.460937 12.546875-14.796875v-360c0-4.40625-1.941406-8.59375-5.304688-11.445312zm-84.695312 21.445312v287.28125l-151 25.027344v-299.589844l151-25.027344zm-332-12.308594 151 25.027344v299.589844l-151-25.027344zm0 443.316406v-53.316406l104.890625 17.382813zm332 0-104.894531-35.933593 104.894531-17.382813zm60-93.722656-226 37.511719-226-37.511719v-329.578125l30 5v287.292969c0 1.375.1875 2.714844.539062 3.988281.933594 3.398438 3.039063 6.339844 5.890626 8.324219 1.78125 1.242188 3.855468 2.109375 6.117187 2.484375l181 30c.363281.0625.726563.101563 1.085937.136719.457032.039062.910157.066406 1.367188.066406.453125 0 .910156-.027344 1.363281-.066406.363281-.035156.726563-.078125 1.089844-.136719l180.996094-30c2.265625-.375 4.339843-1.242187 6.121093-2.484375 2.851563-1.988281 4.953126-4.925781 5.890626-8.324219.351562-1.273437.539062-2.613281.539062-3.988281v-287.292969l30-5zm0 0"></path></svg>