<!-- icon666.com - MILLIONS vector ICONS FREE --><svg version="1.1" id="Capa_1" xmlns="http://www.w3.org/2000/svg" xmlns:xlink="http://www.w3.org/1999/xlink" x="0px" y="0px" viewBox="0 0 512 512" style="enable-background:new 0 0 512 512;" xml:space="preserve"><g><g><g><path d="M490.47,437.799H74.201V331.107l47.205-17.253c8.493-3.097,12.868-12.513,9.762-21.006 c-3.106-8.502-12.522-12.886-21.015-9.771l-35.951,13.14V83.626c0-9.043-7.339-16.383-16.383-16.383 c-9.043,0-16.383,7.331-16.383,16.383v354.172H16.383C7.339,437.799,0,445.147,0,454.19c0,9.043,7.339,16.374,16.383,16.374 h25.053v25.044c0,9.052,7.331,16.392,16.383,16.392c9.052,0,16.383-7.339,16.383-16.392v-25.044h416.277 c9.043,0,16.383-7.322,16.383-16.374C506.862,445.138,499.522,437.799,490.47,437.799z"></path><path d="M180.955,323.066c26.695,0,48.429-21.716,48.429-48.42c0-2.176-0.159-4.315-0.438-6.416l37.916-19.649 c8.023-4.162,11.164-14.049,7.002-22.089s-14.058-11.173-22.089-7.011l-37.931,19.66c-8.644-8.013-20.202-12.924-32.89-12.924 c-26.713,0-48.438,21.725-48.438,48.429C132.517,301.35,154.251,323.066,180.955,323.066z M180.955,258.991 c8.626,0,15.655,7.029,15.655,15.664s-7.02,15.655-15.655,15.655c-8.635,0-15.664-7.02-15.664-15.655 C165.292,266.02,172.32,258.991,180.955,258.991z"></path><path d="M321.309,250.311c26.704,0,48.429-21.725,48.429-48.438c0-8.03-1.976-15.601-5.449-22.274l63.383-68.354 c6.15-6.638,5.76-17.004-0.879-23.154c-6.638-6.159-17.004-5.76-23.145,0.87l-63.386,68.358 c-5.825-2.486-12.23-3.865-18.953-3.865c-26.713,0-48.429,21.725-48.429,48.42C272.88,228.586,294.596,250.311,321.309,250.311z M321.309,186.227c8.635,0,15.655,7.02,15.655,15.646c0,8.635-7.02,15.664-15.655,15.664c-8.635,0-15.673-7.029-15.673-15.664 C305.636,193.247,312.674,186.227,321.309,186.227z"></path><path d="M463.58,96.85c26.695,0,48.42-21.725,48.42-48.429C512,21.716,490.275,0,463.58,0c-26.704,0-48.438,21.716-48.438,48.412 C415.141,75.124,436.867,96.85,463.58,96.85z M463.58,32.765c8.635,0,15.655,7.02,15.655,15.655 c0,8.635-7.02,15.664-15.655,15.655c-8.644,0-15.673-7.029-15.673-15.664C447.907,39.785,454.936,32.765,463.58,32.765z"></path><path d="M164.573,347.223v62.416c0,9.052,7.331,16.392,16.383,16.392c9.043,0,16.383-7.339,16.383-16.392v-62.416 c0-9.052-7.339-16.392-16.383-16.392C171.912,330.832,164.573,338.171,164.573,347.223z"></path><path d="M304.74,274.459v135.18c0,9.052,7.331,16.392,16.383,16.392c9.043,0,16.374-7.339,16.383-16.392v-135.18 c0-9.043-7.331-16.383-16.383-16.383C312.07,258.077,304.74,265.416,304.74,274.459z"></path><path d="M447.188,120.998v288.641c0,9.052,7.339,16.392,16.392,16.392c9.052,0,16.383-7.339,16.383-16.392V120.998 c0-9.043-7.331-16.383-16.383-16.383C454.527,104.615,447.188,111.946,447.188,120.998z"></path></g></g></g></svg>