<?xml version="1.0" encoding="iso-8859-1"?>
<!-- Generator: Adobe Illustrator 19.0.0, SVG Export Plug-In . SVG Version: 6.00 Build 0)  -->
<svg version="1.1" id="Layer_1" xmlns="http://www.w3.org/2000/svg" xmlns:xlink="http://www.w3.org/1999/xlink" x="0px" y="0px"
	 viewBox="0 0 512 512" style="enable-background:new 0 0 512 512;" xml:space="preserve">
<rect x="224.033" y="299.116" style="fill:#AD712C;" width="172.481" height="150.921"/>
<rect x="224.033" y="299.116" style="fill:#C98A2E;" width="86.241" height="150.921"/>
<rect x="224.033" y="299.116" style="fill:#D5A150;" width="43.12" height="150.921"/>
<g>
	<rect x="224.033" y="299.116" style="opacity:0.4;fill:#7A5436;enable-background:new    ;" width="172.481" height="43.12"/>
	<path style="fill:#7A5436;" d="M310.278,342.235c-28.74,8.926-49.588,35.472-49.588,66.837v40.964h99.177v-40.964
		C359.866,377.708,339.017,351.162,310.278,342.235z"/>
</g>
<path style="fill:#AB5034;" d="M320.094,434.287c-84.934-7.498-156.114-67.05-178.183-149.076s9.676-169.044,79.468-217.83
	c39.062-27.306,85.378-39.366,130.859-36.183c2.89,0.203,6.011-1.451,6.83-4.055c1.206-3.837-4.382-9.374-4.382-9.374l-142,0.017
	L88.883,128.667L37.366,320.212L175.044,448.91l135.29,48.419c0,0,140.651-55.828,172.248-103.89
	c4.406-6.702-4.338-14.143-10.375-8.848C431.324,420.45,376.681,439.282,320.094,434.287z"/>
<path style="fill:#BD7155;" d="M193.053,441.007C94.555,385.132,52.891,265.207,95.654,160.655
	C138.324,56.331,280.418,7.763,359.068,27.142c1.474-3.442,0.281-8.019-4.382-9.374c-43.599-12.666-92.302-13.244-142,0.017
	C76.417,54.151,0.852,184.498,37.366,320.212s167.395,210.969,303.665,174.605c61.334-16.367,109.954-53.317,141.551-101.378
	c1.988-3.024,1.287-6.186-0.621-8.274C418.666,464.832,314.8,510.07,193.053,441.007z"/>
<path style="fill:#E1B872;" d="M277.937,169.754l-21.56-15.998c-6.791,4.546-12.975,9.928-18.408,15.998
	c-1.081,1.208-2.132,2.444-3.152,3.705c-4.441,5.489-8.295,11.473-11.467,17.855c-3.368,6.776-5.969,13.999-7.685,21.56
	c-1.574,6.935-2.408,14.15-2.408,21.56c0,7.411,0.841,14.625,2.417,21.56c1.717,7.559,4.309,14.785,7.676,21.56l54.587-86.241
	l21.56-21.56H277.937z"/>
<path style="fill:#D5A150;" d="M321.058,138.013c-3.54-0.391-7.135-0.599-10.78-0.599c-11.341,0-22.224,1.952-32.34,5.528
	c-4.187,1.48-8.242,3.235-12.144,5.252c-3.25,1.681-6.394,3.539-9.416,5.563v15.998h21.56v21.56h-21.56v21.56h-21.56v21.56h-21.56
	c0,7.411,0.841,14.625,2.417,21.56c1.717,7.559,4.309,14.785,7.676,21.56h11.467l43.12-21.56l64.68-86.241L321.058,138.013z"/>
<path style="fill:#C98A2E;" d="M385.738,191.314l-30.977-43.12c-10.296-5.322-21.668-8.85-33.704-10.181v10.181h-21.56v21.56h21.56
	v21.56h-21.56v21.56h-21.56v21.56h-21.56v21.56h-21.56v21.56h43.12h64.68l43.12-64.68l9.433-10.511L385.738,191.314z"/>
<path style="fill:#AD712C;" d="M404.89,212.874c-1.716-7.561-4.317-14.784-7.685-21.56c-3.901-7.849-8.832-15.094-14.62-21.56
	c-7.851-8.771-17.272-16.105-27.824-21.56h-12.144v21.56h21.56v21.56h21.56v21.56h-21.56v21.56h-21.56v21.56h-21.56h-21.56h-21.56
	v21.56h43.12h43.12h33.027c3.368-6.775,5.959-14.001,7.677-21.56c1.576-6.935,2.417-14.149,2.417-21.56
	C407.298,227.024,406.464,219.809,404.89,212.874z"/>
<path style="opacity:0.4;fill:#7A5436;enable-background:new    ;" d="M397.205,191.314c-3.901-7.849-8.832-15.094-14.62-21.56
	c-7.851-8.772-17.272-16.105-27.824-21.56c-6.976-3.606-14.454-6.363-22.289-8.197c8.675,5.109,16.488,11.522,23.163,18.977
	c5.787,6.466,10.719,13.711,14.62,21.56c3.368,6.775,5.969,13.999,7.685,21.56c1.574,6.935,2.408,14.15,2.408,21.56
	c0,7.411-0.841,14.625-2.417,21.56c-0.017,0.075-0.035,0.152-0.052,0.226c-0.009,0.039-0.018,0.079-0.027,0.117
	c-1.447,6.172-7.105,10.436-13.443,10.436h-57.096h-91.639c1.717,7.559,4.309,14.785,7.676,21.56h11.467h43.12h43.12h21.56h21.56
	h33.027c3.368-6.775,5.959-14.001,7.677-21.56c1.576-6.935,2.417-14.149,2.417-21.56c0-7.41-0.834-14.625-2.408-21.56
	C403.174,205.314,400.573,198.09,397.205,191.314z"/>
<path style="fill:#ECCE93;" d="M246.675,320.675h-21.56c-7.144,0-12.936-5.792-12.936-12.936v-17.248
	c0-7.144,5.792-12.936,12.936-12.936h21.56l21.56,21.56L246.675,320.675z"/>
<polygon style="fill:#D5A150;" points="289.796,320.675 246.675,320.675 246.675,277.555 289.796,277.555 311.356,299.115 "/>
<polygon style="fill:#C98A2E;" points="332.916,320.675 289.796,320.675 289.796,277.555 332.916,277.555 354.476,299.115 "/>
<path style="fill:#AD712C;" d="M395.44,277.555h-30.184h-32.34v43.12h32.34h30.184c7.144,0,12.936-5.792,12.936-12.936v-17.248
	C408.376,283.347,402.584,277.555,395.44,277.555z"/>
<path style="opacity:0.4;fill:#7A5436;enable-background:new    ;" d="M212.179,299.115v8.624c0,7.144,5.792,12.936,12.936,12.936
	H395.44c7.144,0,12.936-5.792,12.936-12.936v-8.624H212.179z"/>
<path style="fill:#C98A2E;" d="M321.058,118.549h-21.56c-10.402,0-18.865,8.463-18.865,18.865c0,1.537,0.205,3.025,0.554,4.456
	l58.182,0.002c0.349-1.432,0.554-2.92,0.554-4.459C339.923,127.012,331.459,118.549,321.058,118.549z"/>
<path d="M491.844,389.102c-0.217-5.677-3.811-10.836-9.174-13.159c-5.31-2.302-11.364-1.317-15.795,2.569
	c-18.372,16.115-39.577,28.487-62.273,36.702v-88.584c7.006-3.413,11.858-10.586,11.858-18.89v-17.248
	c0-6.952-3.406-13.109-8.623-16.938c2.048-5.11,3.704-10.384,4.927-15.767c1.737-7.644,2.618-15.501,2.618-23.352
	c0-7.863-0.876-15.72-2.608-23.349v-0.001c-1.833-8.073-4.635-15.936-8.331-23.369c-4.199-8.447-9.526-16.305-15.835-23.354
	c-8.592-9.6-18.731-17.455-30.137-23.351c-3.375-1.744-6.884-3.316-10.488-4.696c-0.579-14.353-12.436-25.852-26.928-25.852h-3.773
	v-7.571c4.828-2.797,8.085-8.007,8.085-13.989c0-8.93-7.24-16.17-16.17-16.17s-16.17,7.24-16.17,16.17
	c0,5.982,3.257,11.192,8.085,13.989v7.571h-1.617c-14.49,0-26.344,11.494-26.928,25.842c-3.583,1.377-7.101,2.955-10.488,4.706
	c-3.487,1.802-6.921,3.83-10.202,6.026c-7.328,4.905-14.036,10.734-19.937,17.326c-1.165,1.302-2.313,2.652-3.412,4.01
	c-4.829,5.971-9.009,12.479-12.421,19.342c-3.695,7.434-6.497,15.296-8.331,23.37c-1.73,7.63-2.608,15.486-2.608,23.349
	c0,7.851,0.881,15.708,2.618,23.351c1.222,5.382,2.878,10.658,4.926,15.768c-5.216,3.829-8.623,9.986-8.623,16.938v17.248
	c0,8.304,4.852,15.476,11.858,18.89v41.479c0,4.465,3.619,8.085,8.085,8.085c4.466,0,8.085-3.62,8.085-8.085v-39.347h156.311v91.535
	c-21.87,5.85-44.776,7.955-67.628,5.937c-18.093-1.596-35.565-5.697-52.031-11.965v-5.195c0-26.366,16.574-49.496,41.503-58.319
	c24.929,8.823,41.503,31.952,41.503,58.319c0,4.465,3.619,8.085,8.085,8.085s8.085-3.62,8.085-8.085
	c0-34.327-22.213-64.289-55.275-74.558c-1.562-0.485-3.234-0.485-4.796,0c-32.486,10.089-54.483,39.196-55.239,72.771
	c-49.707-24.24-88.086-69.039-102.921-124.175c-21.1-78.423,9.559-162.455,76.292-209.103
	c36.508-25.522,81.143-37.863,125.662-34.743c4.564,0.32,7.505-1.45,9.18-2.988c0.51-0.469,1.05-1.054,1.56-1.773
	c0.028-0.013,0.054-0.029,0.082-0.042c0.095-0.044,0.186-0.095,0.28-0.143c0.132-0.068,0.263-0.136,0.391-0.211
	c0.091-0.054,0.178-0.111,0.266-0.168c0.124-0.08,0.247-0.16,0.367-0.247c0.087-0.064,0.171-0.129,0.257-0.196
	c0.113-0.089,0.225-0.179,0.334-0.274c0.085-0.074,0.167-0.152,0.249-0.23c0.1-0.096,0.199-0.193,0.294-0.293
	c0.083-0.087,0.163-0.177,0.241-0.267c0.086-0.099,0.17-0.201,0.251-0.304c0.08-0.101,0.156-0.204,0.231-0.309
	c0.072-0.101,0.141-0.205,0.209-0.31c0.073-0.114,0.144-0.231,0.212-0.349c0.06-0.106,0.117-0.213,0.174-0.322
	c0.064-0.123,0.125-0.247,0.182-0.375c0.021-0.046,0.045-0.088,0.066-0.135c0.028-0.067,0.046-0.135,0.074-0.202
	c0.056-0.142,0.111-0.287,0.16-0.433c1.464-3.877,1.338-8.151-0.405-11.839c-1.81-3.827-5.143-6.614-9.386-7.847
	c-45.876-13.327-96.476-13.337-146.34-0.03C142.449,28.162,86.486,70.099,53.021,128.062
	c-33.309,57.695-41.642,126.68-23.463,194.25c18.22,67.725,60.199,123.39,118.2,156.74C185.71,500.874,228.537,512,272.658,512
	c23.3,0,46.961-3.103,70.455-9.372c30.918-8.25,59.381-21.735,84.599-40.077c24.297-17.674,45.031-39.432,61.622-64.669
	c0.264-0.402,0.502-0.804,0.696-1.166c0.094-0.17,0.179-0.34,0.265-0.52c0.127-0.257,0.251-0.517,0.367-0.786
	c0.074-0.174,0.142-0.345,0.231-0.58c0.085-0.226,0.168-0.452,0.251-0.707c0.059-0.181,0.111-0.359,0.183-0.619
	c0.063-0.224,0.12-0.447,0.174-0.688c0.052-0.227,0.096-0.456,0.152-0.774l0.079-0.523c0.033-0.267,0.063-0.531,0.081-0.796
	c0.01-0.12,0.017-0.249,0.025-0.424c0.015-0.322,0.021-0.646,0.013-0.966C491.851,389.256,491.849,389.176,491.844,389.102z
	 M225.115,312.59c-2.675,0-4.851-2.177-4.851-4.851v-17.248c0-2.675,2.176-4.851,4.851-4.851h13.475v26.95H225.115z M254.76,285.64
	h26.95v26.95h-26.95V285.64z M297.881,285.64h26.95v26.95h-26.95V285.64z M341.001,285.64h26.95v26.95h-26.95V285.64z
	 M384.121,285.64h11.319c2.675,0,4.851,2.177,4.851,4.851v17.248c0,2.674-2.177,4.851-4.851,4.851h-11.319V285.64z M223.549,214.664
	c1.548-6.822,3.916-13.468,7.039-19.751c2.887-5.807,6.424-11.315,10.514-16.37c0.931-1.151,1.905-2.295,2.89-3.397
	c4.998-5.582,10.677-10.518,16.881-14.671c2.778-1.86,5.682-3.575,8.633-5.099c3.571-1.846,7.313-3.464,11.124-4.81
	c0.983-0.347,1.979-0.669,2.979-0.983c4.064-1.276,6.441-5.486,5.433-9.626c-0.218-0.897-0.324-1.729-0.324-2.544
	c0-5.944,4.836-10.78,10.78-10.78h21.56c5.944,0,10.78,4.836,10.78,10.78c0,0.816-0.107,1.647-0.324,2.541
	c-1.011,4.141,1.367,8.355,5.433,9.632c4.9,1.538,9.644,3.486,14.103,5.79c9.652,4.989,18.236,11.64,25.512,19.77
	c5.341,5.968,9.851,12.618,13.405,19.766c3.123,6.284,5.492,12.929,7.039,19.75c1.465,6.457,2.208,13.11,2.208,19.772
	c0,6.647-0.745,13.298-2.216,19.77c-1.19,5.234-2.852,10.35-4.959,15.266H228.516c-2.106-4.916-3.77-10.033-4.959-15.267
	c-1.47-6.47-2.216-13.122-2.216-19.769C221.342,227.774,222.084,221.121,223.549,214.664z M338.946,487.005
	C206.858,522.252,80.562,449.645,45.173,318.111c-17.055-63.392-9.295-128.015,21.852-181.962
	C98.326,81.93,150.797,42.67,214.772,25.597c23.549-6.284,47.237-9.426,70.436-9.426c3.632,0,7.246,0.102,10.851,0.257
	c-58.499,6.531-126.51,34.747-172.143,85.145c-2.997,3.309-2.744,8.422,0.566,11.419c1.548,1.401,3.488,2.091,5.425,2.091
	c2.203,0,4.399-0.896,5.996-2.658c27.054-29.879,65.833-54.136,109.251-68.363c-9.856,4.798-19.362,10.369-28.404,16.691
	c-35.61,24.892-62.286,59.578-77.145,100.305c-14.859,40.734-16.761,84.39-5.498,126.252
	c11.261,41.858,34.823,78.715,68.135,106.586c33.307,27.867,73.814,44.618,117.143,48.441c42.016,3.716,84.205-5.431,120.762-25.51
	c-43.011,36.533-113.851,71.715-208.367,33.943c-4.145-1.657-8.85,0.36-10.508,4.507c-1.657,4.146,0.361,8.85,4.508,10.508
	c28.877,11.54,57.414,17.315,85.375,17.315c22.167,0,43.975-3.631,65.291-10.897c4.865-1.658,9.685-3.514,14.457-5.549
	C374.736,475.263,357.364,482.091,338.946,487.005z"/>
<path d="M111.436,130.473c-3.836-2.291-8.797-1.037-11.087,2.794c-4.689,7.848-8.786,16.034-12.178,24.327
	c-1.69,4.133,0.29,8.854,4.423,10.544c1.001,0.41,2.039,0.604,3.057,0.604c3.186,0,6.206-1.895,7.486-5.027
	c3.087-7.547,6.819-15.002,11.094-22.157C116.52,137.726,115.269,132.762,111.436,130.473z"/>
<path d="M210.108,440.976c-4.328-2.183-8.724-4.538-13.065-7.002c-3.885-2.203-8.818-0.84-11.022,3.044
	c-2.203,3.884-0.84,8.818,3.043,11.022c4.57,2.593,9.2,5.073,13.761,7.374c1.169,0.589,2.41,0.868,3.635,0.868
	c2.955,0,5.803-1.627,7.225-4.446C215.695,447.848,214.095,442.986,210.108,440.976z"/>
<g>
</g>
<g>
</g>
<g>
</g>
<g>
</g>
<g>
</g>
<g>
</g>
<g>
</g>
<g>
</g>
<g>
</g>
<g>
</g>
<g>
</g>
<g>
</g>
<g>
</g>
<g>
</g>
<g>
</g>
</svg>
